<svg width="20" height="18" viewBox="0 0 20 18" fill="none" xmlns="http://www.w3.org/2000/svg">
<path d="M7.83095 18C7.70238 17.9867 7.5881 17.9204 7.51667 17.8175L4.656 13.6759L0.195375 11.0177C0.084663 10.9513 0.0132654 10.8451 0.0025513 10.7257C-0.0117341 10.6062 0.0346814 10.4867 0.123965 10.4004L1.66677 8.9668C1.74892 8.89047 1.85252 8.85066 1.9668 8.85066C1.98109 8.85066 1.99894 8.85066 2.01323 8.85066L6.59885 9.3053L6.70954 9.16593C7.05953 8.73119 7.44169 8.31636 7.84525 7.93473L8.13098 7.66592L1.31679 3.60398C1.20608 3.53761 1.13821 3.43141 1.12392 3.31194C1.10964 3.19247 1.15609 3.07301 1.24538 2.99005L3.19533 1.17809C3.2739 1.10177 3.3846 1.06195 3.49889 1.06195C3.53817 1.06195 3.58106 1.06858 3.62034 1.07854L12.588 3.52766L15.7665 0.574109C16.1665 0.202427 16.6951 0 17.2594 0C17.7808 0 18.2701 0.172557 18.6558 0.487822V0.660395H18.8415C19.5736 1.43031 19.545 2.61171 18.7522 3.34844L15.5737 6.30199L18.2094 14.6349C18.2522 14.7743 18.2093 14.927 18.1022 15.0299L16.1522 16.8418C16.0737 16.9148 15.963 16.958 15.8487 16.958C15.8344 16.958 15.8165 16.958 15.8023 16.958C15.6737 16.9447 15.5594 16.8783 15.488 16.7788L11.1166 10.4469L10.8273 10.7124C10.4166 11.0874 9.97022 11.4425 9.50237 11.7677L9.35235 11.8706L9.84163 16.1283C9.85591 16.2478 9.80949 16.3673 9.71664 16.4502L8.17383 17.8838C8.09526 17.9568 7.98451 18 7.87023 18C7.85594 18 7.83809 18 7.8238 18H7.83095ZM8.12025 12.6106C7.45598 12.9591 6.75243 13.2577 6.03101 13.4934L5.63813 13.6228L7.95241 16.9745L8.97739 16.0254L8.55952 12.385L8.12383 12.6139L8.12025 12.6106ZM11.7452 9.86947L15.9308 15.9292L17.3237 14.6349L14.8915 6.9458L11.7452 9.86947ZM17.2665 0.793126C16.9308 0.793126 16.6129 0.915924 16.3772 1.13495L8.52739 8.42919C7.37384 9.5011 6.48097 10.7555 5.8667 12.156L5.57029 12.8296L6.29529 12.5542C7.80598 11.9834 9.15594 11.1504 10.3059 10.0819L18.1558 2.7876C18.645 2.33295 18.645 1.5896 18.1558 1.13495C17.9165 0.915924 17.6022 0.793126 17.2665 0.793126ZM1.10966 10.6161L4.71673 12.7666L4.85602 12.4015C5.10959 11.7279 5.43102 11.0774 5.80602 10.4602L6.05242 10.0553L2.13464 9.66704L1.11324 10.6195L1.10966 10.6161ZM2.23465 3.20242L8.75596 7.09181L11.9023 4.16814L3.62745 1.90819L2.23465 3.20242Z" fill="#0072C6"/>
</svg>
