<svg width="20" height="20" viewBox="0 0 20 20" fill="none" xmlns="http://www.w3.org/2000/svg">
<path d="M7.5 0.916993C8.34408 0.916993 9.01195 0.916373 9.55274 0.950196C10.0996 0.984425 10.5672 1.05623 11.0068 1.22168C12.287 1.70352 13.2975 2.71397 13.7793 3.99414C13.9446 4.43359 14.0156 4.90063 14.0498 5.44727C14.0591 5.59528 14.0644 5.75285 14.0693 5.9209C14.5114 5.92417 14.8389 5.93423 15.1328 5.98438C17.12 6.3236 18.6764 7.88102 19.0156 9.86816C19.086 10.2806 19.084 10.7594 19.084 11.5283V12.5C19.084 13.3441 19.0836 14.0119 19.0498 14.5527C19.0156 15.0996 18.9447 15.5672 18.7793 16.0068C18.2975 17.287 17.287 18.2975 16.0068 18.7793C15.5672 18.9447 15.0996 19.0156 14.5527 19.0498C14.0119 19.0836 13.3441 19.084 12.5 19.084H11.5283C10.7594 19.084 10.2806 19.086 9.86816 19.0156C7.88102 18.6764 6.3236 17.12 5.98438 15.1328C5.93423 14.8389 5.92417 14.5114 5.9209 14.0693C5.75285 14.0644 5.59528 14.0591 5.44727 14.0498C4.90063 14.0156 4.43359 13.9446 3.99414 13.7793C2.71397 13.2975 1.70352 12.287 1.22168 11.0068C1.05623 10.5672 0.984425 10.0996 0.950196 9.55274C0.916373 9.01195 0.916993 8.34408 0.916993 7.5C0.916993 6.65583 0.916347 5.98806 0.950196 5.44727C0.984423 4.90057 1.0563 4.43363 1.22168 3.99414C1.70351 2.71394 2.71394 1.70351 3.99414 1.22168C4.43363 1.0563 4.90057 0.984423 5.44727 0.950196C5.98806 0.916347 6.65583 0.916993 7.5 0.916993ZM14.084 7.5C14.084 8.3441 14.0836 9.01194 14.0498 9.55274C14.0156 10.0996 13.9447 10.5672 13.7793 11.0068C13.2975 12.287 12.287 13.2975 11.0068 13.7793C10.5672 13.9447 10.0996 14.0156 9.55274 14.0498C9.01194 14.0836 8.3441 14.084 7.5 14.084C7.47346 14.084 7.44709 14.083 7.4209 14.083C7.42421 14.4863 7.43203 14.7001 7.46289 14.8809C7.69507 16.2404 8.76057 17.305 10.1201 17.5371C10.3758 17.5808 10.6974 17.584 11.5283 17.584H12.5C13.3631 17.584 13.9768 17.583 14.46 17.5527C14.9368 17.5229 15.237 17.4659 15.4785 17.375C16.3543 17.0453 17.0453 16.3543 17.375 15.4785C17.4659 15.237 17.5229 14.9368 17.5527 14.46C17.583 13.9768 17.584 13.3631 17.584 12.5V11.5283C17.584 10.6974 17.5808 10.3758 17.5371 10.1201C17.305 8.76057 16.2404 7.69507 14.8809 7.46289C14.7001 7.43203 14.4863 7.42421 14.083 7.4209C14.083 7.44709 14.084 7.47346 14.084 7.5ZM7.5 2.41699C6.63706 2.41699 6.0241 2.41703 5.54102 2.44727C5.06416 2.47712 4.76395 2.53416 4.52246 2.625C3.64654 2.95468 2.95468 3.64654 2.625 4.52246C2.53416 4.76395 2.47712 5.06416 2.44727 5.54102C2.41703 6.0241 2.41699 6.63706 2.41699 7.5C2.41699 8.36311 2.41703 8.97682 2.44727 9.45996C2.47714 9.93682 2.53412 10.237 2.625 10.4785C2.95468 11.3544 3.64654 12.0453 4.52246 12.375C4.76398 12.4659 5.06404 12.5229 5.54102 12.5527C6.0241 12.583 6.63706 12.584 7.5 12.584C8.36311 12.584 8.97682 12.583 9.45996 12.5527C9.93683 12.5229 10.237 12.4659 10.4785 12.375C11.3543 12.0453 12.0453 11.3543 12.375 10.4785C12.4659 10.237 12.5229 9.93683 12.5527 9.45996C12.583 8.97682 12.584 8.36311 12.584 7.5C12.584 6.63706 12.583 6.0241 12.5527 5.54102C12.5229 5.06404 12.4659 4.76398 12.375 4.52246C12.0453 3.64654 11.3544 2.95468 10.4785 2.625C10.237 2.53412 9.93682 2.47714 9.45996 2.44727C8.97682 2.41703 8.36311 2.41699 7.5 2.41699Z" fill="#0072C6"/>
</svg>
