<svg width="683" height="1024" viewBox="0 0 683 1024" fill="none" xmlns="http://www.w3.org/2000/svg">
<rect width="684" height="1024" fill="white"/>
<rect x="6.5" y="86.5" width="326" height="65" rx="3.5" fill="#F3FAFF"/>
<rect x="6.5" y="86.5" width="326" height="65" rx="3.5" stroke="#CBE9FF"/>
<path d="M27.044 111V102.54H32.384V103.368H28.004V106.296H32.132V107.124H28.004V110.172H32.384V111H27.044ZM33.9321 111V105.168H34.8801V106.464H34.7481C34.8441 106.168 34.9841 105.916 35.1681 105.708C35.3601 105.492 35.5841 105.332 35.8401 105.228C36.1041 105.116 36.3921 105.06 36.7041 105.06C37.2001 105.06 37.6001 105.18 37.9041 105.42C38.2161 105.652 38.4241 106.016 38.5281 106.512H38.3481C38.4921 106.064 38.7481 105.712 39.1161 105.456C39.4921 105.192 39.9281 105.06 40.4241 105.06C40.8641 105.06 41.2241 105.144 41.5041 105.312C41.7921 105.48 42.0081 105.736 42.1521 106.08C42.2961 106.416 42.3681 106.844 42.3681 107.364V111H41.3961V107.412C41.3961 106.876 41.3041 106.484 41.1201 106.236C40.9361 105.98 40.6241 105.852 40.1841 105.852C39.8721 105.852 39.5961 105.928 39.3561 106.08C39.1241 106.232 38.9441 106.448 38.8161 106.728C38.6961 107 38.6361 107.324 38.6361 107.7V111H37.6641V107.412C37.6641 106.876 37.5681 106.484 37.3761 106.236C37.1921 105.98 36.8841 105.852 36.4521 105.852C36.1321 105.852 35.8561 105.928 35.6241 106.08C35.3921 106.232 35.2121 106.448 35.0841 106.728C34.9641 107 34.9041 107.324 34.9041 107.7V111H33.9321ZM44.1854 113.16V105.168H45.1334V106.548H45.0134C45.1414 106.092 45.3934 105.732 45.7694 105.468C46.1534 105.196 46.6094 105.06 47.1374 105.06C47.6574 105.06 48.1094 105.184 48.4934 105.432C48.8854 105.672 49.1854 106.02 49.3934 106.476C49.6094 106.924 49.7174 107.46 49.7174 108.084C49.7174 108.7 49.6094 109.236 49.3934 109.692C49.1854 110.14 48.8894 110.488 48.5054 110.736C48.1214 110.984 47.6654 111.108 47.1374 111.108C46.6094 111.108 46.1574 110.976 45.7814 110.712C45.4054 110.44 45.1494 110.08 45.0134 109.632H45.1574V113.16H44.1854ZM46.9334 110.328C47.4854 110.328 47.9214 110.136 48.2414 109.752C48.5694 109.36 48.7334 108.804 48.7334 108.084C48.7334 107.356 48.5694 106.8 48.2414 106.416C47.9214 106.032 47.4854 105.84 46.9334 105.84C46.3894 105.84 45.9534 106.032 45.6254 106.416C45.2974 106.8 45.1334 107.356 45.1334 108.084C45.1334 108.804 45.2974 109.36 45.6254 109.752C45.9534 110.136 46.3894 110.328 46.9334 110.328ZM52.9695 111.108C52.3775 111.108 51.9295 110.932 51.6255 110.58C51.3295 110.228 51.1815 109.724 51.1815 109.068V102.54H52.1535V108.996C52.1535 109.276 52.1895 109.512 52.2615 109.704C52.3415 109.896 52.4575 110.04 52.6095 110.136C52.7615 110.232 52.9495 110.28 53.1735 110.28C53.2695 110.28 53.3615 110.276 53.4495 110.268C53.5455 110.252 53.6335 110.232 53.7135 110.208L53.6895 111.024C53.5615 111.048 53.4375 111.068 53.3175 111.084C53.2055 111.1 53.0895 111.108 52.9695 111.108ZM57.0977 111.108C56.5297 111.108 56.0377 110.984 55.6217 110.736C55.2057 110.488 54.8817 110.14 54.6497 109.692C54.4257 109.236 54.3137 108.7 54.3137 108.084C54.3137 107.468 54.4257 106.936 54.6497 106.488C54.8817 106.032 55.2057 105.68 55.6217 105.432C56.0377 105.184 56.5297 105.06 57.0977 105.06C57.6657 105.06 58.1577 105.184 58.5737 105.432C58.9897 105.68 59.3097 106.032 59.5337 106.488C59.7657 106.936 59.8817 107.468 59.8817 108.084C59.8817 108.7 59.7657 109.236 59.5337 109.692C59.3097 110.14 58.9897 110.488 58.5737 110.736C58.1577 110.984 57.6657 111.108 57.0977 111.108ZM57.0977 110.328C57.6497 110.328 58.0857 110.136 58.4057 109.752C58.7337 109.36 58.8977 108.8 58.8977 108.072C58.8977 107.352 58.7337 106.8 58.4057 106.416C58.0857 106.032 57.6497 105.84 57.0977 105.84C56.5537 105.84 56.1177 106.032 55.7897 106.416C55.4617 106.8 55.2977 107.352 55.2977 108.072C55.2977 108.8 55.4617 109.36 55.7897 109.752C56.1177 110.136 56.5537 110.328 57.0977 110.328ZM61.9317 113.16L63.0237 110.7V111.12L60.4677 105.168H61.5237L63.6117 110.28H63.2877L65.3997 105.168H66.4197L62.9517 113.16H61.9317ZM69.9697 111.108C69.3537 111.108 68.8217 110.988 68.3737 110.748C67.9337 110.5 67.5897 110.152 67.3417 109.704C67.1017 109.256 66.9817 108.72 66.9817 108.096C66.9817 107.488 67.1017 106.96 67.3417 106.512C67.5817 106.056 67.9097 105.7 68.3257 105.444C68.7497 105.188 69.2377 105.06 69.7897 105.06C70.3177 105.06 70.7697 105.176 71.1457 105.408C71.5217 105.64 71.8097 105.968 72.0097 106.392C72.2177 106.816 72.3217 107.324 72.3217 107.916V108.288H67.7257V107.652H71.6737L71.4817 107.808C71.4817 107.168 71.3377 106.672 71.0497 106.32C70.7697 105.96 70.3577 105.78 69.8137 105.78C69.4057 105.78 69.0577 105.876 68.7697 106.068C68.4897 106.252 68.2777 106.512 68.1337 106.848C67.9897 107.176 67.9177 107.56 67.9177 108V108.072C67.9177 108.56 67.9937 108.972 68.1457 109.308C68.3057 109.644 68.5417 109.9 68.8537 110.076C69.1657 110.244 69.5377 110.328 69.9697 110.328C70.3137 110.328 70.6457 110.276 70.9657 110.172C71.2937 110.06 71.6017 109.88 71.8897 109.632L72.2257 110.316C71.9617 110.556 71.6257 110.748 71.2177 110.892C70.8097 111.036 70.3937 111.108 69.9697 111.108ZM76.3564 111.108C75.7404 111.108 75.2084 110.988 74.7604 110.748C74.3204 110.5 73.9764 110.152 73.7284 109.704C73.4884 109.256 73.3684 108.72 73.3684 108.096C73.3684 107.488 73.4884 106.96 73.7284 106.512C73.9684 106.056 74.2964 105.7 74.7124 105.444C75.1364 105.188 75.6244 105.06 76.1764 105.06C76.7044 105.06 77.1564 105.176 77.5324 105.408C77.9084 105.64 78.1964 105.968 78.3964 106.392C78.6044 106.816 78.7084 107.324 78.7084 107.916V108.288H74.1124V107.652H78.0604L77.8684 107.808C77.8684 107.168 77.7244 106.672 77.4364 106.32C77.1564 105.96 76.7444 105.78 76.2004 105.78C75.7924 105.78 75.4444 105.876 75.1564 106.068C74.8764 106.252 74.6644 106.512 74.5204 106.848C74.3764 107.176 74.3044 107.56 74.3044 108V108.072C74.3044 108.56 74.3804 108.972 74.5324 109.308C74.6924 109.644 74.9284 109.9 75.2404 110.076C75.5524 110.244 75.9244 110.328 76.3564 110.328C76.7004 110.328 77.0324 110.276 77.3524 110.172C77.6804 110.06 77.9884 109.88 78.2764 109.632L78.6124 110.316C78.3484 110.556 78.0124 110.748 77.6044 110.892C77.1964 111.036 76.7804 111.108 76.3564 111.108ZM83.3292 111V102.54H84.0972L89.4852 109.728H89.1972V102.54H90.1092V111H89.3652L83.9772 103.812H84.2532V111H83.3292ZM93.916 111.108C93.516 111.108 93.156 111.032 92.836 110.88C92.524 110.72 92.276 110.504 92.092 110.232C91.908 109.96 91.816 109.656 91.816 109.32C91.816 108.888 91.924 108.548 92.14 108.3C92.364 108.052 92.728 107.876 93.232 107.772C93.744 107.668 94.44 107.616 95.32 107.616H95.86V108.252H95.332C94.844 108.252 94.436 108.268 94.108 108.3C93.78 108.332 93.52 108.388 93.328 108.468C93.136 108.548 93 108.652 92.92 108.78C92.84 108.908 92.8 109.068 92.8 109.26C92.8 109.588 92.912 109.856 93.136 110.064C93.368 110.272 93.68 110.376 94.072 110.376C94.392 110.376 94.672 110.3 94.912 110.148C95.16 109.996 95.352 109.788 95.488 109.524C95.632 109.26 95.704 108.956 95.704 108.612V107.244C95.704 106.748 95.604 106.392 95.404 106.176C95.204 105.952 94.876 105.84 94.42 105.84C94.068 105.84 93.728 105.892 93.4 105.996C93.072 106.092 92.736 106.252 92.392 106.476L92.056 105.768C92.264 105.624 92.5 105.5 92.764 105.396C93.028 105.284 93.304 105.2 93.592 105.144C93.88 105.088 94.156 105.06 94.42 105.06C94.924 105.06 95.34 105.144 95.668 105.312C95.996 105.472 96.24 105.72 96.4 106.056C96.56 106.384 96.64 106.808 96.64 107.328V111H95.728V109.644H95.836C95.772 109.948 95.648 110.208 95.464 110.424C95.288 110.64 95.068 110.808 94.804 110.928C94.54 111.048 94.244 111.108 93.916 111.108ZM98.4673 111V105.168H99.4153V106.464H99.2833C99.3793 106.168 99.5193 105.916 99.7033 105.708C99.8953 105.492 100.119 105.332 100.375 105.228C100.639 105.116 100.927 105.06 101.239 105.06C101.735 105.06 102.135 105.18 102.439 105.42C102.751 105.652 102.959 106.016 103.063 106.512H102.883C103.027 106.064 103.283 105.712 103.651 105.456C104.027 105.192 104.463 105.06 104.959 105.06C105.399 105.06 105.759 105.144 106.039 105.312C106.327 105.48 106.543 105.736 106.687 106.08C106.831 106.416 106.903 106.844 106.903 107.364V111H105.931V107.412C105.931 106.876 105.839 106.484 105.655 106.236C105.471 105.98 105.159 105.852 104.719 105.852C104.407 105.852 104.131 105.928 103.891 106.08C103.659 106.232 103.479 106.448 103.351 106.728C103.231 107 103.171 107.324 103.171 107.7V111H102.199V107.412C102.199 106.876 102.103 106.484 101.911 106.236C101.727 105.98 101.419 105.852 100.987 105.852C100.667 105.852 100.391 105.928 100.159 106.08C99.9273 106.232 99.7473 106.448 99.6193 106.728C99.4993 107 99.4393 107.324 99.4393 107.7V111H98.4673ZM111.349 111.108C110.733 111.108 110.201 110.988 109.753 110.748C109.313 110.5 108.969 110.152 108.721 109.704C108.481 109.256 108.361 108.72 108.361 108.096C108.361 107.488 108.481 106.96 108.721 106.512C108.961 106.056 109.289 105.7 109.705 105.444C110.129 105.188 110.617 105.06 111.169 105.06C111.697 105.06 112.149 105.176 112.525 105.408C112.901 105.64 113.189 105.968 113.389 106.392C113.597 106.816 113.701 107.324 113.701 107.916V108.288H109.105V107.652H113.053L112.861 107.808C112.861 107.168 112.717 106.672 112.429 106.32C112.149 105.96 111.737 105.78 111.193 105.78C110.785 105.78 110.437 105.876 110.149 106.068C109.869 106.252 109.657 106.512 109.513 106.848C109.369 107.176 109.297 107.56 109.297 108V108.072C109.297 108.56 109.373 108.972 109.525 109.308C109.685 109.644 109.921 109.9 110.233 110.076C110.545 110.244 110.917 110.328 111.349 110.328C111.693 110.328 112.025 110.276 112.345 110.172C112.673 110.06 112.981 109.88 113.269 109.632L113.605 110.316C113.341 110.556 113.005 110.748 112.597 110.892C112.189 111.036 111.773 111.108 111.349 111.108Z" fill="#A0B3C0"/>
<path d="M26.304 132L31.28 120.72H32.4L37.376 132H36.016L34.624 128.784L35.264 129.12H28.384L29.04 128.784L27.664 132H26.304ZM31.824 122.256L29.248 128.32L28.864 128.016H34.784L34.432 128.32L31.856 122.256H31.824ZM41.2563 132.144C40.4669 132.144 39.8696 131.909 39.4643 131.44C39.0696 130.971 38.8723 130.299 38.8723 129.424V120.72H40.1683V129.328C40.1683 129.701 40.2163 130.016 40.3123 130.272C40.4189 130.528 40.5736 130.72 40.7763 130.848C40.9789 130.976 41.2296 131.04 41.5283 131.04C41.6563 131.04 41.7789 131.035 41.8963 131.024C42.0243 131.003 42.1416 130.976 42.2483 130.944L42.2163 132.032C42.0456 132.064 41.8803 132.091 41.7203 132.112C41.5709 132.133 41.4163 132.144 41.2563 132.144ZM43.4466 122.288V120.832H45.0466V122.288H43.4466ZM43.6066 132V124.224H44.9026V132H43.6066ZM51.6108 132V120.72H52.9228V125.84H52.9548L58.4268 120.72H60.1068L53.8348 126.56L53.8508 125.856L60.4588 132H58.7308L52.9548 126.688H52.9228V132H51.6108ZM61.4348 132V120.72H62.7308V125.952H62.5228C62.7468 125.333 63.1094 124.869 63.6108 124.56C64.1228 124.24 64.7094 124.08 65.3708 124.08C65.9894 124.08 66.5014 124.192 66.9068 124.416C67.3228 124.64 67.6321 124.981 67.8348 125.44C68.0374 125.888 68.1388 126.459 68.1388 127.152V132H66.8428V127.232C66.8428 126.752 66.7788 126.357 66.6508 126.048C66.5334 125.739 66.3414 125.509 66.0748 125.36C65.8188 125.211 65.4828 125.136 65.0668 125.136C64.5974 125.136 64.1868 125.237 63.8348 125.44C63.4828 125.643 63.2108 125.925 63.0188 126.288C62.8268 126.651 62.7308 127.077 62.7308 127.568V132H61.4348ZM72.9765 132.144C72.4432 132.144 71.9632 132.043 71.5365 131.84C71.1205 131.627 70.7898 131.339 70.5445 130.976C70.2992 130.613 70.1765 130.208 70.1765 129.76C70.1765 129.184 70.3205 128.731 70.6085 128.4C70.9072 128.069 71.3925 127.835 72.0645 127.696C72.7472 127.557 73.6752 127.488 74.8485 127.488H75.5685V128.336H74.8645C74.2138 128.336 73.6698 128.357 73.2325 128.4C72.7952 128.443 72.4485 128.517 72.1925 128.624C71.9365 128.731 71.7552 128.869 71.6485 129.04C71.5418 129.211 71.4885 129.424 71.4885 129.68C71.4885 130.117 71.6378 130.475 71.9365 130.752C72.2458 131.029 72.6618 131.168 73.1845 131.168C73.6112 131.168 73.9845 131.067 74.3045 130.864C74.6352 130.661 74.8912 130.384 75.0725 130.032C75.2645 129.68 75.3605 129.275 75.3605 128.816V126.992C75.3605 126.331 75.2272 125.856 74.9605 125.568C74.6938 125.269 74.2565 125.12 73.6485 125.12C73.1792 125.12 72.7258 125.189 72.2885 125.328C71.8512 125.456 71.4032 125.669 70.9445 125.968L70.4965 125.024C70.7738 124.832 71.0885 124.667 71.4405 124.528C71.7925 124.379 72.1605 124.267 72.5445 124.192C72.9285 124.117 73.2965 124.08 73.6485 124.08C74.3205 124.08 74.8752 124.192 75.3125 124.416C75.7498 124.629 76.0752 124.96 76.2885 125.408C76.5018 125.845 76.6085 126.411 76.6085 127.104V132H75.3925V130.192H75.5365C75.4512 130.597 75.2858 130.944 75.0405 131.232C74.8058 131.52 74.5125 131.744 74.1605 131.904C73.8085 132.064 73.4138 132.144 72.9765 132.144ZM79.0129 132V124.224H80.2769V125.952H80.1009C80.3249 125.333 80.6875 124.869 81.1889 124.56C81.7009 124.24 82.2875 124.08 82.9489 124.08C83.5675 124.08 84.0795 124.192 84.4849 124.416C84.9009 124.629 85.2102 124.965 85.4129 125.424C85.6155 125.883 85.7169 126.459 85.7169 127.152V132H84.4209V127.232C84.4209 126.752 84.3569 126.357 84.2289 126.048C84.1115 125.739 83.9195 125.509 83.6529 125.36C83.3969 125.211 83.0609 125.136 82.6449 125.136C82.1755 125.136 81.7649 125.237 81.4129 125.44C81.0609 125.643 80.7889 125.925 80.5969 126.288C80.4049 126.651 80.3089 127.077 80.3089 127.568V132H79.0129Z" fill="#212121"/>
<rect x="350.5" y="86.5" width="326" height="65" rx="3.5" fill="#F3FAFF"/>
<rect x="350.5" y="86.5" width="326" height="65" rx="3.5" stroke="#CBE9FF"/>
<path d="M371.044 111V102.54H373.9C374.82 102.54 375.596 102.704 376.228 103.032C376.868 103.352 377.352 103.828 377.68 104.46C378.016 105.084 378.184 105.852 378.184 106.764C378.184 107.676 378.016 108.448 377.68 109.08C377.352 109.712 376.868 110.192 376.228 110.52C375.596 110.84 374.82 111 373.9 111H371.044ZM372.028 110.16H373.828C374.94 110.16 375.768 109.876 376.312 109.308C376.864 108.74 377.14 107.892 377.14 106.764C377.14 105.636 376.864 104.792 376.312 104.232C375.76 103.664 374.932 103.38 373.828 103.38H372.028V110.16ZM381.654 111.108C381.254 111.108 380.894 111.032 380.574 110.88C380.262 110.72 380.014 110.504 379.83 110.232C379.646 109.96 379.554 109.656 379.554 109.32C379.554 108.888 379.662 108.548 379.878 108.3C380.102 108.052 380.466 107.876 380.97 107.772C381.482 107.668 382.178 107.616 383.058 107.616H383.598V108.252H383.07C382.582 108.252 382.174 108.268 381.846 108.3C381.518 108.332 381.258 108.388 381.066 108.468C380.874 108.548 380.738 108.652 380.658 108.78C380.578 108.908 380.538 109.068 380.538 109.26C380.538 109.588 380.65 109.856 380.874 110.064C381.106 110.272 381.418 110.376 381.81 110.376C382.13 110.376 382.41 110.3 382.65 110.148C382.898 109.996 383.09 109.788 383.226 109.524C383.37 109.26 383.442 108.956 383.442 108.612V107.244C383.442 106.748 383.342 106.392 383.142 106.176C382.942 105.952 382.614 105.84 382.158 105.84C381.806 105.84 381.466 105.892 381.138 105.996C380.81 106.092 380.474 106.252 380.13 106.476L379.794 105.768C380.002 105.624 380.238 105.5 380.502 105.396C380.766 105.284 381.042 105.2 381.33 105.144C381.618 105.088 381.894 105.06 382.158 105.06C382.662 105.06 383.078 105.144 383.406 105.312C383.734 105.472 383.978 105.72 384.138 106.056C384.298 106.384 384.378 106.808 384.378 107.328V111H383.466V109.644H383.574C383.51 109.948 383.386 110.208 383.202 110.424C383.026 110.64 382.806 110.808 382.542 110.928C382.278 111.048 381.982 111.108 381.654 111.108ZM388.522 111.108C387.834 111.108 387.318 110.924 386.974 110.556C386.63 110.188 386.458 109.664 386.458 108.984V105.924H385.318V105.168H386.458V103.38H387.43V105.168H389.278V105.924H387.43V108.888C387.43 109.344 387.526 109.692 387.718 109.932C387.91 110.164 388.222 110.28 388.654 110.28C388.782 110.28 388.91 110.264 389.038 110.232C389.166 110.2 389.282 110.168 389.386 110.136L389.554 110.88C389.45 110.936 389.298 110.988 389.098 111.036C388.898 111.084 388.706 111.108 388.522 111.108ZM392.946 111.108C392.33 111.108 391.798 110.988 391.35 110.748C390.91 110.5 390.566 110.152 390.318 109.704C390.078 109.256 389.958 108.72 389.958 108.096C389.958 107.488 390.078 106.96 390.318 106.512C390.558 106.056 390.886 105.7 391.302 105.444C391.726 105.188 392.214 105.06 392.766 105.06C393.294 105.06 393.746 105.176 394.122 105.408C394.498 105.64 394.786 105.968 394.986 106.392C395.194 106.816 395.298 107.324 395.298 107.916V108.288H390.702V107.652H394.65L394.458 107.808C394.458 107.168 394.314 106.672 394.026 106.32C393.746 105.96 393.334 105.78 392.79 105.78C392.382 105.78 392.034 105.876 391.746 106.068C391.466 106.252 391.254 106.512 391.11 106.848C390.966 107.176 390.894 107.56 390.894 108V108.072C390.894 108.56 390.97 108.972 391.122 109.308C391.282 109.644 391.518 109.9 391.83 110.076C392.142 110.244 392.514 110.328 392.946 110.328C393.29 110.328 393.622 110.276 393.942 110.172C394.27 110.06 394.578 109.88 394.866 109.632L395.202 110.316C394.938 110.556 394.602 110.748 394.194 110.892C393.786 111.036 393.37 111.108 392.946 111.108Z" fill="#A0B3C0"/>
<path d="M374.8 132.144C373.947 132.144 373.221 131.925 372.624 131.488C372.037 131.04 371.595 130.384 371.296 129.52C370.997 128.656 370.848 127.6 370.848 126.352C370.848 125.093 370.997 124.037 371.296 123.184C371.595 122.32 372.037 121.669 372.624 121.232C373.221 120.795 373.947 120.576 374.8 120.576C375.664 120.576 376.389 120.795 376.976 121.232C377.563 121.669 378.005 122.315 378.304 123.168C378.603 124.021 378.752 125.077 378.752 126.336C378.752 127.595 378.603 128.656 378.304 129.52C378.005 130.384 377.563 131.04 376.976 131.488C376.389 131.925 375.664 132.144 374.8 132.144ZM374.8 131.008C375.696 131.008 376.357 130.629 376.784 129.872C377.221 129.115 377.44 127.936 377.44 126.336C377.44 124.736 377.227 123.568 376.8 122.832C376.373 122.085 375.707 121.712 374.8 121.712C373.915 121.712 373.253 122.085 372.816 122.832C372.379 123.579 372.16 124.747 372.16 126.336C372.16 127.936 372.373 129.115 372.8 129.872C373.237 130.629 373.904 131.008 374.8 131.008ZM381.034 132V131.008L384.89 126.848C385.252 126.453 385.546 126.085 385.77 125.744C385.994 125.392 386.159 125.051 386.266 124.72C386.372 124.389 386.426 124.053 386.426 123.712C386.426 123.072 386.228 122.587 385.834 122.256C385.45 121.915 384.884 121.744 384.138 121.744C383.562 121.744 383.023 121.851 382.522 122.064C382.031 122.267 381.562 122.587 381.114 123.024L380.618 122C381.034 121.573 381.562 121.232 382.202 120.976C382.852 120.709 383.535 120.576 384.25 120.576C385.007 120.576 385.647 120.693 386.17 120.928C386.692 121.163 387.087 121.509 387.354 121.968C387.62 122.416 387.754 122.965 387.754 123.616C387.754 123.957 387.711 124.293 387.626 124.624C387.551 124.944 387.428 125.269 387.258 125.6C387.098 125.92 386.89 126.251 386.634 126.592C386.388 126.933 386.09 127.285 385.738 127.648L382.346 131.248V130.88H388.218V132H381.034ZM389.908 133.008L388.883 132.704L392.98 119.968L394.02 120.272L389.908 133.008ZM398.519 132.144C397.665 132.144 396.94 131.925 396.343 131.488C395.756 131.04 395.313 130.384 395.015 129.52C394.716 128.656 394.567 127.6 394.567 126.352C394.567 125.093 394.716 124.037 395.015 123.184C395.313 122.32 395.756 121.669 396.343 121.232C396.94 120.795 397.665 120.576 398.519 120.576C399.383 120.576 400.108 120.795 400.695 121.232C401.281 121.669 401.724 122.315 402.023 123.168C402.321 124.021 402.471 125.077 402.471 126.336C402.471 127.595 402.321 128.656 402.023 129.52C401.724 130.384 401.281 131.04 400.695 131.488C400.108 131.925 399.383 132.144 398.519 132.144ZM398.519 131.008C399.415 131.008 400.076 130.629 400.503 129.872C400.94 129.115 401.159 127.936 401.159 126.336C401.159 124.736 400.945 123.568 400.519 122.832C400.092 122.085 399.425 121.712 398.519 121.712C397.633 121.712 396.972 122.085 396.535 122.832C396.097 123.579 395.879 124.747 395.879 126.336C395.879 127.936 396.092 129.115 396.519 129.872C396.956 130.629 397.623 131.008 398.519 131.008ZM409.345 132V129.584H404.145V128.592L409.569 120.72H410.673V128.464H412.352V129.584H410.673V132H409.345ZM409.345 128.464V122.304H409.729L405.265 128.816V128.464H409.345ZM413.626 133.008L412.602 132.704L416.698 119.968L417.738 120.272L413.626 133.008ZM418.878 132V131.008L422.734 126.848C423.096 126.453 423.39 126.085 423.614 125.744C423.838 125.392 424.003 125.051 424.11 124.72C424.216 124.389 424.27 124.053 424.27 123.712C424.27 123.072 424.072 122.587 423.678 122.256C423.294 121.915 422.728 121.744 421.982 121.744C421.406 121.744 420.867 121.851 420.366 122.064C419.875 122.267 419.406 122.587 418.958 123.024L418.462 122C418.878 121.573 419.406 121.232 420.046 120.976C420.696 120.709 421.379 120.576 422.094 120.576C422.851 120.576 423.491 120.693 424.014 120.928C424.536 121.163 424.931 121.509 425.198 121.968C425.464 122.416 425.598 122.965 425.598 123.616C425.598 123.957 425.555 124.293 425.47 124.624C425.395 124.944 425.272 125.269 425.102 125.6C424.942 125.92 424.734 126.251 424.478 126.592C424.232 126.933 423.934 127.285 423.582 127.648L420.19 131.248V130.88H426.062V132H418.878ZM431.831 132.144C430.978 132.144 430.253 131.925 429.655 131.488C429.069 131.04 428.626 130.384 428.327 129.52C428.029 128.656 427.879 127.6 427.879 126.352C427.879 125.093 428.029 124.037 428.327 123.184C428.626 122.32 429.069 121.669 429.655 121.232C430.253 120.795 430.978 120.576 431.831 120.576C432.695 120.576 433.421 120.795 434.007 121.232C434.594 121.669 435.037 122.315 435.335 123.168C435.634 124.021 435.783 125.077 435.783 126.336C435.783 127.595 435.634 128.656 435.335 129.52C435.037 130.384 434.594 131.04 434.007 131.488C433.421 131.925 432.695 132.144 431.831 132.144ZM431.831 131.008C432.727 131.008 433.389 130.629 433.815 129.872C434.253 129.115 434.471 127.936 434.471 126.336C434.471 124.736 434.258 123.568 433.831 122.832C433.405 122.085 432.738 121.712 431.831 121.712C430.946 121.712 430.285 122.085 429.847 122.832C429.41 123.579 429.191 124.747 429.191 126.336C429.191 127.936 429.405 129.115 429.831 129.872C430.269 130.629 430.935 131.008 431.831 131.008ZM438.065 132V131.008L441.921 126.848C442.284 126.453 442.577 126.085 442.801 125.744C443.025 125.392 443.19 125.051 443.297 124.72C443.404 124.389 443.457 124.053 443.457 123.712C443.457 123.072 443.26 122.587 442.865 122.256C442.481 121.915 441.916 121.744 441.169 121.744C440.593 121.744 440.054 121.851 439.553 122.064C439.062 122.267 438.593 122.587 438.145 123.024L437.649 122C438.065 121.573 438.593 121.232 439.233 120.976C439.884 120.709 440.566 120.576 441.281 120.576C442.038 120.576 442.678 120.693 443.201 120.928C443.724 121.163 444.118 121.509 444.385 121.968C444.652 122.416 444.785 122.965 444.785 123.616C444.785 123.957 444.742 124.293 444.657 124.624C444.582 124.944 444.46 125.269 444.289 125.6C444.129 125.92 443.921 126.251 443.665 126.592C443.42 126.933 443.121 127.285 442.769 127.648L439.377 131.248V130.88H445.249V132H438.065ZM447.659 132V131.008L451.515 126.848C451.877 126.453 452.171 126.085 452.395 125.744C452.619 125.392 452.784 125.051 452.891 124.72C452.997 124.389 453.051 124.053 453.051 123.712C453.051 123.072 452.853 122.587 452.459 122.256C452.075 121.915 451.509 121.744 450.763 121.744C450.187 121.744 449.648 121.851 449.147 122.064C448.656 122.267 448.187 122.587 447.739 123.024L447.243 122C447.659 121.573 448.187 121.232 448.827 120.976C449.477 120.709 450.16 120.576 450.875 120.576C451.632 120.576 452.272 120.693 452.795 120.928C453.317 121.163 453.712 121.509 453.979 121.968C454.245 122.416 454.379 122.965 454.379 123.616C454.379 123.957 454.336 124.293 454.251 124.624C454.176 124.944 454.053 125.269 453.883 125.6C453.723 125.92 453.515 126.251 453.259 126.592C453.013 126.933 452.715 127.285 452.363 127.648L448.971 131.248V130.88H454.843V132H447.659Z" fill="#212121"/>
<rect x="350.5" y="168.5" width="326" height="65" rx="3.5" fill="#F3FAFF"/>
<rect x="350.5" y="168.5" width="326" height="65" rx="3.5" stroke="#CBE9FF"/>
<path d="M374.704 193.108C373.872 193.108 373.16 192.932 372.568 192.58C371.976 192.228 371.52 191.728 371.2 191.08C370.888 190.432 370.732 189.66 370.732 188.764C370.732 187.868 370.888 187.1 371.2 186.46C371.52 185.812 371.976 185.312 372.568 184.96C373.16 184.608 373.872 184.432 374.704 184.432C375.288 184.432 375.828 184.524 376.324 184.708C376.82 184.892 377.236 185.16 377.572 185.512L377.188 186.316C376.82 185.972 376.436 185.724 376.036 185.572C375.644 185.412 375.208 185.332 374.728 185.332C373.776 185.332 373.048 185.632 372.544 186.232C372.04 186.832 371.788 187.676 371.788 188.764C371.788 189.852 372.04 190.7 372.544 191.308C373.048 191.908 373.776 192.208 374.728 192.208C375.208 192.208 375.644 192.132 376.036 191.98C376.436 191.82 376.82 191.568 377.188 191.224L377.572 192.028C377.236 192.372 376.82 192.64 376.324 192.832C375.828 193.016 375.288 193.108 374.704 193.108ZM378.986 193V184.54H379.958V188.464H379.802C379.97 188 380.242 187.652 380.618 187.42C381.002 187.18 381.442 187.06 381.938 187.06C382.402 187.06 382.786 187.144 383.09 187.312C383.402 187.48 383.634 187.736 383.786 188.08C383.938 188.416 384.014 188.844 384.014 189.364V193H383.042V189.424C383.042 189.064 382.994 188.768 382.898 188.536C382.81 188.304 382.666 188.132 382.466 188.02C382.274 187.908 382.022 187.852 381.71 187.852C381.358 187.852 381.05 187.928 380.786 188.08C380.522 188.232 380.318 188.444 380.174 188.716C380.03 188.988 379.958 189.308 379.958 189.676V193H378.986ZM388.435 193.108C387.819 193.108 387.287 192.988 386.839 192.748C386.399 192.5 386.055 192.152 385.807 191.704C385.567 191.256 385.447 190.72 385.447 190.096C385.447 189.488 385.567 188.96 385.807 188.512C386.047 188.056 386.375 187.7 386.791 187.444C387.215 187.188 387.703 187.06 388.255 187.06C388.783 187.06 389.235 187.176 389.611 187.408C389.987 187.64 390.275 187.968 390.475 188.392C390.683 188.816 390.787 189.324 390.787 189.916V190.288H386.191V189.652H390.139L389.947 189.808C389.947 189.168 389.803 188.672 389.515 188.32C389.235 187.96 388.823 187.78 388.279 187.78C387.871 187.78 387.523 187.876 387.235 188.068C386.955 188.252 386.743 188.512 386.599 188.848C386.455 189.176 386.383 189.56 386.383 190V190.072C386.383 190.56 386.459 190.972 386.611 191.308C386.771 191.644 387.007 191.9 387.319 192.076C387.631 192.244 388.003 192.328 388.435 192.328C388.779 192.328 389.111 192.276 389.431 192.172C389.759 192.06 390.067 191.88 390.355 191.632L390.691 192.316C390.427 192.556 390.091 192.748 389.683 192.892C389.275 193.036 388.859 193.108 388.435 193.108ZM394.665 193.108C394.081 193.108 393.577 192.98 393.153 192.724C392.729 192.468 392.401 192.112 392.169 191.656C391.945 191.192 391.833 190.656 391.833 190.048C391.833 189.432 391.945 188.9 392.169 188.452C392.401 188.004 392.729 187.66 393.153 187.42C393.577 187.18 394.081 187.06 394.665 187.06C395.025 187.06 395.381 187.124 395.733 187.252C396.085 187.38 396.377 187.56 396.609 187.792L396.273 188.5C396.041 188.276 395.785 188.112 395.505 188.008C395.233 187.904 394.973 187.852 394.725 187.852C394.117 187.852 393.649 188.044 393.321 188.428C392.993 188.804 392.829 189.348 392.829 190.06C392.829 190.756 392.993 191.308 393.321 191.716C393.649 192.116 394.117 192.316 394.725 192.316C394.973 192.316 395.233 192.264 395.505 192.16C395.785 192.056 396.041 191.888 396.273 191.656L396.609 192.364C396.377 192.596 396.081 192.78 395.721 192.916C395.369 193.044 395.017 193.108 394.665 193.108ZM397.748 193V184.54H398.72V189.76H398.744L401.444 187.168H402.68L399.476 190.24V189.712L402.932 193H401.696L398.744 190.264H398.72V193H397.748ZM406.962 193V184.54H407.946V193H406.962ZM409.9 193V187.168H410.848V188.464H410.716C410.884 188 411.156 187.652 411.532 187.42C411.916 187.18 412.356 187.06 412.852 187.06C413.316 187.06 413.7 187.144 414.004 187.312C414.316 187.472 414.548 187.724 414.7 188.068C414.852 188.412 414.928 188.844 414.928 189.364V193H413.956V189.424C413.956 189.064 413.908 188.768 413.812 188.536C413.724 188.304 413.58 188.132 413.38 188.02C413.188 187.908 412.936 187.852 412.624 187.852C412.272 187.852 411.964 187.928 411.7 188.08C411.436 188.232 411.232 188.444 411.088 188.716C410.944 188.988 410.872 189.308 410.872 189.676V193H409.9Z" fill="#A0B3C0"/>
<path d="M374.8 214.144C373.531 214.144 372.544 213.872 371.84 213.328C371.136 212.773 370.784 212 370.784 211.008C370.784 210.485 370.891 210.021 371.104 209.616C371.317 209.2 371.616 208.864 372 208.608C372.384 208.352 372.827 208.192 373.328 208.128V208.368C372.869 208.261 372.469 208.08 372.128 207.824C371.787 207.557 371.52 207.232 371.328 206.848C371.147 206.464 371.056 206.043 371.056 205.584C371.056 204.635 371.392 203.899 372.064 203.376C372.747 202.843 373.659 202.576 374.8 202.576C375.952 202.576 376.864 202.843 377.536 203.376C378.219 203.899 378.56 204.635 378.56 205.584C378.56 206.043 378.464 206.469 378.272 206.864C378.091 207.248 377.829 207.568 377.488 207.824C377.147 208.08 376.747 208.256 376.288 208.352V208.128C376.789 208.192 377.227 208.357 377.6 208.624C377.984 208.88 378.283 209.211 378.496 209.616C378.709 210.021 378.816 210.485 378.816 211.008C378.816 212 378.464 212.773 377.76 213.328C377.056 213.872 376.069 214.144 374.8 214.144ZM374.8 213.056C375.707 213.056 376.389 212.88 376.848 212.528C377.317 212.176 377.552 211.643 377.552 210.928C377.552 210.224 377.317 209.701 376.848 209.36C376.389 209.008 375.707 208.832 374.8 208.832C373.904 208.832 373.221 209.008 372.752 209.36C372.283 209.701 372.048 210.224 372.048 210.928C372.048 211.643 372.283 212.176 372.752 212.528C373.221 212.88 373.904 213.056 374.8 213.056ZM374.8 207.744C375.589 207.744 376.203 207.563 376.64 207.2C377.077 206.837 377.296 206.336 377.296 205.696C377.296 205.056 377.077 204.56 376.64 204.208C376.203 203.845 375.589 203.664 374.8 203.664C374.021 203.664 373.413 203.845 372.976 204.208C372.539 204.56 372.32 205.056 372.32 205.696C372.32 206.336 372.539 206.837 372.976 207.2C373.413 207.563 374.021 207.744 374.8 207.744ZM380.602 207.856V206.224H382.234V207.856H380.602ZM380.602 214V212.368H382.234V214H380.602ZM388.034 214.144C387.181 214.144 386.456 213.925 385.858 213.488C385.272 213.04 384.829 212.384 384.53 211.52C384.232 210.656 384.082 209.6 384.082 208.352C384.082 207.093 384.232 206.037 384.53 205.184C384.829 204.32 385.272 203.669 385.858 203.232C386.456 202.795 387.181 202.576 388.034 202.576C388.898 202.576 389.624 202.795 390.21 203.232C390.797 203.669 391.24 204.315 391.538 205.168C391.837 206.021 391.986 207.077 391.986 208.336C391.986 209.595 391.837 210.656 391.538 211.52C391.24 212.384 390.797 213.04 390.21 213.488C389.624 213.925 388.898 214.144 388.034 214.144ZM388.034 213.008C388.93 213.008 389.592 212.629 390.018 211.872C390.456 211.115 390.674 209.936 390.674 208.336C390.674 206.736 390.461 205.568 390.034 204.832C389.608 204.085 388.941 203.712 388.034 203.712C387.149 203.712 386.488 204.085 386.05 204.832C385.613 205.579 385.394 206.747 385.394 208.336C385.394 209.936 385.608 211.115 386.034 211.872C386.472 212.629 387.138 213.008 388.034 213.008ZM397.628 214.144C396.775 214.144 396.049 213.925 395.452 213.488C394.865 213.04 394.423 212.384 394.124 211.52C393.825 210.656 393.676 209.6 393.676 208.352C393.676 207.093 393.825 206.037 394.124 205.184C394.423 204.32 394.865 203.669 395.452 203.232C396.049 202.795 396.775 202.576 397.628 202.576C398.492 202.576 399.217 202.795 399.804 203.232C400.391 203.669 400.833 204.315 401.132 205.168C401.431 206.021 401.58 207.077 401.58 208.336C401.58 209.595 401.431 210.656 401.132 211.52C400.833 212.384 400.391 213.04 399.804 213.488C399.217 213.925 398.492 214.144 397.628 214.144ZM397.628 213.008C398.524 213.008 399.185 212.629 399.612 211.872C400.049 211.115 400.268 209.936 400.268 208.336C400.268 206.736 400.055 205.568 399.628 204.832C399.201 204.085 398.535 203.712 397.628 203.712C396.743 203.712 396.081 204.085 395.644 204.832C395.207 205.579 394.988 206.747 394.988 208.336C394.988 209.936 395.201 211.115 395.628 211.872C396.065 212.629 396.732 213.008 397.628 213.008ZM406.086 214.144C405.553 214.144 405.073 214.043 404.646 213.84C404.23 213.627 403.899 213.339 403.654 212.976C403.409 212.613 403.286 212.208 403.286 211.76C403.286 211.184 403.43 210.731 403.718 210.4C404.017 210.069 404.502 209.835 405.174 209.696C405.857 209.557 406.785 209.488 407.958 209.488H408.678V210.336H407.974C407.323 210.336 406.779 210.357 406.342 210.4C405.905 210.443 405.558 210.517 405.302 210.624C405.046 210.731 404.865 210.869 404.758 211.04C404.651 211.211 404.598 211.424 404.598 211.68C404.598 212.117 404.747 212.475 405.046 212.752C405.355 213.029 405.771 213.168 406.294 213.168C406.721 213.168 407.094 213.067 407.414 212.864C407.745 212.661 408.001 212.384 408.182 212.032C408.374 211.68 408.47 211.275 408.47 210.816V208.992C408.47 208.331 408.337 207.856 408.07 207.568C407.803 207.269 407.366 207.12 406.758 207.12C406.289 207.12 405.835 207.189 405.398 207.328C404.961 207.456 404.513 207.669 404.054 207.968L403.606 207.024C403.883 206.832 404.198 206.667 404.55 206.528C404.902 206.379 405.27 206.267 405.654 206.192C406.038 206.117 406.406 206.08 406.758 206.08C407.43 206.08 407.985 206.192 408.422 206.416C408.859 206.629 409.185 206.96 409.398 207.408C409.611 207.845 409.718 208.411 409.718 209.104V214H408.502V212.192H408.646C408.561 212.597 408.395 212.944 408.15 213.232C407.915 213.52 407.622 213.744 407.27 213.904C406.918 214.064 406.523 214.144 406.086 214.144ZM412.154 214V206.224H413.418V207.952H413.242C413.37 207.557 413.557 207.221 413.802 206.944C414.058 206.656 414.357 206.443 414.698 206.304C415.05 206.155 415.434 206.08 415.85 206.08C416.512 206.08 417.045 206.24 417.45 206.56C417.866 206.869 418.144 207.355 418.282 208.016H418.042C418.234 207.419 418.576 206.949 419.066 206.608C419.568 206.256 420.149 206.08 420.81 206.08C421.397 206.08 421.877 206.192 422.25 206.416C422.634 206.64 422.922 206.981 423.114 207.44C423.306 207.888 423.402 208.459 423.402 209.152V214H422.106V209.216C422.106 208.501 421.984 207.979 421.738 207.648C421.493 207.307 421.077 207.136 420.49 207.136C420.074 207.136 419.706 207.237 419.386 207.44C419.077 207.643 418.837 207.931 418.666 208.304C418.506 208.667 418.426 209.099 418.426 209.6V214H417.13V209.216C417.13 208.501 417.002 207.979 416.746 207.648C416.501 207.307 416.09 207.136 415.514 207.136C415.088 207.136 414.72 207.237 414.41 207.44C414.101 207.643 413.861 207.931 413.69 208.304C413.53 208.667 413.45 209.099 413.45 209.6V214H412.154Z" fill="#212121"/>
<rect x="350.5" y="250.5" width="326" height="65" rx="3.5" fill="#F3FAFF"/>
<rect x="350.5" y="250.5" width="326" height="65" rx="3.5" stroke="#CBE9FF"/>
<path d="M374.704 275.108C373.872 275.108 373.16 274.932 372.568 274.58C371.976 274.228 371.52 273.728 371.2 273.08C370.888 272.432 370.732 271.66 370.732 270.764C370.732 269.868 370.888 269.1 371.2 268.46C371.52 267.812 371.976 267.312 372.568 266.96C373.16 266.608 373.872 266.432 374.704 266.432C375.288 266.432 375.828 266.524 376.324 266.708C376.82 266.892 377.236 267.16 377.572 267.512L377.188 268.316C376.82 267.972 376.436 267.724 376.036 267.572C375.644 267.412 375.208 267.332 374.728 267.332C373.776 267.332 373.048 267.632 372.544 268.232C372.04 268.832 371.788 269.676 371.788 270.764C371.788 271.852 372.04 272.7 372.544 273.308C373.048 273.908 373.776 274.208 374.728 274.208C375.208 274.208 375.644 274.132 376.036 273.98C376.436 273.82 376.82 273.568 377.188 273.224L377.572 274.028C377.236 274.372 376.82 274.64 376.324 274.832C375.828 275.016 375.288 275.108 374.704 275.108ZM378.986 275V266.54H379.958V270.464H379.802C379.97 270 380.242 269.652 380.618 269.42C381.002 269.18 381.442 269.06 381.938 269.06C382.402 269.06 382.786 269.144 383.09 269.312C383.402 269.48 383.634 269.736 383.786 270.08C383.938 270.416 384.014 270.844 384.014 271.364V275H383.042V271.424C383.042 271.064 382.994 270.768 382.898 270.536C382.81 270.304 382.666 270.132 382.466 270.02C382.274 269.908 382.022 269.852 381.71 269.852C381.358 269.852 381.05 269.928 380.786 270.08C380.522 270.232 380.318 270.444 380.174 270.716C380.03 270.988 379.958 271.308 379.958 271.676V275H378.986ZM388.435 275.108C387.819 275.108 387.287 274.988 386.839 274.748C386.399 274.5 386.055 274.152 385.807 273.704C385.567 273.256 385.447 272.72 385.447 272.096C385.447 271.488 385.567 270.96 385.807 270.512C386.047 270.056 386.375 269.7 386.791 269.444C387.215 269.188 387.703 269.06 388.255 269.06C388.783 269.06 389.235 269.176 389.611 269.408C389.987 269.64 390.275 269.968 390.475 270.392C390.683 270.816 390.787 271.324 390.787 271.916V272.288H386.191V271.652H390.139L389.947 271.808C389.947 271.168 389.803 270.672 389.515 270.32C389.235 269.96 388.823 269.78 388.279 269.78C387.871 269.78 387.523 269.876 387.235 270.068C386.955 270.252 386.743 270.512 386.599 270.848C386.455 271.176 386.383 271.56 386.383 272V272.072C386.383 272.56 386.459 272.972 386.611 273.308C386.771 273.644 387.007 273.9 387.319 274.076C387.631 274.244 388.003 274.328 388.435 274.328C388.779 274.328 389.111 274.276 389.431 274.172C389.759 274.06 390.067 273.88 390.355 273.632L390.691 274.316C390.427 274.556 390.091 274.748 389.683 274.892C389.275 275.036 388.859 275.108 388.435 275.108ZM394.665 275.108C394.081 275.108 393.577 274.98 393.153 274.724C392.729 274.468 392.401 274.112 392.169 273.656C391.945 273.192 391.833 272.656 391.833 272.048C391.833 271.432 391.945 270.9 392.169 270.452C392.401 270.004 392.729 269.66 393.153 269.42C393.577 269.18 394.081 269.06 394.665 269.06C395.025 269.06 395.381 269.124 395.733 269.252C396.085 269.38 396.377 269.56 396.609 269.792L396.273 270.5C396.041 270.276 395.785 270.112 395.505 270.008C395.233 269.904 394.973 269.852 394.725 269.852C394.117 269.852 393.649 270.044 393.321 270.428C392.993 270.804 392.829 271.348 392.829 272.06C392.829 272.756 392.993 273.308 393.321 273.716C393.649 274.116 394.117 274.316 394.725 274.316C394.973 274.316 395.233 274.264 395.505 274.16C395.785 274.056 396.041 273.888 396.273 273.656L396.609 274.364C396.377 274.596 396.081 274.78 395.721 274.916C395.369 275.044 395.017 275.108 394.665 275.108ZM397.748 275V266.54H398.72V271.76H398.744L401.444 269.168H402.68L399.476 272.24V271.712L402.932 275H401.696L398.744 272.264H398.72V275H397.748ZM410.514 275.108C409.93 275.108 409.398 275.008 408.918 274.808C408.438 274.6 408.03 274.308 407.694 273.932C407.358 273.556 407.098 273.1 406.914 272.564C406.738 272.028 406.65 271.428 406.65 270.764C406.65 270.092 406.738 269.492 406.914 268.964C407.098 268.428 407.358 267.976 407.694 267.608C408.03 267.232 408.434 266.944 408.906 266.744C409.386 266.536 409.922 266.432 410.514 266.432C411.114 266.432 411.65 266.532 412.122 266.732C412.602 266.932 413.01 267.22 413.346 267.596C413.69 267.972 413.95 268.428 414.126 268.964C414.31 269.492 414.402 270.088 414.402 270.752C414.402 271.424 414.31 272.028 414.126 272.564C413.942 273.1 413.682 273.556 413.346 273.932C413.01 274.308 412.602 274.6 412.122 274.808C411.65 275.008 411.114 275.108 410.514 275.108ZM410.514 274.232C411.122 274.232 411.634 274.096 412.05 273.824C412.474 273.552 412.798 273.156 413.022 272.636C413.246 272.116 413.358 271.492 413.358 270.764C413.358 270.028 413.246 269.404 413.022 268.892C412.798 268.38 412.474 267.988 412.05 267.716C411.634 267.444 411.122 267.308 410.514 267.308C409.922 267.308 409.414 267.444 408.99 267.716C408.574 267.988 408.254 268.384 408.03 268.904C407.806 269.416 407.694 270.036 407.694 270.764C407.694 271.492 407.806 272.116 408.03 272.636C408.254 273.148 408.574 273.544 408.99 273.824C409.414 274.096 409.922 274.232 410.514 274.232ZM418.093 275.108C417.621 275.108 417.229 275.024 416.917 274.856C416.613 274.68 416.381 274.42 416.221 274.076C416.069 273.732 415.993 273.304 415.993 272.792V269.168H416.965V272.78C416.965 273.124 417.009 273.412 417.097 273.644C417.193 273.868 417.341 274.036 417.541 274.148C417.741 274.252 417.989 274.304 418.285 274.304C418.621 274.304 418.913 274.228 419.161 274.076C419.409 273.924 419.605 273.712 419.749 273.44C419.893 273.168 419.965 272.848 419.965 272.48V269.168H420.937V275H419.989V273.656H420.145C419.985 274.128 419.721 274.488 419.353 274.736C418.993 274.984 418.573 275.108 418.093 275.108ZM425.096 275.108C424.408 275.108 423.892 274.924 423.548 274.556C423.204 274.188 423.032 273.664 423.032 272.984V269.924H421.892V269.168H423.032V267.38H424.004V269.168H425.852V269.924H424.004V272.888C424.004 273.344 424.1 273.692 424.292 273.932C424.484 274.164 424.796 274.28 425.228 274.28C425.356 274.28 425.484 274.264 425.612 274.232C425.74 274.2 425.856 274.168 425.96 274.136L426.128 274.88C426.024 274.936 425.872 274.988 425.672 275.036C425.472 275.084 425.28 275.108 425.096 275.108Z" fill="#A0B3C0"/>
<path d="M376.032 296V293.584H370.832V292.592L376.256 284.72H377.36V292.464H379.04V293.584H377.36V296H376.032ZM376.032 292.464V286.304H376.416L371.952 292.816V292.464H376.032ZM380.602 289.856V288.224H382.234V289.856H380.602ZM380.602 296V294.368H382.234V296H380.602ZM388.034 296.144C387.181 296.144 386.456 295.925 385.858 295.488C385.272 295.04 384.829 294.384 384.53 293.52C384.232 292.656 384.082 291.6 384.082 290.352C384.082 289.093 384.232 288.037 384.53 287.184C384.829 286.32 385.272 285.669 385.858 285.232C386.456 284.795 387.181 284.576 388.034 284.576C388.898 284.576 389.624 284.795 390.21 285.232C390.797 285.669 391.24 286.315 391.538 287.168C391.837 288.021 391.986 289.077 391.986 290.336C391.986 291.595 391.837 292.656 391.538 293.52C391.24 294.384 390.797 295.04 390.21 295.488C389.624 295.925 388.898 296.144 388.034 296.144ZM388.034 295.008C388.93 295.008 389.592 294.629 390.018 293.872C390.456 293.115 390.674 291.936 390.674 290.336C390.674 288.736 390.461 287.568 390.034 286.832C389.608 286.085 388.941 285.712 388.034 285.712C387.149 285.712 386.488 286.085 386.05 286.832C385.613 287.579 385.394 288.747 385.394 290.336C385.394 291.936 385.608 293.115 386.034 293.872C386.472 294.629 387.138 295.008 388.034 295.008ZM397.628 296.144C396.775 296.144 396.049 295.925 395.452 295.488C394.865 295.04 394.423 294.384 394.124 293.52C393.825 292.656 393.676 291.6 393.676 290.352C393.676 289.093 393.825 288.037 394.124 287.184C394.423 286.32 394.865 285.669 395.452 285.232C396.049 284.795 396.775 284.576 397.628 284.576C398.492 284.576 399.217 284.795 399.804 285.232C400.391 285.669 400.833 286.315 401.132 287.168C401.431 288.021 401.58 289.077 401.58 290.336C401.58 291.595 401.431 292.656 401.132 293.52C400.833 294.384 400.391 295.04 399.804 295.488C399.217 295.925 398.492 296.144 397.628 296.144ZM397.628 295.008C398.524 295.008 399.185 294.629 399.612 293.872C400.049 293.115 400.268 291.936 400.268 290.336C400.268 288.736 400.055 287.568 399.628 286.832C399.201 286.085 398.535 285.712 397.628 285.712C396.743 285.712 396.081 286.085 395.644 286.832C395.207 287.579 394.988 288.747 394.988 290.336C394.988 291.936 395.201 293.115 395.628 293.872C396.065 294.629 396.732 295.008 397.628 295.008ZM407.923 296V284.72H412.387C413.198 284.72 413.881 284.853 414.435 285.12C415.001 285.376 415.427 285.76 415.715 286.272C416.003 286.773 416.147 287.387 416.147 288.112C416.147 288.816 416.003 289.424 415.715 289.936C415.427 290.448 415.001 290.837 414.435 291.104C413.881 291.371 413.198 291.504 412.387 291.504H409.235V296H407.923ZM409.235 290.4H412.227C413.091 290.4 413.742 290.208 414.179 289.824C414.627 289.429 414.851 288.859 414.851 288.112C414.851 287.355 414.627 286.784 414.179 286.4C413.742 286.005 413.091 285.808 412.227 285.808H409.235V290.4ZM418.08 296V284.72H419.184L423.76 293.312H423.28L427.824 284.72H428.928V296H427.712V286.48H428.096L423.952 294.256H423.088L418.896 286.464H419.28V296H418.08Z" fill="#212121"/>
<rect x="6.5" y="250.5" width="326" height="65" rx="3.5" fill="#F3FAFF"/>
<rect x="6.5" y="250.5" width="326" height="65" rx="3.5" stroke="#CBE9FF"/>
<path d="M29.324 275L26.36 266.54H27.392L29.996 274.16H29.576L32.228 266.54H33.02L35.636 274.16H35.264L37.88 266.54H38.864L35.9 275H35.024L32.48 267.68H32.744L30.176 275H29.324ZM41.8399 275.108C41.2719 275.108 40.7799 274.984 40.3639 274.736C39.9479 274.488 39.6239 274.14 39.3919 273.692C39.1679 273.236 39.0559 272.7 39.0559 272.084C39.0559 271.468 39.1679 270.936 39.3919 270.488C39.6239 270.032 39.9479 269.68 40.3639 269.432C40.7799 269.184 41.2719 269.06 41.8399 269.06C42.4079 269.06 42.8999 269.184 43.3159 269.432C43.7319 269.68 44.0519 270.032 44.2759 270.488C44.5079 270.936 44.6239 271.468 44.6239 272.084C44.6239 272.7 44.5079 273.236 44.2759 273.692C44.0519 274.14 43.7319 274.488 43.3159 274.736C42.8999 274.984 42.4079 275.108 41.8399 275.108ZM41.8399 274.328C42.3919 274.328 42.8279 274.136 43.1479 273.752C43.4759 273.36 43.6399 272.8 43.6399 272.072C43.6399 271.352 43.4759 270.8 43.1479 270.416C42.8279 270.032 42.3919 269.84 41.8399 269.84C41.2959 269.84 40.8599 270.032 40.5319 270.416C40.2039 270.8 40.0399 271.352 40.0399 272.072C40.0399 272.8 40.2039 273.36 40.5319 273.752C40.8599 274.136 41.2959 274.328 41.8399 274.328ZM46.0839 275V269.168H47.0319V270.548H46.9119C47.0479 270.076 47.2839 269.72 47.6199 269.48C47.9559 269.232 48.3999 269.088 48.9519 269.048L49.2999 269.012L49.3719 269.852L48.7599 269.924C48.2159 269.972 47.7959 270.148 47.4999 270.452C47.2119 270.748 47.0679 271.156 47.0679 271.676V275H46.0839ZM50.3847 275V266.54H51.3567V271.76H51.3807L54.0807 269.168H55.3167L52.1127 272.24V271.712L55.5687 275H54.3327L51.3807 272.264H51.3567V275H50.3847ZM59.5987 275V266.54H60.5827V270.284H65.6587V266.54H66.6427V275H65.6587V271.136H60.5827V275H59.5987ZM71.0196 275.108C70.4516 275.108 69.9596 274.984 69.5436 274.736C69.1276 274.488 68.8036 274.14 68.5716 273.692C68.3476 273.236 68.2356 272.7 68.2356 272.084C68.2356 271.468 68.3476 270.936 68.5716 270.488C68.8036 270.032 69.1276 269.68 69.5436 269.432C69.9596 269.184 70.4516 269.06 71.0196 269.06C71.5876 269.06 72.0796 269.184 72.4956 269.432C72.9116 269.68 73.2316 270.032 73.4556 270.488C73.6876 270.936 73.8036 271.468 73.8036 272.084C73.8036 272.7 73.6876 273.236 73.4556 273.692C73.2316 274.14 72.9116 274.488 72.4956 274.736C72.0796 274.984 71.5876 275.108 71.0196 275.108ZM71.0196 274.328C71.5716 274.328 72.0076 274.136 72.3276 273.752C72.6556 273.36 72.8196 272.8 72.8196 272.072C72.8196 271.352 72.6556 270.8 72.3276 270.416C72.0076 270.032 71.5716 269.84 71.0196 269.84C70.4756 269.84 70.0396 270.032 69.7116 270.416C69.3836 270.8 69.2196 271.352 69.2196 272.072C69.2196 272.8 69.3836 273.36 69.7116 273.752C70.0396 274.136 70.4756 274.328 71.0196 274.328ZM77.3276 275.108C76.8556 275.108 76.4636 275.024 76.1516 274.856C75.8476 274.68 75.6156 274.42 75.4556 274.076C75.3036 273.732 75.2276 273.304 75.2276 272.792V269.168H76.1996V272.78C76.1996 273.124 76.2436 273.412 76.3316 273.644C76.4276 273.868 76.5756 274.036 76.7756 274.148C76.9756 274.252 77.2236 274.304 77.5196 274.304C77.8556 274.304 78.1476 274.228 78.3956 274.076C78.6436 273.924 78.8396 273.712 78.9836 273.44C79.1276 273.168 79.1996 272.848 79.1996 272.48V269.168H80.1716V275H79.2236V273.656H79.3796C79.2196 274.128 78.9556 274.488 78.5876 274.736C78.2276 274.984 77.8076 275.108 77.3276 275.108ZM81.9901 275V269.168H82.9381V270.548H82.8181C82.9541 270.076 83.1901 269.72 83.5261 269.48C83.8621 269.232 84.3061 269.088 84.8581 269.048L85.2061 269.012L85.2781 269.852L84.6661 269.924C84.1221 269.972 83.7021 270.148 83.4061 270.452C83.1181 270.748 82.9741 271.156 82.9741 271.676V275H81.9901ZM88.2003 275.108C87.8963 275.108 87.6003 275.076 87.3123 275.012C87.0323 274.956 86.7683 274.876 86.5203 274.772C86.2803 274.66 86.0723 274.528 85.8963 274.376L86.2083 273.692C86.4003 273.844 86.6083 273.972 86.8323 274.076C87.0563 274.172 87.2843 274.244 87.5163 274.292C87.7483 274.34 87.9843 274.364 88.2243 274.364C88.6803 274.364 89.0243 274.28 89.2563 274.112C89.4883 273.944 89.6043 273.716 89.6043 273.428C89.6043 273.204 89.5283 273.028 89.3763 272.9C89.2243 272.764 88.9843 272.66 88.6563 272.588L87.5643 272.348C87.0603 272.244 86.6843 272.064 86.4363 271.808C86.1963 271.552 86.0763 271.22 86.0763 270.812C86.0763 270.452 86.1683 270.144 86.3523 269.888C86.5443 269.624 86.8123 269.42 87.1563 269.276C87.5003 269.132 87.9003 269.06 88.3563 269.06C88.6283 269.06 88.8883 269.088 89.1363 269.144C89.3843 269.2 89.6163 269.284 89.8323 269.396C90.0563 269.5 90.2483 269.632 90.4083 269.792L90.0843 270.476C89.9323 270.332 89.7603 270.212 89.5683 270.116C89.3763 270.012 89.1763 269.936 88.9683 269.888C88.7683 269.832 88.5643 269.804 88.3563 269.804C87.9083 269.804 87.5683 269.892 87.3363 270.068C87.1043 270.244 86.9883 270.476 86.9883 270.764C86.9883 270.988 87.0603 271.172 87.2043 271.316C87.3483 271.46 87.5723 271.564 87.8763 271.628L88.9683 271.856C89.4883 271.968 89.8763 272.148 90.1323 272.396C90.3963 272.636 90.5283 272.964 90.5283 273.38C90.5283 273.732 90.4323 274.04 90.2403 274.304C90.0483 274.56 89.7763 274.76 89.4243 274.904C89.0803 275.04 88.6723 275.108 88.2003 275.108Z" fill="#A0B3C0"/>
<path d="M30.032 296.144C29.648 296.144 29.2587 296.091 28.864 295.984C28.4693 295.867 28.096 295.707 27.744 295.504C27.4027 295.301 27.104 295.061 26.848 294.784L27.344 293.744C27.728 294.16 28.1547 294.469 28.624 294.672C29.0933 294.875 29.568 294.976 30.048 294.976C30.5707 294.976 31.0347 294.88 31.44 294.688C31.8453 294.496 32.1867 294.208 32.464 293.824C32.7413 293.429 32.9493 292.944 33.088 292.368C33.2373 291.781 33.312 291.104 33.312 290.336V288.848H33.44C33.376 289.445 33.1947 289.968 32.896 290.416C32.608 290.864 32.2347 291.205 31.776 291.44C31.3173 291.675 30.8 291.792 30.224 291.792C29.5627 291.792 28.976 291.643 28.464 291.344C27.9627 291.045 27.5627 290.624 27.264 290.08C26.976 289.536 26.832 288.923 26.832 288.24C26.832 287.525 26.9813 286.896 27.28 286.352C27.5893 285.797 28.0107 285.365 28.544 285.056C29.088 284.736 29.712 284.576 30.416 284.576C31.3013 284.576 32.0533 284.795 32.672 285.232C33.3013 285.659 33.776 286.283 34.096 287.104C34.416 287.925 34.576 288.917 34.576 290.08C34.576 291.371 34.3947 292.469 34.032 293.376C33.68 294.283 33.1627 294.971 32.48 295.44C31.808 295.909 30.992 296.144 30.032 296.144ZM30.512 290.688C30.9813 290.688 31.3973 290.581 31.76 290.368C32.1227 290.155 32.4053 289.861 32.608 289.488C32.8107 289.115 32.912 288.683 32.912 288.192C32.912 287.691 32.8107 287.253 32.608 286.88C32.4053 286.507 32.1227 286.213 31.76 286C31.3973 285.787 30.9813 285.68 30.512 285.68C30.032 285.68 29.6107 285.787 29.248 286C28.896 286.213 28.6133 286.507 28.4 286.88C28.1973 287.253 28.096 287.691 28.096 288.192C28.096 288.683 28.1973 289.115 28.4 289.488C28.6133 289.861 28.896 290.155 29.248 290.368C29.6107 290.581 30.032 290.688 30.512 290.688ZM41.0951 296V284.72H42.4071V289.712H49.1751V284.72H50.4871V296H49.1751V290.848H42.4071V296H41.0951ZM56.323 296.144C55.5657 296.144 54.9097 295.979 54.355 295.648C53.8003 295.317 53.3683 294.853 53.059 294.256C52.7603 293.648 52.611 292.933 52.611 292.112C52.611 291.291 52.7603 290.581 53.059 289.984C53.3683 289.376 53.8003 288.907 54.355 288.576C54.9097 288.245 55.5657 288.08 56.323 288.08C57.0803 288.08 57.7363 288.245 58.291 288.576C58.8457 288.907 59.2723 289.376 59.571 289.984C59.8803 290.581 60.035 291.291 60.035 292.112C60.035 292.933 59.8803 293.648 59.571 294.256C59.2723 294.853 58.8457 295.317 58.291 295.648C57.7363 295.979 57.0803 296.144 56.323 296.144ZM56.323 295.104C57.059 295.104 57.6403 294.848 58.067 294.336C58.5043 293.813 58.723 293.067 58.723 292.096C58.723 291.136 58.5043 290.4 58.067 289.888C57.6403 289.376 57.059 289.12 56.323 289.12C55.5977 289.12 55.0163 289.376 54.579 289.888C54.1417 290.4 53.923 291.136 53.923 292.096C53.923 293.067 54.1417 293.813 54.579 294.336C55.0163 294.848 55.5977 295.104 56.323 295.104ZM64.7336 296.144C64.1043 296.144 63.5816 296.032 63.1656 295.808C62.7603 295.573 62.451 295.227 62.2376 294.768C62.035 294.309 61.9336 293.739 61.9336 293.056V288.224H63.2296V293.04C63.2296 293.499 63.2883 293.883 63.4056 294.192C63.5336 294.491 63.731 294.715 63.9976 294.864C64.2643 295.003 64.595 295.072 64.9896 295.072C65.4376 295.072 65.827 294.971 66.1576 294.768C66.4883 294.565 66.7496 294.283 66.9416 293.92C67.1336 293.557 67.2296 293.131 67.2296 292.64V288.224H68.5256V296H67.2616V294.208H67.4696C67.2563 294.837 66.9043 295.317 66.4136 295.648C65.9336 295.979 65.3736 296.144 64.7336 296.144ZM70.9504 296V288.224H72.2144V290.064H72.0544C72.2357 289.435 72.5504 288.96 72.9984 288.64C73.4464 288.309 74.0384 288.117 74.7744 288.064L75.2384 288.016L75.3344 289.136L74.5184 289.232C73.793 289.296 73.233 289.531 72.8384 289.936C72.4544 290.331 72.2624 290.875 72.2624 291.568V296H70.9504ZM79.2306 296.144C78.8253 296.144 78.4306 296.101 78.0466 296.016C77.6733 295.941 77.3213 295.835 76.9906 295.696C76.6706 295.547 76.3933 295.371 76.1586 295.168L76.5746 294.256C76.8306 294.459 77.108 294.629 77.4066 294.768C77.7053 294.896 78.0093 294.992 78.3186 295.056C78.628 295.12 78.9426 295.152 79.2626 295.152C79.8706 295.152 80.3293 295.04 80.6386 294.816C80.948 294.592 81.1026 294.288 81.1026 293.904C81.1026 293.605 81.0013 293.371 80.7986 293.2C80.596 293.019 80.276 292.88 79.8386 292.784L78.3826 292.464C77.7106 292.325 77.2093 292.085 76.8786 291.744C76.5586 291.403 76.3986 290.96 76.3986 290.416C76.3986 289.936 76.5213 289.525 76.7666 289.184C77.0226 288.832 77.38 288.56 77.8386 288.368C78.2973 288.176 78.8306 288.08 79.4386 288.08C79.8013 288.08 80.148 288.117 80.4786 288.192C80.8093 288.267 81.1186 288.379 81.4066 288.528C81.7053 288.667 81.9613 288.843 82.1746 289.056L81.7426 289.968C81.54 289.776 81.3106 289.616 81.0546 289.488C80.7986 289.349 80.532 289.248 80.2546 289.184C79.988 289.109 79.716 289.072 79.4386 289.072C78.8413 289.072 78.388 289.189 78.0786 289.424C77.7693 289.659 77.6146 289.968 77.6146 290.352C77.6146 290.651 77.7106 290.896 77.9026 291.088C78.0946 291.28 78.3933 291.419 78.7986 291.504L80.2546 291.808C80.948 291.957 81.4653 292.197 81.8066 292.528C82.1586 292.848 82.3346 293.285 82.3346 293.84C82.3346 294.309 82.2066 294.72 81.9506 295.072C81.6946 295.413 81.332 295.68 80.8626 295.872C80.404 296.053 79.86 296.144 79.2306 296.144Z" fill="#212121"/>
<rect x="6.5" y="168.5" width="326" height="65" rx="3.5" fill="#F3FAFF"/>
<rect x="6.5" y="168.5" width="326" height="65" rx="3.5" stroke="#CBE9FF"/>
<path d="M29.78 193.108C29.34 193.108 28.924 193.068 28.532 192.988C28.148 192.908 27.792 192.796 27.464 192.652C27.144 192.5 26.852 192.316 26.588 192.1L26.936 191.308C27.208 191.508 27.484 191.68 27.764 191.824C28.052 191.96 28.36 192.064 28.688 192.136C29.024 192.2 29.388 192.232 29.78 192.232C30.5 192.232 31.032 192.1 31.376 191.836C31.728 191.564 31.904 191.208 31.904 190.768C31.904 190.536 31.848 190.336 31.736 190.168C31.632 190 31.456 189.856 31.208 189.736C30.968 189.616 30.652 189.516 30.26 189.436L29.012 189.184C28.26 189.024 27.696 188.764 27.32 188.404C26.952 188.036 26.768 187.548 26.768 186.94C26.768 186.436 26.896 185.996 27.152 185.62C27.416 185.244 27.78 184.952 28.244 184.744C28.716 184.536 29.252 184.432 29.852 184.432C30.236 184.432 30.6 184.472 30.944 184.552C31.288 184.632 31.604 184.752 31.892 184.912C32.188 185.064 32.448 185.252 32.672 185.476L32.324 186.244C31.964 185.916 31.584 185.68 31.184 185.536C30.784 185.384 30.336 185.308 29.84 185.308C29.416 185.308 29.048 185.372 28.736 185.5C28.432 185.628 28.192 185.816 28.016 186.064C27.848 186.304 27.764 186.584 27.764 186.904C27.764 187.288 27.88 187.592 28.112 187.816C28.352 188.04 28.74 188.204 29.276 188.308L30.524 188.572C31.332 188.74 31.928 188.996 32.312 189.34C32.704 189.676 32.9 190.136 32.9 190.72C32.9 191.184 32.772 191.6 32.516 191.968C32.268 192.328 31.908 192.608 31.436 192.808C30.972 193.008 30.42 193.108 29.78 193.108ZM36.6114 193.108C35.9234 193.108 35.4074 192.924 35.0634 192.556C34.7194 192.188 34.5474 191.664 34.5474 190.984V187.924H33.4074V187.168H34.5474V185.38H35.5194V187.168H37.3674V187.924H35.5194V190.888C35.5194 191.344 35.6154 191.692 35.8074 191.932C35.9994 192.164 36.3114 192.28 36.7434 192.28C36.8714 192.28 36.9994 192.264 37.1274 192.232C37.2554 192.2 37.3714 192.168 37.4754 192.136L37.6434 192.88C37.5394 192.936 37.3874 192.988 37.1874 193.036C36.9874 193.084 36.7954 193.108 36.6114 193.108ZM40.3027 193.108C39.9027 193.108 39.5427 193.032 39.2227 192.88C38.9107 192.72 38.6627 192.504 38.4787 192.232C38.2947 191.96 38.2027 191.656 38.2027 191.32C38.2027 190.888 38.3107 190.548 38.5267 190.3C38.7507 190.052 39.1147 189.876 39.6187 189.772C40.1307 189.668 40.8267 189.616 41.7067 189.616H42.2467V190.252H41.7187C41.2307 190.252 40.8227 190.268 40.4947 190.3C40.1667 190.332 39.9067 190.388 39.7147 190.468C39.5227 190.548 39.3867 190.652 39.3067 190.78C39.2267 190.908 39.1867 191.068 39.1867 191.26C39.1867 191.588 39.2987 191.856 39.5227 192.064C39.7547 192.272 40.0667 192.376 40.4587 192.376C40.7787 192.376 41.0587 192.3 41.2987 192.148C41.5467 191.996 41.7387 191.788 41.8747 191.524C42.0187 191.26 42.0907 190.956 42.0907 190.612V189.244C42.0907 188.748 41.9907 188.392 41.7907 188.176C41.5907 187.952 41.2627 187.84 40.8067 187.84C40.4547 187.84 40.1147 187.892 39.7867 187.996C39.4587 188.092 39.1227 188.252 38.7787 188.476L38.4427 187.768C38.6507 187.624 38.8867 187.5 39.1507 187.396C39.4147 187.284 39.6907 187.2 39.9787 187.144C40.2667 187.088 40.5427 187.06 40.8067 187.06C41.3107 187.06 41.7267 187.144 42.0547 187.312C42.3827 187.472 42.6267 187.72 42.7867 188.056C42.9467 188.384 43.0267 188.808 43.0267 189.328V193H42.1147V191.644H42.2227C42.1587 191.948 42.0347 192.208 41.8507 192.424C41.6747 192.64 41.4547 192.808 41.1907 192.928C40.9267 193.048 40.6307 193.108 40.3027 193.108ZM47.17 193.108C46.482 193.108 45.966 192.924 45.622 192.556C45.278 192.188 45.106 191.664 45.106 190.984V187.924H43.966V187.168H45.106V185.38H46.078V187.168H47.926V187.924H46.078V190.888C46.078 191.344 46.174 191.692 46.366 191.932C46.558 192.164 46.87 192.28 47.302 192.28C47.43 192.28 47.558 192.264 47.686 192.232C47.814 192.2 47.93 192.168 48.034 192.136L48.202 192.88C48.098 192.936 47.946 192.988 47.746 193.036C47.546 193.084 47.354 193.108 47.17 193.108ZM51.0893 193.108C50.6173 193.108 50.2253 193.024 49.9133 192.856C49.6093 192.68 49.3773 192.42 49.2173 192.076C49.0653 191.732 48.9893 191.304 48.9893 190.792V187.168H49.9613V190.78C49.9613 191.124 50.0053 191.412 50.0933 191.644C50.1893 191.868 50.3373 192.036 50.5373 192.148C50.7373 192.252 50.9853 192.304 51.2813 192.304C51.6173 192.304 51.9093 192.228 52.1573 192.076C52.4053 191.924 52.6013 191.712 52.7453 191.44C52.8893 191.168 52.9613 190.848 52.9613 190.48V187.168H53.9333V193H52.9853V191.656H53.1413C52.9813 192.128 52.7173 192.488 52.3493 192.736C51.9893 192.984 51.5693 193.108 51.0893 193.108ZM57.7198 193.108C57.4158 193.108 57.1198 193.076 56.8318 193.012C56.5518 192.956 56.2878 192.876 56.0398 192.772C55.7998 192.66 55.5918 192.528 55.4158 192.376L55.7278 191.692C55.9198 191.844 56.1278 191.972 56.3518 192.076C56.5758 192.172 56.8038 192.244 57.0358 192.292C57.2678 192.34 57.5038 192.364 57.7438 192.364C58.1998 192.364 58.5438 192.28 58.7758 192.112C59.0078 191.944 59.1238 191.716 59.1238 191.428C59.1238 191.204 59.0478 191.028 58.8958 190.9C58.7438 190.764 58.5038 190.66 58.1758 190.588L57.0838 190.348C56.5798 190.244 56.2038 190.064 55.9558 189.808C55.7158 189.552 55.5958 189.22 55.5958 188.812C55.5958 188.452 55.6878 188.144 55.8718 187.888C56.0638 187.624 56.3318 187.42 56.6758 187.276C57.0198 187.132 57.4198 187.06 57.8758 187.06C58.1478 187.06 58.4078 187.088 58.6558 187.144C58.9038 187.2 59.1358 187.284 59.3518 187.396C59.5758 187.5 59.7678 187.632 59.9278 187.792L59.6038 188.476C59.4518 188.332 59.2798 188.212 59.0878 188.116C58.8958 188.012 58.6958 187.936 58.4878 187.888C58.2878 187.832 58.0838 187.804 57.8758 187.804C57.4278 187.804 57.0878 187.892 56.8558 188.068C56.6238 188.244 56.5078 188.476 56.5078 188.764C56.5078 188.988 56.5798 189.172 56.7238 189.316C56.8678 189.46 57.0918 189.564 57.3958 189.628L58.4878 189.856C59.0078 189.968 59.3958 190.148 59.6518 190.396C59.9158 190.636 60.0478 190.964 60.0478 191.38C60.0478 191.732 59.9518 192.04 59.7598 192.304C59.5678 192.56 59.2958 192.76 58.9438 192.904C58.5998 193.04 58.1918 193.108 57.7198 193.108Z" fill="#A0B3C0"/>
<path d="M27.216 216.88V206.224H28.48V208.064H28.32C28.4907 207.456 28.8267 206.976 29.328 206.624C29.84 206.261 30.448 206.08 31.152 206.08C31.8453 206.08 32.448 206.245 32.96 206.576C33.4827 206.896 33.8827 207.36 34.16 207.968C34.448 208.565 34.592 209.28 34.592 210.112C34.592 210.933 34.448 211.648 34.16 212.256C33.8827 212.853 33.488 213.317 32.976 213.648C32.464 213.979 31.856 214.144 31.152 214.144C30.448 214.144 29.8453 213.968 29.344 213.616C28.8427 213.253 28.5013 212.773 28.32 212.176H28.512V216.88H27.216ZM30.88 213.104C31.616 213.104 32.1973 212.848 32.624 212.336C33.0613 211.813 33.28 211.072 33.28 210.112C33.28 209.141 33.0613 208.4 32.624 207.888C32.1973 207.376 31.616 207.12 30.88 207.12C30.1547 207.12 29.5733 207.376 29.136 207.888C28.6987 208.4 28.48 209.141 28.48 210.112C28.48 211.072 28.6987 211.813 29.136 212.336C29.5733 212.848 30.1547 213.104 30.88 213.104ZM36.5441 214V206.224H37.8081V208.064H37.6481C37.8295 207.435 38.1441 206.96 38.5921 206.64C39.0401 206.309 39.6321 206.117 40.3681 206.064L40.8321 206.016L40.9281 207.136L40.1121 207.232C39.3868 207.296 38.8268 207.531 38.4321 207.936C38.0481 208.331 37.8561 208.875 37.8561 209.568V214H36.5441ZM45.6888 214.144C44.8674 214.144 44.1581 213.984 43.5608 213.664C42.9741 213.333 42.5154 212.869 42.1848 212.272C41.8648 211.675 41.7048 210.96 41.7048 210.128C41.7048 209.317 41.8648 208.613 42.1848 208.016C42.5048 207.408 42.9421 206.933 43.4968 206.592C44.0621 206.251 44.7128 206.08 45.4488 206.08C46.1528 206.08 46.7554 206.235 47.2568 206.544C47.7581 206.853 48.1421 207.291 48.4088 207.856C48.6861 208.421 48.8248 209.099 48.8248 209.888V210.384H42.6968V209.536H47.9608L47.7048 209.744C47.7048 208.891 47.5128 208.229 47.1288 207.76C46.7554 207.28 46.2061 207.04 45.4808 207.04C44.9368 207.04 44.4728 207.168 44.0888 207.424C43.7154 207.669 43.4328 208.016 43.2408 208.464C43.0488 208.901 42.9528 209.413 42.9528 210V210.096C42.9528 210.747 43.0541 211.296 43.2568 211.744C43.4701 212.192 43.7848 212.533 44.2008 212.768C44.6168 212.992 45.1128 213.104 45.6888 213.104C46.1474 213.104 46.5901 213.035 47.0168 212.896C47.4541 212.747 47.8648 212.507 48.2488 212.176L48.6968 213.088C48.3448 213.408 47.8968 213.664 47.3528 213.856C46.8088 214.048 46.2541 214.144 45.6888 214.144ZM53.3244 214.144C52.919 214.144 52.5244 214.101 52.1404 214.016C51.767 213.941 51.415 213.835 51.0844 213.696C50.7644 213.547 50.487 213.371 50.2524 213.168L50.6684 212.256C50.9244 212.459 51.2017 212.629 51.5004 212.768C51.799 212.896 52.103 212.992 52.4124 213.056C52.7217 213.12 53.0364 213.152 53.3564 213.152C53.9644 213.152 54.423 213.04 54.7324 212.816C55.0417 212.592 55.1964 212.288 55.1964 211.904C55.1964 211.605 55.095 211.371 54.8924 211.2C54.6897 211.019 54.3697 210.88 53.9324 210.784L52.4764 210.464C51.8044 210.325 51.303 210.085 50.9724 209.744C50.6524 209.403 50.4924 208.96 50.4924 208.416C50.4924 207.936 50.615 207.525 50.8604 207.184C51.1164 206.832 51.4737 206.56 51.9324 206.368C52.391 206.176 52.9244 206.08 53.5324 206.08C53.895 206.08 54.2417 206.117 54.5724 206.192C54.903 206.267 55.2124 206.379 55.5004 206.528C55.799 206.667 56.055 206.843 56.2684 207.056L55.8364 207.968C55.6337 207.776 55.4044 207.616 55.1484 207.488C54.8924 207.349 54.6257 207.248 54.3484 207.184C54.0817 207.109 53.8097 207.072 53.5324 207.072C52.935 207.072 52.4817 207.189 52.1724 207.424C51.863 207.659 51.7084 207.968 51.7084 208.352C51.7084 208.651 51.8044 208.896 51.9964 209.088C52.1884 209.28 52.487 209.419 52.8924 209.504L54.3484 209.808C55.0417 209.957 55.559 210.197 55.9004 210.528C56.2524 210.848 56.4284 211.285 56.4284 211.84C56.4284 212.309 56.3004 212.72 56.0444 213.072C55.7884 213.413 55.4257 213.68 54.9564 213.872C54.4977 214.053 53.9537 214.144 53.3244 214.144ZM61.9075 214.144C61.0862 214.144 60.3768 213.984 59.7795 213.664C59.1928 213.333 58.7342 212.869 58.4035 212.272C58.0835 211.675 57.9235 210.96 57.9235 210.128C57.9235 209.317 58.0835 208.613 58.4035 208.016C58.7235 207.408 59.1608 206.933 59.7155 206.592C60.2808 206.251 60.9315 206.08 61.6675 206.08C62.3715 206.08 62.9742 206.235 63.4755 206.544C63.9768 206.853 64.3608 207.291 64.6275 207.856C64.9048 208.421 65.0435 209.099 65.0435 209.888V210.384H58.9155V209.536H64.1795L63.9235 209.744C63.9235 208.891 63.7315 208.229 63.3475 207.76C62.9742 207.28 62.4248 207.04 61.6995 207.04C61.1555 207.04 60.6915 207.168 60.3075 207.424C59.9342 207.669 59.6515 208.016 59.4595 208.464C59.2675 208.901 59.1715 209.413 59.1715 210V210.096C59.1715 210.747 59.2728 211.296 59.4755 211.744C59.6888 212.192 60.0035 212.533 60.4195 212.768C60.8355 212.992 61.3315 213.104 61.9075 213.104C62.3662 213.104 62.8088 213.035 63.2355 212.896C63.6728 212.747 64.0835 212.507 64.4675 212.176L64.9155 213.088C64.5635 213.408 64.1155 213.664 63.5715 213.856C63.0275 214.048 62.4728 214.144 61.9075 214.144ZM66.9191 214V206.224H68.1831V207.952H68.0071C68.2311 207.333 68.5938 206.869 69.0951 206.56C69.6071 206.24 70.1938 206.08 70.8551 206.08C71.4738 206.08 71.9858 206.192 72.3911 206.416C72.8071 206.629 73.1165 206.965 73.3191 207.424C73.5218 207.883 73.6231 208.459 73.6231 209.152V214H72.3271V209.232C72.3271 208.752 72.2631 208.357 72.1351 208.048C72.0178 207.739 71.8258 207.509 71.5591 207.36C71.3031 207.211 70.9671 207.136 70.5511 207.136C70.0818 207.136 69.6711 207.237 69.3191 207.44C68.9671 207.643 68.6951 207.925 68.5031 208.288C68.3111 208.651 68.2151 209.077 68.2151 209.568V214H66.9191ZM79.1329 214.144C78.2155 214.144 77.5275 213.899 77.0689 213.408C76.6102 212.917 76.3809 212.219 76.3809 211.312V207.232H74.8609V206.224H76.3809V203.84H77.6769V206.224H80.1409V207.232H77.6769V211.184C77.6769 211.792 77.8049 212.256 78.0609 212.576C78.3169 212.885 78.7329 213.04 79.3089 213.04C79.4795 213.04 79.6502 213.019 79.8209 212.976C79.9915 212.933 80.1462 212.891 80.2849 212.848L80.5089 213.84C80.3702 213.915 80.1675 213.984 79.9009 214.048C79.6342 214.112 79.3782 214.144 79.1329 214.144Z" fill="#212121"/>
<rect x="207" y="393" width="285" height="64" rx="4" fill="#0082E3"/>
<path d="M330.204 432.18C329.471 432.18 328.778 432.113 328.124 431.98C327.484 431.847 326.891 431.66 326.344 431.42C325.811 431.167 325.324 430.86 324.884 430.5L325.464 429.18C325.918 429.513 326.378 429.8 326.844 430.04C327.324 430.267 327.838 430.44 328.384 430.56C328.944 430.667 329.551 430.72 330.204 430.72C331.404 430.72 332.291 430.5 332.864 430.06C333.451 429.607 333.744 429.013 333.744 428.28C333.744 427.893 333.651 427.56 333.464 427.28C333.291 427 332.998 426.76 332.584 426.56C332.184 426.36 331.658 426.193 331.004 426.06L328.924 425.64C327.671 425.373 326.731 424.94 326.104 424.34C325.491 423.727 325.184 422.913 325.184 421.9C325.184 421.06 325.398 420.327 325.824 419.7C326.264 419.073 326.871 418.587 327.644 418.24C328.431 417.893 329.324 417.72 330.324 417.72C330.964 417.72 331.571 417.787 332.144 417.92C332.718 418.053 333.244 418.253 333.724 418.52C334.218 418.773 334.651 419.087 335.024 419.46L334.444 420.74C333.844 420.193 333.211 419.8 332.544 419.56C331.878 419.307 331.131 419.18 330.304 419.18C329.598 419.18 328.984 419.287 328.464 419.5C327.958 419.713 327.558 420.027 327.264 420.44C326.984 420.84 326.844 421.307 326.844 421.84C326.844 422.48 327.038 422.987 327.424 423.36C327.824 423.733 328.471 424.007 329.364 424.18L331.444 424.62C332.791 424.9 333.784 425.327 334.424 425.9C335.078 426.46 335.404 427.227 335.404 428.2C335.404 428.973 335.191 429.667 334.764 430.28C334.351 430.88 333.751 431.347 332.964 431.68C332.191 432.013 331.271 432.18 330.204 432.18ZM336.55 432L342.77 417.9H344.17L350.39 432H348.69L346.95 427.98L347.75 428.4H339.15L339.97 427.98L338.25 432H336.55ZM343.45 419.82L340.23 427.4L339.75 427.02H347.15L346.71 427.4L343.49 419.82H343.45ZM355.786 432L349.626 417.9H351.386L356.886 430.68H356.246L361.726 417.9H363.446L357.266 432H355.786ZM365.176 432V417.9H374.076V419.28H366.776V424.16H373.656V425.54H366.776V430.62H374.076V432H365.176Z" fill="white"/>
</svg>
