<svg width="70" height="70" viewBox="0 0 70 70" fill="none" xmlns="http://www.w3.org/2000/svg">
<path d="M40.8346 5.83301H17.5013C15.9542 5.83301 14.4705 6.44759 13.3765 7.54155C12.2826 8.63551 11.668 10.1192 11.668 11.6663V58.333C11.668 59.8801 12.2826 61.3638 13.3765 62.4578C14.4705 63.5518 15.9542 64.1663 17.5013 64.1663H52.5013C54.0484 64.1663 55.5321 63.5518 56.6261 62.4578C57.7201 61.3638 58.3346 59.8801 58.3346 58.333V23.333L40.8346 5.83301Z" stroke="white" stroke-width="2" stroke-linecap="round" stroke-linejoin="round"/>
<path d="M40.832 5.83301V23.333H58.332" stroke="white" stroke-width="2" stroke-linecap="round" stroke-linejoin="round"/>
<path d="M46.6654 37.917H23.332" stroke="white" stroke-width="2" stroke-linecap="round" stroke-linejoin="round"/>
<path d="M46.6654 49.583H23.332" stroke="white" stroke-width="2" stroke-linecap="round" stroke-linejoin="round"/>
<path d="M29.1654 26.25H26.2487H23.332" stroke="white" stroke-width="2" stroke-linecap="round" stroke-linejoin="round"/>
</svg>
