<svg width="20" height="20" viewBox="0 0 20 20" fill="none" xmlns="http://www.w3.org/2000/svg">
<g clip-path="url(#clip0_7582_10586)">
<path d="M10 10.084C10.4141 10.0842 10.75 10.4199 10.75 10.834V16.5225L12.3857 14.8867C12.6785 14.5939 13.1534 14.5942 13.4463 14.8867C13.739 15.1796 13.7391 15.6544 13.4463 15.9473L10.5303 18.8643C10.2375 19.1569 9.76259 19.1568 9.46973 18.8643L6.55273 15.9473C6.26006 15.6544 6.26006 15.1796 6.55273 14.8867C6.84559 14.594 7.32043 14.594 7.61328 14.8867L9.25 16.5234V10.834C9.25 10.4198 9.58579 10.084 10 10.084ZM10 0.916992C13.2408 0.917137 15.9722 3.07802 16.8604 6.03809C18.6672 6.89666 19.916 8.74449 19.916 10.8848C19.916 12.6367 19.0788 14.1938 17.7852 15.1709C17.4547 15.4205 16.984 15.3549 16.7344 15.0244C16.4847 14.6939 16.5504 14.2233 16.8809 13.9736C17.8137 13.269 18.416 12.1485 18.416 10.8848C18.416 9.24212 17.3969 7.84042 15.9619 7.2832C15.7333 7.19442 15.5628 6.99908 15.5049 6.76074C14.8988 4.26453 12.6608 2.41714 10 2.41699C6.8744 2.41699 4.33315 4.96597 4.33301 8.11914C4.33301 8.15347 4.33339 8.18848 4.33398 8.22266C4.33983 8.56922 4.1071 8.87515 3.77148 8.96191C2.51514 9.28686 1.58301 10.436 1.58301 11.8066C1.58306 12.8946 2.16994 13.8435 3.04297 14.3516C3.40092 14.5598 3.5225 15.0189 3.31445 15.377C3.10618 15.735 2.64711 15.8567 2.28906 15.6484C0.970653 14.8814 0.0830587 13.4477 0.0830078 11.8066C0.0830078 9.94459 1.22481 8.34838 2.84668 7.69043C3.06747 3.91583 6.18164 0.916992 10 0.916992Z" fill="#0072C6"/>
</g>
<defs>
<clipPath id="clip0_7582_10586">
<rect width="20" height="20" fill="white"/>
</clipPath>
</defs>
</svg>
