<svg width="20" height="20" viewBox="0 0 20 20" fill="none" xmlns="http://www.w3.org/2000/svg">
<path d="M13.3456 2.29781C14.3248 1.56081 15.6739 1.56096 16.6532 2.29781C16.818 2.42189 16.9798 2.58734 17.1962 2.80367C17.4125 3.02001 17.578 3.18181 17.702 3.34664C18.4388 4.3259 18.439 5.67511 17.702 6.65426C17.578 6.81905 17.4125 6.98091 17.1962 7.19723L9.40027 14.9941C8.90946 15.4849 8.60189 15.7959 8.24499 16.0449C7.93923 16.2581 7.60862 16.4351 7.26159 16.5713C6.85662 16.73 6.42733 16.8131 5.74695 16.9492L3.48034 17.4023C3.23454 17.4514 2.9799 17.3744 2.80261 17.1972C2.62537 17.02 2.54848 16.7653 2.59753 16.5195L3.05066 14.2529C3.18671 13.5726 3.26986 13.1432 3.42859 12.7382C3.5647 12.3912 3.74174 12.0606 3.95495 11.7548C4.2039 11.3979 4.51492 11.0904 5.00574 10.5996L12.8026 2.80367C13.019 2.58733 13.1808 2.42189 13.3456 2.29781ZM6.06726 11.6601C5.53984 12.1875 5.34109 12.3901 5.18542 12.6132C5.03962 12.8223 4.91817 13.0478 4.82507 13.2851C4.72576 13.5384 4.66762 13.8165 4.52136 14.5478L4.28796 15.7109L5.45202 15.4785C6.18349 15.3322 6.4614 15.2741 6.71472 15.1748C6.95204 15.0817 7.17749 14.9602 7.38659 14.8144C7.60977 14.6588 7.81237 14.4609 8.33972 13.9336L14.3153 7.95699C13.2812 7.54268 12.4563 6.71854 12.0419 5.68453L6.06726 11.6601ZM15.7518 3.49703C15.3067 3.16198 14.6931 3.16199 14.2479 3.49703C14.1885 3.54184 14.1152 3.61215 13.8632 3.86422L13.2665 4.45992C13.4012 5.65228 14.3475 6.59675 15.5399 6.73141L16.1356 6.13668C16.3876 5.88465 16.458 5.81136 16.5028 5.75192C16.8378 5.30687 16.8376 4.6941 16.5028 4.24899C16.458 4.18948 16.388 4.11664 16.1356 3.86422C15.884 3.61257 15.8112 3.54185 15.7518 3.49703Z" fill="#0072C6"/>
</svg>
