<svg width="24" height="24" viewBox="0 0 24 24" fill="none" xmlns="http://www.w3.org/2000/svg">
<path d="M9.342 18.782L7.411 18.264L8.198 15.325C7.02 14.891 5.925 14.258 4.961 13.453L2.808 15.607L1.393 14.192L3.547 12.039C2.331 10.583 1.514 8.836 1.176 6.969L3.144 6.61C3.903 10.812 7.579 14 12 14s8.097-3.188 8.856-7.39l1.968.358C22.486 8.835 21.67 10.582 20.454 12.039L22.607 14.192 21.192 15.607 19.039 13.453c-.965.804-2.06 1.437-3.238 1.872l.787 2.94-1.931.517-.788-2.94c-1.238.212-2.502.212-3.74 0l-.788 2.94-1.931-.517.787-2.94z" fill="#374151"/>
</svg>
