<svg width="24" height="24" viewBox="0 0 24 24" fill="none" xmlns="http://www.w3.org/2000/svg">
<path d="M7.90116 2.96289H4.9382C4.41431 2.96289 3.91189 3.171 3.54145 3.54145C3.171 3.91189 2.96289 4.41431 2.96289 4.9382V7.90116M20.7407 7.90116V4.9382C20.7407 4.41431 20.5326 3.91189 20.1621 3.54145C19.7917 3.171 19.2892 2.96289 18.7654 2.96289H15.8024M15.8024 20.7407H18.7654C19.2892 20.7407 19.7917 20.5326 20.1621 20.1621C20.5326 19.7917 20.7407 19.2892 20.7407 18.7654V15.8024M2.96289 15.8024V18.7654C2.96289 19.2892 3.171 19.7917 3.54145 20.1621C3.91189 20.5326 4.41431 20.7407 4.9382 20.7407H7.90116" stroke="white" stroke-linecap="round" stroke-linejoin="round"/>
</svg>
