<svg width="76" height="16" viewBox="0 0 76 16" fill="none" xmlns="http://www.w3.org/2000/svg">
<path d="M26.4773 10.4659V4.84091H27.4318V10.4659H26.4773ZM24.142 8.13068V7.17614H29.767V8.13068H24.142ZM34.609 3.27273V12H33.5522V4.80682H33.484C33.4442 4.88636 33.342 4.97727 33.1772 5.07955C33.0124 5.17898 32.7994 5.26705 32.538 5.34375C32.2766 5.41761 31.9783 5.45455 31.6431 5.45455V4.56818C31.9812 4.56818 32.2738 4.5071 32.521 4.38494C32.7681 4.26278 32.9741 4.11932 33.1388 3.95455C33.3065 3.78977 33.4329 3.64062 33.5181 3.5071C33.6062 3.37358 33.6573 3.29545 33.6715 3.27273H34.609ZM39.9059 3.27273V12H38.8491V4.80682H38.7809C38.7411 4.88636 38.6388 4.97727 38.4741 5.07955C38.3093 5.17898 38.0962 5.26705 37.8349 5.34375C37.5735 5.41761 37.2752 5.45455 36.94 5.45455V4.56818C37.2781 4.56818 37.5707 4.5071 37.8178 4.38494C38.065 4.26278 38.271 4.11932 38.4357 3.95455C38.6033 3.78977 38.7298 3.64062 38.815 3.5071C38.9031 3.37358 38.9542 3.29545 38.9684 3.27273H39.9059ZM46.8562 10.3636V9.90341C46.8562 9.58523 46.9215 9.29403 47.0522 9.02983C47.1857 8.76278 47.3789 8.54972 47.6317 8.39062C47.8874 8.22869 48.1971 8.14773 48.5607 8.14773C48.93 8.14773 49.2397 8.22869 49.4897 8.39062C49.7397 8.54972 49.9286 8.76278 50.0565 9.02983C50.1843 9.29403 50.2482 9.58523 50.2482 9.90341V10.3636C50.2482 10.6818 50.1829 10.9744 50.0522 11.2415C49.9244 11.5057 49.734 11.7187 49.4812 11.8807C49.2312 12.0398 48.9244 12.1193 48.5607 12.1193C48.1914 12.1193 47.8803 12.0398 47.6275 11.8807C47.3746 11.7187 47.1829 11.5057 47.0522 11.2415C46.9215 10.9744 46.8562 10.6818 46.8562 10.3636ZM47.7255 9.90341V10.3636C47.7255 10.6278 47.788 10.8651 47.913 11.0753C48.038 11.2827 48.2539 11.3864 48.5607 11.3864C48.859 11.3864 49.0692 11.2827 49.1914 11.0753C49.3164 10.8651 49.3789 10.6278 49.3789 10.3636V9.90341C49.3789 9.6392 49.3192 9.40341 49.1999 9.19602C49.0806 8.9858 48.8675 8.88068 48.5607 8.88068C48.2624 8.88068 48.0479 8.9858 47.9173 9.19602C47.7894 9.40341 47.7255 9.6392 47.7255 9.90341ZM42.5096 5.36932V4.90909C42.5096 4.59091 42.5749 4.29972 42.7056 4.03551C42.8391 3.76847 43.0323 3.5554 43.2852 3.39631C43.5408 3.23437 43.8505 3.15341 44.2141 3.15341C44.5835 3.15341 44.8931 3.23437 45.1431 3.39631C45.3931 3.5554 45.582 3.76847 45.7099 4.03551C45.8377 4.29972 45.9016 4.59091 45.9016 4.90909V5.36932C45.9016 5.6875 45.8363 5.98011 45.7056 6.24716C45.5778 6.51136 45.3874 6.72443 45.1346 6.88636C44.8846 7.04545 44.5778 7.125 44.2141 7.125C43.8448 7.125 43.5337 7.04545 43.2809 6.88636C43.0281 6.72443 42.8363 6.51136 42.7056 6.24716C42.5749 5.98011 42.5096 5.6875 42.5096 5.36932ZM43.3789 4.90909V5.36932C43.3789 5.63352 43.4414 5.87074 43.5664 6.08097C43.6914 6.28835 43.9073 6.39205 44.2141 6.39205C44.5124 6.39205 44.7227 6.28835 44.8448 6.08097C44.9698 5.87074 45.0323 5.63352 45.0323 5.36932V4.90909C45.0323 4.64489 44.9727 4.40909 44.8533 4.2017C44.734 3.99148 44.521 3.88636 44.2141 3.88636C43.9158 3.88636 43.7013 3.99148 43.5707 4.2017C43.4428 4.40909 43.3789 4.64489 43.3789 4.90909ZM42.8335 12L48.8335 3.27273H49.805L43.805 12H42.8335Z" fill="black"/>
<path fill-rule="evenodd" clip-rule="evenodd" d="M68.4549 5.60777L74 4L72.6198 9.6061L70.898 7.9532L68.1207 10.8463C68.0264 10.9445 67.8961 11 67.76 11C67.6239 11 67.4936 10.9445 67.3993 10.8463L65.36 8.72199L62.3607 11.8463C62.1695 12.0455 61.8529 12.0519 61.6537 11.8607C61.4545 11.6695 61.4481 11.3529 61.6393 11.1537L64.9993 7.65373C65.0936 7.55552 65.2239 7.5 65.36 7.5C65.4961 7.5 65.6264 7.55552 65.7207 7.65373L67.76 9.77801L70.1766 7.26067L68.4549 5.60777Z" fill="black"/>
</svg>
