<svg width="76" height="16" viewBox="0 0 76 16" fill="none" xmlns="http://www.w3.org/2000/svg">
<path d="M27.6705 7.16761V8.10511H23.8523V7.16761H27.6705ZM32.2184 3.27273V12H31.1616V4.80682H31.0934C31.0536 4.88636 30.9513 4.97727 30.7866 5.07955C30.6218 5.17898 30.4087 5.26705 30.1474 5.34375C29.886 5.41761 29.5877 5.45455 29.2525 5.45455V4.56818C29.5906 4.56818 29.8832 4.5071 30.1303 4.38494C30.3775 4.26278 30.5835 4.11932 30.7482 3.95455C30.9158 3.78977 31.0423 3.64062 31.1275 3.5071C31.2156 3.37358 31.2667 3.29545 31.2809 3.27273H32.2184ZM37.5664 12.1193C36.9244 12.1193 36.3775 11.9446 35.9258 11.5952C35.4741 11.2429 35.1289 10.733 34.8903 10.0653C34.6516 9.39489 34.5323 8.58523 34.5323 7.63636C34.5323 6.69318 34.6516 5.88778 34.8903 5.22017C35.1317 4.54972 35.4783 4.03835 35.93 3.68608C36.3846 3.33097 36.93 3.15341 37.5664 3.15341C38.2028 3.15341 38.7468 3.33097 39.1985 3.68608C39.6531 4.03835 39.9996 4.54972 40.2383 5.22017C40.4798 5.88778 40.6005 6.69318 40.6005 7.63636C40.6005 8.58523 40.4812 9.39489 40.2425 10.0653C40.0039 10.733 39.6587 11.2429 39.207 11.5952C38.7553 11.9446 38.2085 12.1193 37.5664 12.1193ZM37.5664 11.1818C38.2028 11.1818 38.6971 10.875 39.0494 10.2614C39.4016 9.64773 39.5778 8.77273 39.5778 7.63636C39.5778 6.88068 39.4968 6.23722 39.3349 5.70597C39.1758 5.17472 38.9457 4.76989 38.6445 4.49148C38.3462 4.21307 37.9869 4.07386 37.5664 4.07386C36.9357 4.07386 36.4428 4.38494 36.0877 5.0071C35.7326 5.62642 35.555 6.50284 35.555 7.63636C35.555 8.39205 35.6346 9.03409 35.7937 9.5625C35.9528 10.0909 36.1815 10.4929 36.4798 10.7685C36.7809 11.044 37.1431 11.1818 37.5664 11.1818ZM46.6687 10.3636V9.90341C46.6687 9.58523 46.734 9.29403 46.8647 9.02983C46.9982 8.76278 47.1914 8.54972 47.4442 8.39062C47.6999 8.22869 48.0096 8.14773 48.3732 8.14773C48.7425 8.14773 49.0522 8.22869 49.3022 8.39062C49.5522 8.54972 49.7411 8.76278 49.869 9.02983C49.9968 9.29403 50.0607 9.58523 50.0607 9.90341V10.3636C50.0607 10.6818 49.9954 10.9744 49.8647 11.2415C49.7369 11.5057 49.5465 11.7187 49.2937 11.8807C49.0437 12.0398 48.7369 12.1193 48.3732 12.1193C48.0039 12.1193 47.6928 12.0398 47.44 11.8807C47.1871 11.7187 46.9954 11.5057 46.8647 11.2415C46.734 10.9744 46.6687 10.6818 46.6687 10.3636ZM47.538 9.90341V10.3636C47.538 10.6278 47.6005 10.8651 47.7255 11.0753C47.8505 11.2827 48.0664 11.3864 48.3732 11.3864C48.6715 11.3864 48.8817 11.2827 49.0039 11.0753C49.1289 10.8651 49.1914 10.6278 49.1914 10.3636V9.90341C49.1914 9.6392 49.1317 9.40341 49.0124 9.19602C48.8931 8.9858 48.68 8.88068 48.3732 8.88068C48.0749 8.88068 47.8604 8.9858 47.7298 9.19602C47.6019 9.40341 47.538 9.6392 47.538 9.90341ZM42.3221 5.36932V4.90909C42.3221 4.59091 42.3874 4.29972 42.5181 4.03551C42.6516 3.76847 42.8448 3.5554 43.0977 3.39631C43.3533 3.23437 43.663 3.15341 44.0266 3.15341C44.396 3.15341 44.7056 3.23437 44.9556 3.39631C45.2056 3.5554 45.3945 3.76847 45.5224 4.03551C45.6502 4.29972 45.7141 4.59091 45.7141 4.90909V5.36932C45.7141 5.6875 45.6488 5.98011 45.5181 6.24716C45.3903 6.51136 45.1999 6.72443 44.9471 6.88636C44.6971 7.04545 44.3903 7.125 44.0266 7.125C43.6573 7.125 43.3462 7.04545 43.0934 6.88636C42.8406 6.72443 42.6488 6.51136 42.5181 6.24716C42.3874 5.98011 42.3221 5.6875 42.3221 5.36932ZM43.1914 4.90909V5.36932C43.1914 5.63352 43.2539 5.87074 43.3789 6.08097C43.5039 6.28835 43.7198 6.39205 44.0266 6.39205C44.3249 6.39205 44.5352 6.28835 44.6573 6.08097C44.7823 5.87074 44.8448 5.63352 44.8448 5.36932V4.90909C44.8448 4.64489 44.7852 4.40909 44.6658 4.2017C44.5465 3.99148 44.3335 3.88636 44.0266 3.88636C43.7283 3.88636 43.5138 3.99148 43.3832 4.2017C43.2553 4.40909 43.1914 4.64489 43.1914 4.90909ZM42.646 12L48.646 3.27273H49.6175L43.6175 12H42.646Z" fill="black"/>
<path fill-rule="evenodd" clip-rule="evenodd" d="M70.3922 8.45488L72 14L66.3939 12.6198L68.0468 10.898L65.1537 8.12069C65.0555 8.02641 65 7.89615 65 7.76C65 7.62385 65.0555 7.49359 65.1537 7.39931L67.278 5.36L64.1537 2.36069C63.9545 2.16946 63.9481 1.85294 64.1393 1.65373C64.3305 1.45453 64.6471 1.44807 64.8463 1.63931L68.3463 4.99931C68.4445 5.09359 68.5 5.22385 68.5 5.36C68.5 5.49615 68.4445 5.62641 68.3463 5.72069L66.222 7.76L68.7393 10.1766L70.3922 8.45488Z" fill="black"/>
</svg>
