<svg width="40" height="33" viewBox="0 0 40 33" fill="none" xmlns="http://www.w3.org/2000/svg">
<title>Sort ascending (up)</title>
<g filter="url(#filter0_d_7596_31514)">
<path d="M0 16C0 7.16344 7.16344 0 16 0H24C32.8366 0 40 7.16344 40 16V16C40 24.8366 32.8366 32 24 32H16C7.16344 32 0 24.8366 0 16V16Z" fill="white" shape-rendering="crispEdges"/>
<path d="M16 0.5H24C32.5604 0.5 39.5 7.43959 39.5 16C39.5 24.5604 32.5604 31.5 24 31.5H16C7.43959 31.5 0.5 24.5604 0.5 16C0.5 7.43959 7.43959 0.5 16 0.5Z" stroke="#0072C6" shape-rendering="crispEdges"/>
<path fill-rule="evenodd" clip-rule="evenodd" d="M20.6823 12.4117L29 10L26.9297 18.4092L24.3471 15.9298L20.181 20.2694C20.0396 20.4167 19.8442 20.5 19.64 20.5C19.4358 20.5 19.2404 20.4167 19.099 20.2694L16.04 17.083L11.541 21.7694C11.2542 22.0682 10.7794 22.0779 10.4806 21.791C10.1818 21.5042 10.1721 21.0294 10.459 20.7306L15.499 15.4806C15.6404 15.3333 15.8358 15.25 16.04 15.25C16.2442 15.25 16.4396 15.3333 16.581 15.4806L19.64 18.667L23.265 14.891L20.6823 12.4117Z" fill="#0072C6"/>
</g>
<defs>
<filter id="filter0_d_7596_31514" x="0" y="0" width="40" height="33" filterUnits="userSpaceOnUse" color-interpolation-filters="sRGB">
<feFlood flood-opacity="0" result="BackgroundImageFix"/>
<feColorMatrix in="SourceAlpha" type="matrix" values="0 0 0 0 0 0 0 0 0 0 0 0 0 0 0 0 0 0 127 0" result="hardAlpha"/>
<feOffset dy="1"/>
<feComposite in2="hardAlpha" operator="out"/>
<feColorMatrix type="matrix" values="0 0 0 0 0 0 0 0 0 0 0 0 0 0 0 0 0 0 0.1 0"/>
<feBlend mode="normal" in2="BackgroundImageFix" result="effect1_dropShadow_7596_31514"/>
<feBlend mode="normal" in="SourceGraphic" in2="effect1_dropShadow_7596_31514" result="shape"/>
</filter>
</defs>
</svg>
