<svg width="40" height="33" viewBox="0 0 40 33" fill="none" xmlns="http://www.w3.org/2000/svg">
<title>Sort descending (down)</title>
<g filter="url(#filter0_d_7596_31492)">
<path d="M0 16C0 7.16344 7.16344 0 16 0H24C32.8366 0 40 7.16344 40 16V16C40 24.8366 32.8366 32 24 32H16C7.16344 32 0 24.8366 0 16V16Z" fill="white" shape-rendering="crispEdges"/>
<path d="M16 0.5H24C32.5604 0.5 39.5 7.43959 39.5 16C39.5 24.5604 32.5604 31.5 24 31.5H16C7.43959 31.5 0.5 24.5604 0.5 16C0.5 7.43959 7.43959 0.5 16 0.5Z" stroke="#0072C6" shape-rendering="crispEdges"/>
<path fill-rule="evenodd" clip-rule="evenodd" d="M29.5194 9.45896C29.8182 9.74582 29.8279 10.2206 29.541 10.5194L24.501 15.7694C24.3596 15.9167 24.1642 16 23.96 16C23.7558 16 23.5604 15.9167 23.419 15.7694L20.36 12.583L16.735 16.359L19.3177 18.8383L11 21.25L13.0703 12.8408L15.6529 15.3202L19.819 10.9806C19.9604 10.8333 20.1558 10.75 20.36 10.75C20.5642 10.75 20.7596 10.8333 20.901 10.9806L23.96 14.167L28.459 9.4806C28.7458 9.18179 29.2206 9.1721 29.5194 9.45896Z" fill="#212121"/>
</g>
<defs>
<filter id="filter0_d_7596_31492" x="0" y="0" width="40" height="33" filterUnits="userSpaceOnUse" color-interpolation-filters="sRGB">
<feFlood flood-opacity="0" result="BackgroundImageFix"/>
<feColorMatrix in="SourceAlpha" type="matrix" values="0 0 0 0 0 0 0 0 0 0 0 0 0 0 0 0 0 0 127 0" result="hardAlpha"/>
<feOffset dy="1"/>
<feComposite in2="hardAlpha" operator="out"/>
<feColorMatrix type="matrix" values="0 0 0 0 0 0 0 0 0 0 0 0 0 0 0 0 0 0 0.1 0"/>
<feBlend mode="normal" in2="BackgroundImageFix" result="effect1_dropShadow_7596_31492"/>
<feBlend mode="normal" in="SourceGraphic" in2="effect1_dropShadow_7596_31492" result="shape"/>
</filter>
</defs>
</svg>
