<svg xmlns="http://www.w3.org/2000/svg" xmlns:xlink="http://www.w3.org/1999/xlink" width="2000" zoomAndPan="magnify" viewBox="0 0 1500 1499.999933" height="2000" preserveAspectRatio="xMidYMid meet" version="1.0"><path fill="#ffffff" d="M 1041.527344 458.46875 C 1041.527344 458.46875 1041.476562 458.429688 1041.476562 458.429688 C 1012.195312 440.585938 980.699219 427.804688 885.699219 506.015625 C 855.667969 530.738281 819.699219 564.28125 781.652344 602.183594 C 781.652344 602.183594 781.640625 602.167969 781.640625 602.167969 C 781.640625 602.167969 627.550781 512.386719 627.550781 512.386719 C 627.550781 512.386719 465.234375 417.8125 465.234375 417.8125 C 452.863281 430.554688 440.492188 443.300781 428.121094 456.042969 C 514.644531 537.324219 601.167969 618.605469 687.691406 699.882812 C 687.691406 699.882812 687.703125 699.894531 687.703125 699.894531 C 621.132812 771.820312 557.558594 845.992188 516.289062 900.058594 C 510.742188 907.328125 505.613281 914.210938 500.875 920.734375 C 500.875 920.734375 500.859375 920.71875 500.859375 920.71875 C 500.859375 920.71875 426.59375 879.605469 426.59375 879.605469 C 426.59375 879.605469 337.597656 830.335938 337.597656 830.335938 C 330.332031 837.800781 323.070312 845.265625 315.804688 852.730469 C 363.605469 897.382812 411.40625 942.035156 459.207031 986.691406 C 459.207031 986.691406 459.21875 986.703125 459.21875 986.703125 C 450.511719 1013.28125 450.789062 1022.445312 458.242188 1041.304688 C 477.867188 1049.414062 484.46875 1049.964844 513.296875 1040.78125 C 513.296875 1040.78125 513.308594 1040.792969 513.308594 1040.792969 C 557.960938 1088.59375 602.617188 1136.394531 647.269531 1184.195312 C 654.734375 1176.929688 662.199219 1169.667969 669.664062 1162.402344 C 669.664062 1162.402344 620.394531 1073.40625 620.394531 1073.40625 C 620.394531 1073.40625 579.277344 999.140625 579.277344 999.140625 C 579.277344 999.140625 579.265625 999.125 579.265625 999.125 C 585.789062 994.386719 592.671875 989.257812 599.941406 983.707031 C 654.003906 942.441406 728.175781 878.867188 800.101562 812.296875 C 800.101562 812.296875 800.117188 812.308594 800.117188 812.308594 C 881.394531 898.832031 962.675781 985.355469 1043.953125 1071.878906 C 1056.699219 1059.507812 1069.441406 1047.136719 1082.1875 1034.765625 C 1082.1875 1034.765625 987.613281 872.449219 987.613281 872.449219 C 987.613281 872.449219 897.828125 718.359375 897.828125 718.359375 C 897.828125 718.359375 897.816406 718.347656 897.816406 718.347656 C 935.71875 680.300781 969.261719 644.332031 993.984375 614.300781 C 1072.152344 519.351562 1059.425781 487.839844 1041.597656 458.570312 C 1041.597656 458.570312 1041.589844 458.566406 1041.589844 458.566406 C 1041.578125 458.53125 1041.558594 458.5 1041.53125 458.472656 C 1041.53125 458.472656 1041.527344 458.46875 1041.527344 458.46875 " fill-opacity="1" fill-rule="nonzero"/><path fill="#ffffff" d="M 960.371094 805.914062 C 969.464844 796.816406 973.824219 786.429688 970.109375 782.714844 C 970.109375 782.714844 943.03125 755.632812 943.03125 755.632812 C 939.3125 751.917969 928.925781 756.277344 919.832031 765.375 C 919.832031 765.375 917.507812 767.695312 917.507812 767.695312 C 908.414062 776.792969 904.054688 787.179688 907.769531 790.894531 C 907.769531 790.894531 934.847656 817.972656 934.847656 817.972656 C 938.566406 821.691406 948.953125 817.328125 958.046875 808.234375 C 958.046875 808.234375 960.371094 805.914062 960.371094 805.914062 " fill-opacity="1" fill-rule="nonzero"/><path fill="#ffffff" d="M 1020.066406 921.246094 C 1029.164062 912.152344 1033.523438 901.765625 1029.808594 898.046875 C 1029.808594 898.046875 1002.730469 870.96875 1002.730469 870.96875 C 999.011719 867.253906 988.625 871.613281 979.53125 880.710938 C 979.53125 880.710938 977.207031 883.03125 977.207031 883.03125 C 968.113281 892.125 963.75 902.511719 967.46875 906.230469 C 967.46875 906.230469 994.546875 933.308594 994.546875 933.308594 C 998.265625 937.027344 1008.652344 932.664062 1017.746094 923.570312 C 1017.746094 923.570312 1020.066406 921.246094 1020.066406 921.246094 " fill-opacity="1" fill-rule="nonzero"/><path fill="#ffffff" d="M 950.914062 970.507812 C 946.28125 975.140625 940.992188 977.363281 939.097656 975.46875 C 939.097656 975.46875 925.308594 961.675781 925.308594 961.675781 C 923.414062 959.785156 925.636719 954.492188 930.269531 949.859375 C 930.269531 949.859375 931.449219 948.679688 931.449219 948.679688 C 936.082031 944.046875 941.375 941.824219 943.265625 943.71875 C 943.265625 943.71875 957.058594 957.511719 957.058594 957.511719 C 958.953125 959.402344 956.730469 964.695312 952.097656 969.328125 C 952.097656 969.328125 950.914062 970.507812 950.914062 970.507812 " fill-opacity="1" fill-rule="nonzero"/><path fill="#ffffff" d="M 869.023438 879.328125 C 863.949219 884.398438 858.15625 886.832031 856.085938 884.757812 C 856.085938 884.757812 840.984375 869.65625 840.984375 869.65625 C 838.910156 867.585938 841.34375 861.792969 846.414062 856.71875 C 846.414062 856.71875 847.710938 855.425781 847.710938 855.425781 C 852.78125 850.351562 858.574219 847.921875 860.648438 849.992188 C 860.648438 849.992188 875.746094 865.09375 875.746094 865.09375 C 877.820312 867.167969 875.390625 872.960938 870.316406 878.03125 C 870.316406 878.03125 869.023438 879.328125 869.023438 879.328125 " fill-opacity="1" fill-rule="nonzero"/><path fill="#ffffff" d="M 529.492188 549.085938 C 524.859375 553.71875 522.636719 559.007812 524.53125 560.898438 C 524.53125 560.898438 538.320312 574.691406 538.320312 574.691406 C 540.214844 576.585938 545.503906 574.363281 550.136719 569.730469 C 550.136719 569.730469 551.320312 568.550781 551.320312 568.550781 C 555.953125 563.917969 558.175781 558.625 556.28125 556.734375 C 556.28125 556.734375 542.488281 542.941406 542.488281 542.941406 C 540.597656 541.046875 535.304688 543.269531 530.671875 547.902344 C 530.671875 547.902344 529.492188 549.085938 529.492188 549.085938 " fill-opacity="1" fill-rule="nonzero"/><path fill="#ffffff" d="M 578.753906 479.933594 C 587.847656 470.835938 598.234375 466.476562 601.949219 470.191406 C 601.949219 470.191406 629.03125 497.273438 629.03125 497.273438 C 632.746094 500.988281 628.386719 511.375 619.289062 520.46875 C 619.289062 520.46875 616.96875 522.792969 616.96875 522.792969 C 607.875 531.886719 597.488281 536.25 593.769531 532.53125 C 593.769531 532.53125 566.691406 505.453125 566.691406 505.453125 C 562.972656 501.734375 567.335938 491.347656 576.429688 482.253906 C 576.429688 482.253906 578.753906 479.933594 578.753906 479.933594 " fill-opacity="1" fill-rule="nonzero"/><path fill="#ffffff" d="M 620.179688 630.488281 C 615.109375 635.558594 612.675781 641.351562 614.75 643.425781 C 614.75 643.425781 629.851562 658.527344 629.851562 658.527344 C 631.921875 660.597656 637.714844 658.167969 642.789062 653.09375 C 642.789062 653.09375 644.082031 651.800781 644.082031 651.800781 C 649.15625 646.726562 651.585938 640.933594 649.515625 638.863281 C 649.515625 638.863281 634.414062 623.761719 634.414062 623.761719 C 632.339844 621.6875 626.546875 624.121094 621.476562 629.191406 C 621.476562 629.191406 620.179688 630.488281 620.179688 630.488281 " fill-opacity="1" fill-rule="nonzero"/><path fill="#ffffff" d="M 693.597656 539.140625 C 702.695312 530.042969 713.082031 525.683594 716.796875 529.402344 C 716.796875 529.402344 743.875 556.480469 743.875 556.480469 C 747.59375 560.195312 743.230469 570.582031 734.136719 579.679688 C 734.136719 579.679688 731.816406 582 731.816406 582 C 722.71875 591.097656 712.332031 595.457031 708.617188 591.738281 C 708.617188 591.738281 681.535156 564.660156 681.535156 564.660156 C 677.820312 560.945312 682.179688 550.558594 691.277344 541.460938 C 691.277344 541.460938 693.597656 539.140625 693.597656 539.140625 " fill-opacity="1" fill-rule="nonzero"/></svg>