<svg xmlns="http://www.w3.org/2000/svg" xmlns:xlink="http://www.w3.org/1999/xlink" width="2000" zoomAndPan="magnify" viewBox="0 0 1500 1499.999933" height="2000" preserveAspectRatio="xMidYMid meet" version="1.0"><defs><clipPath id="023451021b"><path d="M 392.882812 392.882812 L 1107.117188 392.882812 L 1107.117188 1107.117188 L 392.882812 1107.117188 Z M 392.882812 392.882812 " clip-rule="nonzero"/></clipPath><clipPath id="a59f6d00d5"><path d="M 750 392.882812 C 552.769531 392.882812 392.882812 552.769531 392.882812 750 C 392.882812 947.230469 552.769531 1107.117188 750 1107.117188 C 947.230469 1107.117188 1107.117188 947.230469 1107.117188 750 C 1107.117188 552.769531 947.230469 392.882812 750 392.882812 Z M 750 392.882812 " clip-rule="nonzero"/></clipPath><clipPath id="017a27d604"><path d="M 0.882812 0.882812 L 715.117188 0.882812 L 715.117188 715.117188 L 0.882812 715.117188 Z M 0.882812 0.882812 " clip-rule="nonzero"/></clipPath><clipPath id="0d4a284046"><path d="M 358 0.882812 C 160.769531 0.882812 0.882812 160.769531 0.882812 358 C 0.882812 555.230469 160.769531 715.117188 358 715.117188 C 555.230469 715.117188 715.117188 555.230469 715.117188 358 C 715.117188 160.769531 555.230469 0.882812 358 0.882812 Z M 358 0.882812 " clip-rule="nonzero"/></clipPath><clipPath id="6f92d8f8b9"><rect x="0" width="716" y="0" height="716"/></clipPath></defs><g clip-path="url(#023451021b)"><g clip-path="url(#a59f6d00d5)"><g transform="matrix(1, 0, 0, 1, 392, 392)"><g clip-path="url(#6f92d8f8b9)"><g clip-path="url(#017a27d604)"><g clip-path="url(#0d4a284046)"><path fill="#ac0000" d="M 0.882812 0.882812 L 715.117188 0.882812 L 715.117188 715.117188 L 0.882812 715.117188 Z M 0.882812 0.882812 " fill-opacity="1" fill-rule="nonzero"/></g></g></g></g></g></g><path fill="#ffffff" d="M 895.761719 604.234375 C 895.761719 604.234375 895.738281 604.214844 895.738281 604.214844 C 881.097656 595.292969 865.347656 588.902344 817.847656 628.007812 C 802.832031 640.367188 784.851562 657.140625 765.828125 676.089844 C 765.828125 676.089844 765.820312 676.085938 765.820312 676.085938 C 765.820312 676.085938 688.773438 631.195312 688.773438 631.195312 C 688.773438 631.195312 607.617188 583.90625 607.617188 583.90625 C 601.429688 590.277344 595.246094 596.648438 589.0625 603.023438 C 632.320312 643.660156 675.582031 684.300781 718.84375 724.941406 C 718.84375 724.941406 718.851562 724.949219 718.851562 724.949219 C 685.566406 760.910156 653.777344 797.996094 633.144531 825.027344 C 630.371094 828.664062 627.804688 832.105469 625.4375 835.367188 C 625.4375 835.367188 625.429688 835.359375 625.429688 835.359375 C 625.429688 835.359375 588.296875 814.804688 588.296875 814.804688 C 588.296875 814.804688 543.796875 790.167969 543.796875 790.167969 C 540.167969 793.902344 536.535156 797.632812 532.902344 801.367188 C 556.800781 823.691406 580.703125 846.019531 604.601562 868.34375 C 604.601562 868.34375 604.609375 868.351562 604.609375 868.351562 C 600.253906 881.640625 600.394531 886.222656 604.121094 895.652344 C 613.933594 899.707031 617.234375 899.980469 631.648438 895.390625 C 631.648438 895.390625 631.65625 895.398438 631.65625 895.398438 C 653.980469 919.296875 676.308594 943.195312 698.632812 967.097656 C 702.367188 963.464844 706.097656 959.832031 709.832031 956.203125 C 709.832031 956.203125 685.195312 911.703125 685.195312 911.703125 C 685.195312 911.703125 664.640625 874.570312 664.640625 874.570312 C 664.640625 874.570312 664.632812 874.5625 664.632812 874.5625 C 667.894531 872.191406 671.335938 869.628906 674.96875 866.855469 C 702.003906 846.21875 739.089844 814.433594 775.050781 781.148438 C 775.050781 781.148438 775.058594 781.15625 775.058594 781.15625 C 815.699219 824.417969 856.335938 867.675781 896.976562 910.9375 C 903.347656 904.753906 909.722656 898.566406 916.09375 892.382812 C 916.09375 892.382812 868.804688 811.222656 868.804688 811.222656 C 868.804688 811.222656 823.914062 734.179688 823.914062 734.179688 C 823.914062 734.179688 823.90625 734.171875 823.90625 734.171875 C 842.859375 715.148438 859.628906 697.167969 871.992188 682.148438 C 911.078125 634.675781 904.710938 618.917969 895.796875 604.285156 C 895.789062 604.265625 895.777344 604.25 895.765625 604.234375 C 895.765625 604.234375 895.761719 604.234375 895.761719 604.234375 " fill-opacity="1" fill-rule="nonzero"/><path fill="#ffffff" d="M 855.183594 777.957031 C 859.734375 773.410156 861.914062 768.214844 860.054688 766.355469 C 860.054688 766.355469 846.515625 752.816406 846.515625 752.816406 C 844.65625 750.957031 839.464844 753.140625 834.914062 757.6875 C 834.914062 757.6875 833.753906 758.847656 833.753906 758.847656 C 829.207031 763.394531 827.027344 768.589844 828.886719 770.449219 C 828.886719 770.449219 842.425781 783.988281 842.425781 783.988281 C 844.28125 785.84375 849.476562 783.664062 854.023438 779.117188 C 854.023438 779.117188 855.183594 777.957031 855.183594 777.957031 " fill-opacity="1" fill-rule="nonzero"/><path fill="#ffffff" d="M 885.035156 835.625 C 889.582031 831.074219 891.761719 825.882812 889.902344 824.023438 C 889.902344 824.023438 876.363281 810.484375 876.363281 810.484375 C 874.507812 808.625 869.3125 810.808594 864.765625 815.355469 C 864.765625 815.355469 863.605469 816.515625 863.605469 816.515625 C 859.054688 821.0625 856.875 826.257812 858.734375 828.113281 C 858.734375 828.113281 872.273438 841.65625 872.273438 841.65625 C 874.132812 843.511719 879.324219 841.332031 883.875 836.785156 C 883.875 836.785156 885.035156 835.625 885.035156 835.625 " fill-opacity="1" fill-rule="nonzero"/><path fill="#ffffff" d="M 850.457031 860.253906 C 848.140625 862.570312 845.496094 863.679688 844.550781 862.734375 C 844.550781 862.734375 837.652344 855.839844 837.652344 855.839844 C 836.707031 854.890625 837.816406 852.246094 840.132812 849.929688 C 840.132812 849.929688 840.726562 849.339844 840.726562 849.339844 C 843.042969 847.023438 845.6875 845.914062 846.632812 846.859375 C 846.632812 846.859375 853.527344 853.753906 853.527344 853.753906 C 854.476562 854.703125 853.363281 857.347656 851.050781 859.664062 C 851.050781 859.664062 850.457031 860.253906 850.457031 860.253906 " fill-opacity="1" fill-rule="nonzero"/><path fill="#ffffff" d="M 809.511719 814.664062 C 806.976562 817.199219 804.078125 818.414062 803.042969 817.378906 C 803.042969 817.378906 795.492188 809.828125 795.492188 809.828125 C 794.457031 808.792969 795.671875 805.894531 798.207031 803.359375 C 798.207031 803.359375 798.855469 802.710938 798.855469 802.710938 C 801.390625 800.175781 804.289062 798.960938 805.324219 799.996094 C 805.324219 799.996094 812.875 807.546875 812.875 807.546875 C 813.910156 808.582031 812.695312 811.480469 810.160156 814.015625 C 810.160156 814.015625 809.511719 814.664062 809.511719 814.664062 " fill-opacity="1" fill-rule="nonzero"/><path fill="#ffffff" d="M 639.746094 649.542969 C 637.429688 651.859375 636.320312 654.503906 637.265625 655.449219 C 637.265625 655.449219 644.160156 662.347656 644.160156 662.347656 C 645.109375 663.292969 647.753906 662.183594 650.070312 659.867188 C 650.070312 659.867188 650.660156 659.273438 650.660156 659.273438 C 652.976562 656.957031 654.085938 654.3125 653.140625 653.367188 C 653.140625 653.367188 646.246094 646.46875 646.246094 646.46875 C 645.296875 645.523438 642.652344 646.632812 640.335938 648.949219 C 640.335938 648.949219 639.746094 649.542969 639.746094 649.542969 " fill-opacity="1" fill-rule="nonzero"/><path fill="#ffffff" d="M 664.375 614.964844 C 668.925781 610.417969 674.117188 608.238281 675.976562 610.097656 C 675.976562 610.097656 689.515625 623.636719 689.515625 623.636719 C 691.375 625.492188 689.191406 630.6875 684.644531 635.234375 C 684.644531 635.234375 683.484375 636.394531 683.484375 636.394531 C 678.9375 640.945312 673.742188 643.125 671.886719 641.265625 C 671.886719 641.265625 658.34375 627.726562 658.34375 627.726562 C 656.488281 625.867188 658.667969 620.675781 663.214844 616.125 C 663.214844 616.125 664.375 614.964844 664.375 614.964844 " fill-opacity="1" fill-rule="nonzero"/><path fill="#ffffff" d="M 685.089844 690.242188 C 682.554688 692.78125 681.339844 695.675781 682.375 696.710938 C 682.375 696.710938 689.925781 704.261719 689.925781 704.261719 C 690.960938 705.300781 693.859375 704.082031 696.394531 701.546875 C 696.394531 701.546875 697.042969 700.898438 697.042969 700.898438 C 699.578125 698.363281 700.792969 695.46875 699.757812 694.429688 C 699.757812 694.429688 692.207031 686.878906 692.207031 686.878906 C 691.171875 685.84375 688.273438 687.058594 685.738281 689.597656 C 685.738281 689.597656 685.089844 690.242188 685.089844 690.242188 " fill-opacity="1" fill-rule="nonzero"/><path fill="#ffffff" d="M 721.800781 644.570312 C 726.347656 640.023438 731.539062 637.84375 733.398438 639.699219 C 733.398438 639.699219 746.9375 653.238281 746.9375 653.238281 C 748.796875 655.097656 746.617188 660.292969 742.066406 664.839844 C 742.066406 664.839844 740.90625 666 740.90625 666 C 736.359375 670.546875 731.167969 672.726562 729.308594 670.871094 C 729.308594 670.871094 715.769531 657.332031 715.769531 657.332031 C 713.910156 655.472656 716.089844 650.277344 720.636719 645.730469 C 720.636719 645.730469 721.800781 644.570312 721.800781 644.570312 " fill-opacity="1" fill-rule="nonzero"/></svg>