<svg width="16" height="13" viewBox="0 0 16 13" fill="none" xmlns="http://www.w3.org/2000/svg">
<path d="M9.5 3.5V2C9.5 1.60218 9.3276 1.22064 9.02072 0.93934C8.71384 0.658035 8.29763 0.5 7.86364 0.5H2.13636C1.70237 0.5 1.28616 0.658035 0.97928 0.93934C0.672402 1.22064 0.5 1.60218 0.5 2V11C0.5 11.3978 0.672402 11.7794 0.97928 12.0607C1.28616 12.342 1.70237 12.5 2.13636 12.5H7.86364C8.29763 12.5 8.71384 12.342 9.02072 12.0607C9.3276 11.7794 9.5 11.3978 9.5 11V9.5" stroke="white" stroke-linecap="round" stroke-linejoin="round"/>
<path d="M6.5 6.5H15.5M15.5 6.5L13.25 4.5M15.5 6.5L13.25 8.5" stroke="white" stroke-linecap="round" stroke-linejoin="round"/>
</svg>
