<svg width="17" height="17" viewBox="0 0 17 17" fill="none" xmlns="http://www.w3.org/2000/svg">
<path d="M15.4384 5.19983L10.1167 1.06058C9.64963 0.69726 9.07481 0.5 8.48311 0.5C7.89141 0.5 7.31659 0.69726 6.84957 1.06058L1.52683 5.19983C1.20723 5.44884 0.948624 5.76746 0.77069 6.13145C0.592757 6.49545 0.50018 6.89523 0.5 7.30038V14.4852C0.5 15.0145 0.710269 15.5221 1.08455 15.8964C1.45883 16.2707 1.96646 16.481 2.49578 16.481H14.4704C14.9998 16.481 15.5074 16.2707 15.8817 15.8964C16.256 15.5221 16.4662 15.0145 16.4662 14.4852V7.30038C16.4662 6.47912 16.087 5.70376 15.4384 5.19983Z" stroke="white" stroke-linecap="round" stroke-linejoin="round"/>
<path d="M12.4448 11.4765C10.2394 12.8067 6.66501 12.8067 4.46167 11.4765" stroke="white" stroke-linecap="round" stroke-linejoin="round"/>
</svg>
