<svg width="14" height="16" viewBox="0 0 14 16" fill="none" xmlns="http://www.w3.org/2000/svg">
<path d="M3.64286 2.5H2.07143C1.65466 2.5 1.25496 2.65804 0.960261 2.93934C0.665561 3.22064 0.5 3.60218 0.5 4V13C0.5 13.3978 0.665561 13.7794 0.960261 14.0607C1.25496 14.342 1.65466 14.5 2.07143 14.5H6.54764M11.5 7.75V4C11.5 3.60218 11.3344 3.22064 11.0397 2.93934C10.745 2.65804 10.3453 2.5 9.92857 2.5H8.35714" stroke="white" stroke-linecap="round" stroke-linejoin="round"/>
<path d="M3.5 6.81579H6.57692M3.5 9.97368H5.80769M11.5769 13.5263L13.5 15.5M3.5 2.07895C3.5 1.66018 3.66209 1.25857 3.95061 0.962463C4.23912 0.666353 4.63044 0.5 5.03846 0.5H6.57692C6.98495 0.5 7.37626 0.666353 7.66478 0.962463C7.9533 1.25857 8.11538 1.66018 8.11538 2.07895C8.11538 2.49771 7.9533 2.89932 7.66478 3.19543C7.37626 3.49154 6.98495 3.65789 6.57692 3.65789H5.03846C4.63044 3.65789 4.23912 3.49154 3.95061 3.19543C3.66209 2.89932 3.5 2.49771 3.5 2.07895ZM8.11538 11.9474C8.11538 12.4708 8.31799 12.9728 8.67864 13.343C9.03929 13.7131 9.52843 13.9211 10.0385 13.9211C10.5485 13.9211 11.0376 13.7131 11.3983 13.343C11.7589 12.9728 11.9615 12.4708 11.9615 11.9474C11.9615 11.4239 11.7589 10.9219 11.3983 10.5518C11.0376 10.1816 10.5485 9.97368 10.0385 9.97368C9.52843 9.97368 9.03929 10.1816 8.67864 10.5518C8.31799 10.9219 8.11538 11.4239 8.11538 11.9474Z" stroke="white" stroke-linecap="round" stroke-linejoin="round"/>
</svg>
