<svg width="16" height="13" viewBox="0 0 16 13" fill="none" xmlns="http://www.w3.org/2000/svg">
<path d="M10.9206 11.7224V10.3864C10.9206 9.67773 10.6462 8.9981 10.1576 8.49702C9.66904 7.99593 9.00641 7.71442 8.31548 7.71442H3.10516C2.41423 7.71442 1.7516 7.99593 1.26303 8.49702C0.774471 8.9981 0.5 9.67773 0.5 10.3864V11.7224" stroke="white" stroke-linecap="round" stroke-linejoin="round"/>
<path d="M6.11131 5.30965C7.43942 5.30965 8.51607 4.233 8.51607 2.90488C8.51607 1.57677 7.43942 0.500122 6.11131 0.500122C4.78319 0.500122 3.70654 1.57677 3.70654 2.90488C3.70654 4.233 4.78319 5.30965 6.11131 5.30965Z" stroke="white" stroke-linecap="round" stroke-linejoin="round"/>
<path d="M14.9287 11.7224V10.3568C14.9282 9.75166 14.6917 9.16381 14.2564 8.68555C13.8212 8.20729 13.2118 7.8657 12.5239 7.71442" stroke="white" stroke-linecap="round" stroke-linejoin="round"/>
<path d="M10.1191 0.500122C10.5777 0.636837 10.9842 0.947377 11.2745 1.38278C11.5648 1.81819 11.7223 2.3537 11.7223 2.90488C11.7223 3.45607 11.5648 3.99158 11.2745 4.42698C10.9842 4.86239 10.5777 5.17293 10.1191 5.30965" stroke="white" stroke-linecap="round" stroke-linejoin="round"/>
</svg>
