<svg width="13" height="17" viewBox="0 0 13 17" fill="none" xmlns="http://www.w3.org/2000/svg">
<path d="M3.92857 2.27777H2.21429C1.75963 2.27777 1.32359 2.46507 1.0021 2.79847C0.680612 3.13187 0.5 3.58405 0.5 4.05555V14.7222C0.5 15.1937 0.680612 15.6459 1.0021 15.9793C1.32359 16.3127 1.75963 16.5 2.21429 16.5H10.7857C11.2404 16.5 11.6764 16.3127 11.9979 15.9793C12.3194 15.6459 12.5 15.1937 12.5 14.7222V4.05555C12.5 3.58405 12.3194 3.13187 11.9979 2.79847C11.6764 2.46507 11.2404 2.27777 10.7857 2.27777H9.07143" stroke="white" stroke-linecap="round" stroke-linejoin="round"/>
<path d="M3.92847 12.9444V8.5M6.4999 12.9444V12.0556M9.07132 12.9444V10.2778M3.92847 2.27778C3.92847 1.80628 4.10908 1.3541 4.43057 1.0207C4.75206 0.687301 5.1881 0.5 5.64275 0.5H7.35704C7.81169 0.5 8.24773 0.687301 8.56922 1.0207C8.89071 1.3541 9.07132 1.80628 9.07132 2.27778C9.07132 2.74927 8.89071 3.20146 8.56922 3.53486C8.24773 3.86825 7.81169 4.05556 7.35704 4.05556H5.64275C5.1881 4.05556 4.75206 3.86825 4.43057 3.53486C4.10908 3.20146 3.92847 2.74927 3.92847 2.27778Z" stroke="white" stroke-linecap="round" stroke-linejoin="round"/>
</svg>
