<svg width="21" height="19" viewBox="0 0 21 19" fill="none" xmlns="http://www.w3.org/2000/svg">
<path d="M16.2299 17.375C16.0341 17.7183 15.7505 18.0034 15.4082 18.2011C15.0659 18.3988 14.6772 18.502 14.2819 18.5H6.99892C6.60031 18.4996 6.20918 18.3918 5.8666 18.188C5.52401 17.9843 5.2426 17.692 5.05192 17.342L0.779916 10.592C0.596274 10.2573 0.5 9.88175 0.5 9.5C0.5 9.11825 0.596274 8.74267 0.779916 8.408L5.05192 1.658C5.24334 1.30881 5.52478 1.01725 5.86699 0.813613C6.2092 0.609974 6.5997 0.501686 6.99792 0.5H14.2829C15.0919 0.5 15.8369 0.943 16.2299 1.658L20.2099 8.408C20.3999 8.75254 20.4995 9.13956 20.4995 9.533C20.4995 9.92644 20.3999 10.3135 20.2099 10.658L16.2299 17.408V17.375Z" stroke="white" stroke-linecap="round" stroke-linejoin="round"/>
<path d="M12.5 11.5L14.5 13.5M6.5 9C6.5 9.92826 6.86875 10.8185 7.52513 11.4749C8.1815 12.1313 9.07174 12.5 10 12.5C10.9283 12.5 11.8185 12.1313 12.4749 11.4749C13.1313 10.8185 13.5 9.92826 13.5 9C13.5 8.07174 13.1313 7.1815 12.4749 6.52513C11.8185 5.86875 10.9283 5.5 10 5.5C9.07174 5.5 8.1815 5.86875 7.52513 6.52513C6.86875 7.1815 6.5 8.07174 6.5 9Z" stroke="white" stroke-linecap="round" stroke-linejoin="round"/>
</svg>
