<svg width="15" height="16" viewBox="0 0 15 16" fill="none" xmlns="http://www.w3.org/2000/svg">
<path d="M9.8252 0.5V3.6084C9.8252 3.81449 9.90707 4.01215 10.0528 4.15789C10.1985 4.30362 10.3962 4.38549 10.6023 4.38549H13.7107" stroke="white" stroke-linecap="round" stroke-linejoin="round"/>
<path d="M2.8313 8.27099V2.0542C2.8313 1.642 2.99504 1.24668 3.28651 0.955214C3.57798 0.663745 3.9733 0.5 4.38549 0.5H9.82519L13.7107 4.38549V12.9336C13.7107 13.3458 13.5469 13.7411 13.2555 14.0326C12.964 14.324 12.5687 14.4878 12.1565 14.4878H7.88244M0.5 12.9336H5.93969M5.93969 12.9336L3.6084 10.6023M5.93969 12.9336L3.6084 15.2649" stroke="white" stroke-linecap="round" stroke-linejoin="round"/>
</svg>
