<svg width="17" height="18" viewBox="0 0 17 18" fill="none" xmlns="http://www.w3.org/2000/svg">
<path d="M15.5 6.72222L8.9375 0.5L0.5 8.5H2.375V14.7222C2.375 15.1937 2.57254 15.6459 2.92417 15.9793C3.27581 16.3127 3.75272 16.5 4.25 16.5H9.875" stroke="white" stroke-linecap="round" stroke-linejoin="round"/>
<path d="M6.5 16.6111V11.2778C6.5 10.8063 6.6756 10.3541 6.98816 10.0207C7.30072 9.6873 7.72464 9.5 8.16667 9.5H9.83333C10.1558 9.5 10.4567 9.59778 10.7117 9.76667M16.5 11.2778H14.4167C14.0851 11.2778 13.7672 11.4183 13.5328 11.6683C13.2984 11.9184 13.1667 12.2575 13.1667 12.6111C13.1667 12.9647 13.2984 13.3039 13.5328 13.5539C13.7672 13.804 14.0851 13.9444 14.4167 13.9444H15.25C15.5815 13.9444 15.8995 14.0849 16.1339 14.335C16.3683 14.585 16.5 14.9242 16.5 15.2778C16.5 15.6314 16.3683 15.9705 16.1339 16.2206C15.8995 16.4706 15.5815 16.6111 15.25 16.6111H13.1667M14.8333 16.6111V17.5M14.8333 10.3889V11.2778" stroke="white" stroke-linecap="round" stroke-linejoin="round"/>
</svg>
