<svg width="17" height="17" viewBox="0 0 17 17" fill="none" xmlns="http://www.w3.org/2000/svg">
<path d="M14.749 12.7827C15.2624 12.595 15.7058 12.2541 16.019 11.806C16.3322 11.358 16.5002 10.8245 16.5001 10.2778V3.16668C16.5001 2.45943 16.2191 1.78115 15.719 1.28105C15.2189 0.780953 14.5407 0.5 13.8334 0.5H3.16668C2.45943 0.5 1.78115 0.780953 1.28105 1.28105C0.780953 1.78115 0.5 2.45943 0.5 3.16668V10.2778C0.5 11.4485 1.25556 12.4432 2.30445 12.8023" stroke="white" stroke-linecap="round" stroke-linejoin="round"/>
<path d="M4.94434 15.6112C4.94434 15.1397 5.13164 14.6875 5.46504 14.3541C5.79844 14.0207 6.25062 13.8334 6.72212 13.8334H10.2777C10.7492 13.8334 11.2014 14.0207 11.5348 14.3541C11.8682 14.6875 12.0555 15.1397 12.0555 15.6112M6.72212 9.38893C6.72212 9.86043 6.90943 10.3126 7.24283 10.646C7.57623 10.9794 8.02841 11.1667 8.49991 11.1667C8.97141 11.1667 9.4236 10.9794 9.757 10.646C10.0904 10.3126 10.2777 9.86043 10.2777 9.38893C10.2777 8.91743 10.0904 8.46525 9.757 8.13185C9.4236 7.79845 8.97141 7.61115 8.49991 7.61115C8.02841 7.61115 7.57623 7.79845 7.24283 8.13185C6.90943 8.46525 6.72212 8.91743 6.72212 9.38893Z" stroke="white" stroke-linecap="round" stroke-linejoin="round"/>
</svg>
