<svg width="21" height="17" viewBox="0 0 21 17" fill="none" xmlns="http://www.w3.org/2000/svg">
<path d="M13.8333 0.5V2.78571M13.8333 7.35714V9.64286M13.8333 14.2143V16.5M2.72222 0.5H18.2778C18.8671 0.5 19.4324 0.740816 19.8491 1.16947C20.2659 1.59812 20.5 2.17951 20.5 2.78571V6.21429C19.9106 6.21429 19.3454 6.4551 18.9287 6.88376C18.5119 7.31241 18.2778 7.89379 18.2778 8.5C18.2778 9.10621 18.5119 9.68759 18.9287 10.1162C19.3454 10.5449 19.9106 10.7857 20.5 10.7857V14.2143C20.5 14.8205 20.2659 15.4019 19.8491 15.8305C19.4324 16.2592 18.8671 16.5 18.2778 16.5H2.72222C2.13285 16.5 1.56762 16.2592 1.15087 15.8305C0.734126 15.4019 0.5 14.8205 0.5 14.2143V10.7857C1.08937 10.7857 1.6546 10.5449 2.07135 10.1162C2.4881 9.68759 2.72222 9.10621 2.72222 8.5C2.72222 7.89379 2.4881 7.31241 2.07135 6.88376C1.6546 6.4551 1.08937 6.21429 0.5 6.21429V2.78571C0.5 2.17951 0.734126 1.59812 1.15087 1.16947C1.56762 0.740816 2.13285 0.5 2.72222 0.5Z" stroke="white" stroke-linecap="round" stroke-linejoin="round"/>
</svg>
