<svg width="17" height="17" viewBox="0 0 17 17" fill="none" xmlns="http://www.w3.org/2000/svg">
<path d="M7.01111 1.67067C7.38978 0.109778 9.61022 0.109778 9.98889 1.67067C10.0457 1.90515 10.1571 2.12291 10.314 2.30622C10.4708 2.48953 10.6688 2.6332 10.8917 2.72555C11.1146 2.8179 11.3561 2.85631 11.5967 2.83766C11.8372 2.81901 12.07 2.74382 12.276 2.61822C13.6476 1.78267 15.2182 3.35244 14.3827 4.72489C14.2572 4.9308 14.1822 5.16341 14.1636 5.4038C14.145 5.64419 14.1833 5.88557 14.2756 6.10834C14.3678 6.3311 14.5113 6.52896 14.6944 6.68582C14.8775 6.84269 15.0951 6.95414 15.3293 7.01111C16.8902 7.38978 16.8902 9.61022 15.3293 9.98889C15.0948 10.0457 14.8771 10.1571 14.6938 10.314C14.5105 10.4708 14.3668 10.6688 14.2744 10.8917C14.1821 11.1146 14.1437 11.3561 14.1623 11.5967C14.181 11.8372 14.2562 12.07 14.3818 12.276C15.2173 13.6476 13.6476 15.2182 12.2751 14.3827C12.0692 14.2572 11.8366 14.1822 11.5962 14.1636C11.3558 14.145 11.1144 14.1833 10.8917 14.2756C10.6689 14.3678 10.471 14.5113 10.3142 14.6944C10.1573 14.8775 10.0459 15.0951 9.98889 15.3293C9.61022 16.8902 7.38978 16.8902 7.01111 15.3293C6.9543 15.0948 6.84291 14.8771 6.68604 14.6938C6.52916 14.5105 6.33121 14.3668 6.10831 14.2744C5.88541 14.1821 5.64385 14.1437 5.4033 14.1623C5.16275 14.181 4.93 14.2562 4.724 14.3818C3.35244 15.2173 1.78178 13.6476 2.61733 12.2751C2.74276 12.0692 2.81782 11.8366 2.83643 11.5962C2.85504 11.3558 2.81666 11.1144 2.72442 10.8917C2.63218 10.6689 2.48868 10.471 2.30558 10.3142C2.12248 10.1573 1.90495 10.0459 1.67067 9.98889C0.109778 9.61022 0.109778 7.38978 1.67067 7.01111C1.90515 6.9543 2.12291 6.84291 2.30622 6.68604C2.48953 6.52916 2.6332 6.33121 2.72555 6.10831C2.8179 5.88541 2.85631 5.64385 2.83766 5.4033C2.81901 5.16275 2.74382 4.93 2.61822 4.724C1.78267 3.35244 3.35244 1.78178 4.72489 2.61733C5.61378 3.15778 6.76578 2.67956 7.01111 1.67067Z" stroke="white" stroke-linecap="round" stroke-linejoin="round"/>
<path d="M5.83325 8.50001C5.83325 9.20725 6.1142 9.88553 6.6143 10.3856C7.1144 10.8857 7.79267 11.1667 8.49992 11.1667C9.20716 11.1667 9.88544 10.8857 10.3855 10.3856C10.8856 9.88553 11.1666 9.20725 11.1666 8.50001C11.1666 7.79277 10.8856 7.11449 10.3855 6.61439C9.88544 6.11429 9.20716 5.83334 8.49992 5.83334C7.79267 5.83334 7.1144 6.11429 6.6143 6.61439C6.1142 7.11449 5.83325 7.79277 5.83325 8.50001Z" stroke="white" stroke-linecap="round" stroke-linejoin="round"/>
</svg>
