<svg width="1280" height="832" viewBox="0 0 1280 832" fill="none" xmlns="http://www.w3.org/2000/svg">
<rect width="1280" height="832" fill="#FAFBFC"/>
<g clip-path="url(#clip0_6506_2647)">
<path d="M936.768 240.368H929.829V237.763C929.829 236.237 928.585 235 927.052 235H910.319C908.784 235 907.542 236.237 907.542 237.763V240.368H900.604C897.079 240.368 894.221 243.211 894.221 246.715V290.82C894.221 291.204 894.256 291.581 894.323 291.95C894.856 294.915 897.466 297.167 900.604 297.167H906.498V298.551C906.498 299.508 907.278 300.283 908.239 300.283H909.806C910.768 300.283 911.548 299.508 911.548 298.551V297.167H925.827V298.551C925.827 299.508 926.607 300.283 927.568 300.283H929.135C930.097 300.283 930.877 299.508 930.877 298.551V297.167H936.771C940.295 297.167 943.153 294.324 943.153 290.82V246.715C943.153 243.211 940.295 240.368 936.771 240.368H936.768ZM908.935 237.763C908.935 237.003 909.555 236.386 910.319 236.386H927.052C927.816 236.386 928.437 237.003 928.437 237.763V240.368H908.935V237.763ZM915.114 258.044C916.56 258.619 919.391 259.784 921.617 260.706C919.143 261.75 916.683 262.888 914.349 264.024L907.655 259.424C907.655 259.424 912.511 257.01 915.113 258.046L915.114 258.044ZM904.901 270.167C904.901 270.167 909.93 267.136 916.069 264.177C917.873 263.307 919.771 262.445 921.666 261.667C928.344 258.924 934.98 257.232 937.23 260.028C937.496 260.356 937.698 260.745 937.833 261.2L905.652 275.52C905.652 275.52 901.787 273.527 900.067 270.099C899.765 269.5 899.53 268.857 899.392 268.173C898.891 265.683 904.901 270.167 904.901 270.167ZM942.278 290.82C942.278 293.842 939.805 296.3 936.768 296.3H926.362C926.187 296.151 926.008 296.008 925.823 295.87V296.3H900.602C897.93 296.3 895.648 294.406 895.178 291.795C895.142 291.588 895.116 291.378 895.103 291.169C897.174 289.291 899.929 288.145 902.952 288.145C905.42 288.145 907.705 288.908 909.587 290.209C910.616 289.872 911.714 289.685 912.855 289.685C915.038 289.685 917.061 290.354 918.733 291.5C919.276 287.273 922.907 284.007 927.304 284.007C927.495 284.007 927.686 284.015 927.874 284.028C929.94 280.79 933.577 278.637 937.719 278.637C939.337 278.637 940.878 278.965 942.278 279.559V290.82Z" fill="#0072C6"/>
<path d="M855.529 326.149V329.999H852V316.603H857.062C860.147 316.603 862.667 318.427 862.667 321.336C862.667 323.722 860.791 326.149 857.062 326.149H855.529ZM855.529 319.089V323.662H856.637C858.31 323.662 859.138 322.519 859.138 321.377C859.138 320.234 858.291 319.091 856.637 319.091H855.529V319.089Z" fill="black"/>
<path d="M863.796 329.999V319.972H866.942L867.325 321.155C868.071 320.233 868.959 319.772 870.309 319.772C870.792 319.772 871.197 319.833 871.579 319.953L871.075 323.301C870.389 322.86 869.723 322.459 868.977 322.459C868.432 322.459 867.807 322.72 867.324 323.422V329.999H863.795H863.796Z" fill="black"/>
<path d="M882.59 327.513C881.803 329.157 880.13 330.199 877.61 330.199C873.941 330.199 872.104 327.993 872.104 324.985C872.104 321.978 873.939 319.771 877.61 319.771C881.281 319.771 882.712 321.978 882.712 324.985V325.787H875.372C875.594 326.81 876.26 327.492 877.61 327.492C878.699 327.492 879.344 327.05 879.667 326.349L882.59 327.511V327.513ZM877.811 322.479C876.783 322.479 876.077 322.88 875.673 323.521H879.484C879.484 322.88 878.718 322.479 877.811 322.479Z" fill="black"/>
<path d="M891.161 330L890.212 328.595C889.305 330 887.873 330.199 887.128 330.199C885.433 330.199 883.437 328.634 883.437 324.985C883.437 321.336 885.554 319.771 887.47 319.771C888.216 319.771 889.365 319.973 890.193 321.094V316.161H893.722V329.998H891.161V330ZM888.58 322.5C887.571 322.5 887.007 323.743 886.968 324.987C886.927 326.23 887.39 327.474 888.399 327.474C889.205 327.474 890.012 326.651 890.012 324.987C890.012 323.323 889.387 322.5 888.58 322.5Z" fill="black"/>
<path d="M905.134 327.513C904.348 329.157 902.675 330.199 900.154 330.199C896.485 330.199 894.649 327.993 894.649 324.985C894.649 321.978 896.484 319.771 900.154 319.771C903.825 319.771 905.257 321.978 905.257 324.985V325.787H897.917C898.139 326.81 898.805 327.492 900.154 327.492C901.243 327.492 901.888 327.05 902.211 326.349L905.134 327.511V327.513ZM900.355 322.479C899.327 322.479 898.622 322.88 898.217 323.521H902.028C902.028 322.88 901.263 322.479 900.355 322.479Z" fill="black"/>
<path d="M910.962 319.771C912.837 319.771 914.592 320.374 915.379 321.176L913.18 323.422C912.777 322.74 911.447 322.359 910.498 322.359C909.914 322.359 909.47 322.539 909.47 322.861C909.47 324.284 915.601 323.382 915.601 326.992C915.601 329.359 913.04 330.201 910.761 330.201C908.886 330.201 906.566 329.599 905.781 328.797L907.98 326.55C908.463 327.172 909.773 327.472 910.843 327.472C911.709 327.472 912.436 327.292 912.436 326.951C912.436 325.727 906.305 326.289 906.305 322.981C906.305 320.614 908.685 319.771 910.963 319.771H910.962Z" fill="black"/>
<path d="M921.286 330.201C919.087 330.201 917.091 328.857 917.091 325.849V322.68H916.123V319.973H917.453C918.904 319.812 918.522 318.569 919.329 317.445H920.62V319.973H922.495V322.68H920.62V325.929C920.62 326.75 921.225 326.992 921.85 326.992C922.032 326.992 922.213 326.972 922.396 326.932L922.799 330C922.516 330.079 921.932 330.201 921.286 330.201Z" fill="black"/>
<path d="M927.457 316.002H923.928V318.87H927.457V316.002Z" fill="#0072C6"/>
<path d="M927.457 319.973H923.928V330H927.457V319.973Z" fill="black"/>
<path d="M928.788 329.999V319.972H931.933L932.316 321.155C933.062 320.233 933.95 319.772 935.3 319.772C937.74 319.772 938.446 321.678 938.446 323.663V330.001H934.917V323.925C934.917 322.802 934.371 322.48 933.768 322.48C933.244 322.48 932.739 322.821 932.315 323.423V330.001H928.786L928.788 329.999Z" fill="black"/>
<path d="M943.186 323.582C944.093 323.582 945.001 323.844 945.686 324.344V324.163C945.686 322.92 944.638 322.418 943.488 322.418C942.459 322.418 941.33 322.819 940.745 323.422L939.435 320.694C940.584 320.113 942.097 319.772 943.569 319.772C946.432 319.772 949.215 321.076 949.215 324.485V329.999H946.654L946.029 329.077C945.324 329.819 944.255 330.2 943.186 330.2C941.291 330.2 939.374 329.077 939.374 326.811C939.374 324.665 941.291 323.582 943.186 323.582ZM945.464 326.59C945.464 326.189 944.919 325.767 944.255 325.767C943.429 325.767 942.924 326.188 942.924 326.629C942.924 327.071 943.448 327.472 944.255 327.472C944.94 327.472 945.464 327.03 945.464 326.589V326.59Z" fill="black"/>
<path d="M955.305 330.201C953.106 330.201 951.11 328.857 951.11 325.849V322.68H950.142V319.973H951.473C952.924 319.812 952.542 318.569 953.348 317.445H954.639V319.973H956.515V322.68H954.639V325.929C954.639 326.75 955.245 326.992 955.87 326.992C956.051 326.992 956.232 326.972 956.415 326.932L956.818 330C956.536 330.079 955.952 330.201 955.305 330.201Z" fill="black"/>
<path d="M961.475 316.002H957.946V318.87H961.475V316.002Z" fill="#0072C6"/>
<path d="M961.475 319.973H957.946V330H961.475V319.973Z" fill="black"/>
<path d="M967.908 319.771C971.579 319.771 973.413 321.978 973.413 324.985C973.413 327.993 971.579 330.199 967.908 330.199C964.237 330.199 962.402 327.993 962.402 324.985C962.402 321.978 964.237 319.771 967.908 319.771ZM967.908 327.492C969.581 327.492 970.227 326.429 970.227 324.985C970.227 323.542 969.582 322.479 967.908 322.479C966.233 322.479 965.588 323.542 965.588 324.985C965.588 326.429 966.233 327.492 967.908 327.492Z" fill="black"/>
<path d="M974.34 329.999V319.972H977.486L977.869 321.155C978.615 320.233 979.503 319.772 980.853 319.772C983.293 319.772 983.998 321.678 983.998 323.663V330.001H980.469V323.925C980.469 322.802 979.924 322.48 979.32 322.48C978.796 322.48 978.292 322.821 977.868 323.423V330.001H974.339L974.34 329.999Z" fill="black"/>
<path d="M883.565 335.805V336.253H881.234V342.533H880.675V336.253H878.389V335.805H883.565Z" fill="black"/>
<path d="M887.861 339.97C887.861 340.39 887.804 340.765 887.689 341.096C887.575 341.428 887.415 341.705 887.211 341.929C887.007 342.153 886.769 342.324 886.496 342.442C886.224 342.559 885.926 342.619 885.605 342.619C885.283 342.619 884.994 342.564 884.719 342.453C884.443 342.343 884.204 342.181 884.004 341.968C883.803 341.754 883.646 341.489 883.532 341.173C883.418 340.856 883.361 340.491 883.361 340.079C883.361 339.666 883.419 339.285 883.539 338.957C883.656 338.629 883.819 338.353 884.027 338.129C884.234 337.905 884.477 337.736 884.756 337.623C885.035 337.509 885.332 337.452 885.647 337.452C885.962 337.452 886.256 337.506 886.529 337.613C886.801 337.72 887.035 337.879 887.232 338.093C887.43 338.308 887.583 338.571 887.694 338.884C887.805 339.197 887.861 339.561 887.861 339.973V339.97ZM887.281 340.023C887.281 339.653 887.234 339.335 887.141 339.067C887.048 338.801 886.924 338.58 886.77 338.405C886.617 338.231 886.439 338.103 886.238 338.02C886.037 337.939 885.83 337.897 885.615 337.897C885.399 337.897 885.192 337.938 884.991 338.02C884.79 338.101 884.611 338.23 884.454 338.405C884.296 338.58 884.172 338.799 884.079 339.067C883.986 339.334 883.938 339.653 883.938 340.023C883.938 340.415 883.987 340.746 884.084 341.017C884.18 341.288 884.307 341.509 884.466 341.679C884.622 341.85 884.804 341.975 885.008 342.053C885.212 342.13 885.42 342.169 885.636 342.169C885.851 342.169 886.057 342.132 886.253 342.057C886.45 341.983 886.625 341.859 886.779 341.689C886.932 341.518 887.054 341.296 887.144 341.022C887.234 340.747 887.278 340.415 887.278 340.023H887.281Z" fill="black"/>
<path d="M892.511 337.512H893.069V342.531H892.673L892.586 341.901H892.565C892.393 342.086 892.163 342.252 891.878 342.398C891.592 342.544 891.254 342.617 890.869 342.617C890.347 342.617 889.925 342.476 889.607 342.195C889.289 341.914 889.129 341.474 889.129 340.875V337.51H889.687V340.757C889.687 341.034 889.72 341.265 889.783 341.445C889.847 341.625 889.937 341.771 890.051 341.877C890.165 341.984 890.304 342.059 890.464 342.101C890.626 342.143 890.799 342.164 890.985 342.164C891.306 342.164 891.605 342.089 891.881 341.94C892.157 341.791 892.366 341.612 892.509 341.406V337.507L892.511 337.512Z" fill="black"/>
<path d="M894.68 342.533V337.514H895.046L895.175 338.518C895.297 338.199 895.504 337.94 895.798 337.744C896.092 337.548 896.422 337.45 896.786 337.45C896.957 337.45 897.107 337.465 897.236 337.492C897.365 337.522 897.465 337.552 897.537 337.588L897.429 338.08C897.342 338.044 897.246 338.012 897.138 337.984C897.031 337.957 896.905 337.942 896.763 337.942C896.556 337.942 896.36 337.978 896.177 338.049C895.994 338.121 895.832 338.231 895.694 338.38C895.553 338.53 895.442 338.716 895.361 338.94C895.278 339.164 895.237 339.431 895.237 339.736V342.534H894.678L894.68 342.533Z" fill="black"/>
<path d="M901.092 338.143C900.734 337.979 900.344 337.898 899.921 337.898C899.534 337.898 899.244 337.978 899.051 338.138C898.859 338.299 898.761 338.504 898.761 338.752C898.761 339 898.842 339.192 899.007 339.323C899.172 339.455 899.463 339.582 899.877 339.703L900.199 339.799C900.607 339.921 900.919 340.098 901.132 340.333C901.348 340.569 901.454 340.856 901.454 341.198C901.454 341.398 901.415 341.585 901.336 341.758C901.258 341.934 901.144 342.085 900.992 342.213C900.842 342.341 900.654 342.44 900.429 342.512C900.204 342.583 899.944 342.619 899.65 342.619C899.329 342.619 899.045 342.593 898.801 342.539C898.558 342.486 898.343 342.416 898.157 342.331L898.307 341.893C898.493 341.986 898.686 342.055 898.886 342.101C899.087 342.148 899.324 342.171 899.595 342.171C900.003 342.171 900.318 342.093 900.54 341.935C900.762 341.779 900.873 341.554 900.873 341.263C900.873 341.036 900.793 340.838 900.631 340.671C900.47 340.504 900.186 340.356 899.778 340.228L899.433 340.12C898.596 339.858 898.176 339.419 898.176 338.807C898.176 338.608 898.217 338.424 898.3 338.257C898.382 338.09 898.498 337.947 898.645 337.83C898.792 337.713 898.966 337.621 899.17 337.552C899.374 337.484 899.601 337.45 899.853 337.45C900.081 337.45 900.318 337.468 900.561 337.504C900.804 337.539 901.026 337.608 901.227 337.707L901.087 338.145L901.092 338.143Z" fill="black"/>
<path d="M904.882 337.951C905.218 337.772 905.528 337.644 905.81 337.566C906.093 337.488 906.396 337.449 906.718 337.449C906.946 337.449 907.164 337.482 907.368 337.545C907.572 337.608 907.751 337.712 907.905 337.855C908.058 337.998 908.18 338.185 908.27 338.415C908.36 338.647 908.404 338.93 908.404 339.264V342.532H908.017L907.9 341.869H907.878C907.671 342.119 907.428 342.306 907.149 342.429C906.87 342.554 906.558 342.616 906.215 342.616C905.979 342.616 905.76 342.582 905.561 342.514C905.36 342.446 905.187 342.348 905.04 342.22C904.893 342.092 904.779 341.938 904.696 341.756C904.614 341.574 904.572 341.373 904.572 341.152C904.572 340.889 904.625 340.657 904.733 340.457C904.841 340.257 904.991 340.092 905.184 339.96C905.376 339.829 905.608 339.732 905.876 339.667C906.143 339.603 906.444 339.571 906.772 339.571H907.846V339.24C907.846 338.756 907.738 338.41 907.524 338.204C907.309 337.998 907.03 337.894 906.687 337.894C906.48 337.894 906.24 337.926 905.967 337.99C905.695 338.053 905.406 338.172 905.097 338.342L904.882 337.948V337.951ZM907.846 340.012L906.955 340.024C906.633 340.03 906.357 340.064 906.127 340.126C905.899 340.186 905.709 340.266 905.564 340.361C905.417 340.457 905.311 340.571 905.247 340.704C905.184 340.835 905.151 340.977 905.151 341.126C905.151 341.311 905.184 341.47 905.247 341.602C905.311 341.733 905.397 341.842 905.505 341.928C905.613 342.014 905.74 342.076 905.887 342.115C906.034 342.153 906.189 342.173 906.354 342.173C906.483 342.173 906.615 342.157 906.751 342.124C906.886 342.092 907.022 342.043 907.154 341.975C907.286 341.907 907.413 341.822 907.536 341.718C907.658 341.616 907.761 341.49 907.847 341.339V340.014L907.846 340.012Z" fill="black"/>
<path d="M910.488 342.533H909.93V337.514H910.338L910.425 338.208C910.668 337.981 910.931 337.798 911.215 337.658C911.497 337.518 911.817 337.45 912.176 337.45C912.692 337.45 913.095 337.593 913.384 337.877C913.675 338.161 913.818 338.561 913.818 339.073V342.534H913.26V339.213C913.26 339.028 913.24 338.856 913.201 338.695C913.162 338.535 913.093 338.397 912.997 338.278C912.901 338.161 912.772 338.069 912.61 338C912.449 337.932 912.251 337.9 912.015 337.9C911.742 337.9 911.473 337.97 911.203 338.108C910.936 338.247 910.697 338.434 910.488 338.668V342.534V342.533Z" fill="black"/>
<path d="M918.746 334.949H919.304V342.531H918.854L918.779 342.06H918.758C918.607 342.224 918.418 342.358 918.188 342.461C917.959 342.564 917.662 342.616 917.297 342.616C917.024 342.616 916.758 342.564 916.497 342.461C916.236 342.358 915.999 342.2 915.788 341.986C915.578 341.772 915.407 341.504 915.278 341.179C915.149 340.856 915.085 340.473 915.085 340.031C915.085 339.64 915.137 339.283 915.24 338.963C915.344 338.643 915.496 338.371 915.697 338.147C915.898 337.923 916.139 337.751 916.422 337.629C916.704 337.507 917.024 337.447 917.383 337.447C917.927 337.447 918.382 337.608 918.748 337.928V334.947L918.746 334.949ZM918.746 338.494C918.602 338.309 918.413 338.163 918.176 338.056C917.94 337.949 917.708 337.895 917.478 337.895C917.248 337.895 917.014 337.932 916.796 338.007C916.577 338.082 916.384 338.202 916.216 338.364C916.048 338.528 915.914 338.746 915.813 339.015C915.713 339.286 915.663 339.613 915.663 339.997C915.663 340.382 915.713 340.733 915.813 341.007C915.913 341.281 916.048 341.504 916.216 341.674C916.384 341.845 916.575 341.97 916.791 342.047C917.006 342.125 917.228 342.164 917.457 342.164C917.765 342.164 918.028 342.108 918.247 341.994C918.465 341.88 918.632 341.737 918.746 341.567V338.491V338.494Z" fill="black"/>
<path d="M923.15 342.533V335.805H923.708V338.827H927.348V335.805H927.906V342.533H927.348V339.275H923.708V342.533H923.15Z" fill="black"/>
<path d="M933.717 339.97C933.717 340.39 933.66 340.765 933.546 341.096C933.431 341.428 933.271 341.705 933.067 341.929C932.863 342.153 932.625 342.324 932.353 342.442C932.08 342.559 931.783 342.619 931.461 342.619C931.14 342.619 930.851 342.564 930.575 342.453C930.299 342.343 930.061 342.181 929.86 341.968C929.659 341.754 929.503 341.489 929.387 341.173C929.272 340.856 929.215 340.491 929.215 340.079C929.215 339.666 929.274 339.285 929.393 338.957C929.511 338.629 929.674 338.353 929.881 338.129C930.089 337.905 930.332 337.736 930.611 337.623C930.89 337.509 931.187 337.452 931.502 337.452C931.817 337.452 932.111 337.506 932.382 337.613C932.654 337.72 932.888 337.879 933.085 338.093C933.283 338.308 933.436 338.571 933.547 338.884C933.658 339.197 933.714 339.561 933.714 339.973L933.717 339.97ZM933.138 340.023C933.138 339.653 933.09 339.335 932.997 339.067C932.904 338.801 932.78 338.58 932.627 338.405C932.473 338.231 932.295 338.103 932.095 338.02C931.894 337.939 931.687 337.897 931.471 337.897C931.256 337.897 931.048 337.938 930.848 338.02C930.647 338.101 930.467 338.23 930.311 338.405C930.152 338.58 930.028 338.799 929.935 339.067C929.842 339.334 929.795 339.653 929.795 340.023C929.795 340.415 929.844 340.746 929.94 341.017C930.036 341.288 930.164 341.509 930.322 341.679C930.479 341.85 930.66 341.975 930.864 342.053C931.068 342.13 931.277 342.169 931.492 342.169C931.708 342.169 931.913 342.132 932.109 342.057C932.307 341.983 932.481 341.859 932.635 341.689C932.788 341.518 932.911 341.296 933.001 341.022C933.09 340.747 933.134 340.415 933.134 340.023H933.138Z" fill="black"/>
<path d="M935.028 342.533V334.95H935.586V342.533H935.028Z" fill="black"/>
<path d="M937.594 336.22C937.479 336.22 937.38 336.182 937.298 336.108C937.217 336.033 937.174 335.927 937.174 335.793C937.174 335.65 937.213 335.54 937.292 335.462C937.37 335.384 937.466 335.345 937.582 335.345C937.69 335.345 937.785 335.382 937.866 335.457C937.948 335.531 937.99 335.643 937.99 335.793C937.99 335.942 937.951 336.043 937.873 336.113C937.794 336.184 937.701 336.22 937.594 336.22ZM937.303 342.533V337.513H937.861V342.533H937.303Z" fill="black"/>
<path d="M942.835 334.949H943.393V342.531H942.942L942.867 342.06H942.846C942.696 342.224 942.507 342.358 942.276 342.461C942.048 342.564 941.751 342.616 941.385 342.616C941.113 342.616 940.847 342.564 940.585 342.461C940.324 342.358 940.088 342.2 939.877 341.986C939.667 341.772 939.495 341.504 939.366 341.179C939.237 340.856 939.174 340.473 939.174 340.031C939.174 339.64 939.226 339.283 939.329 338.963C939.433 338.643 939.585 338.371 939.786 338.147C939.986 337.923 940.228 337.751 940.51 337.629C940.793 337.507 941.113 337.447 941.472 337.447C942.015 337.447 942.471 337.608 942.836 337.928V334.947L942.835 334.949ZM942.835 338.494C942.691 338.309 942.502 338.163 942.265 338.056C942.028 337.949 941.797 337.895 941.566 337.895C941.336 337.895 941.103 337.932 940.884 338.007C940.665 338.082 940.473 338.202 940.305 338.364C940.137 338.528 940.003 338.746 939.902 339.015C939.802 339.286 939.751 339.613 939.751 339.997C939.751 340.382 939.802 340.733 939.902 341.007C940.001 341.281 940.137 341.504 940.305 341.674C940.473 341.845 940.664 341.97 940.879 342.047C941.095 342.125 941.315 342.164 941.545 342.164C941.854 342.164 942.117 342.108 942.335 341.994C942.554 341.88 942.72 341.737 942.835 341.567V338.491V338.494Z" fill="black"/>
<path d="M944.821 337.951C945.157 337.772 945.468 337.644 945.75 337.566C946.032 337.488 946.336 337.449 946.657 337.449C946.886 337.449 947.103 337.482 947.307 337.545C947.511 337.608 947.691 337.712 947.844 337.855C947.998 337.998 948.12 338.185 948.21 338.415C948.3 338.647 948.344 338.93 948.344 339.264V342.532H947.957L947.839 341.869H947.818C947.611 342.119 947.367 342.306 947.088 342.429C946.809 342.554 946.498 342.616 946.155 342.616C945.918 342.616 945.699 342.582 945.5 342.514C945.299 342.446 945.126 342.348 944.98 342.22C944.833 342.092 944.718 341.938 944.637 341.756C944.555 341.574 944.513 341.373 944.513 341.152C944.513 340.889 944.567 340.657 944.674 340.457C944.782 340.257 944.932 340.092 945.125 339.96C945.317 339.829 945.549 339.732 945.817 339.667C946.085 339.603 946.385 339.571 946.713 339.571H947.787V339.24C947.787 338.756 947.679 338.41 947.465 338.204C947.25 337.998 946.971 337.894 946.628 337.894C946.421 337.894 946.181 337.926 945.908 337.99C945.636 338.053 945.347 338.172 945.038 338.342L944.823 337.948L944.821 337.951ZM947.785 340.012L946.894 340.024C946.573 340.03 946.297 340.064 946.067 340.126C945.838 340.186 945.649 340.266 945.503 340.361C945.357 340.457 945.25 340.571 945.187 340.704C945.123 340.835 945.091 340.977 945.091 341.126C945.091 341.311 945.123 341.47 945.187 341.602C945.25 341.733 945.337 341.842 945.445 341.928C945.552 342.014 945.68 342.076 945.827 342.115C945.974 342.153 946.129 342.173 946.293 342.173C946.422 342.173 946.555 342.157 946.69 342.124C946.826 342.092 946.959 342.043 947.093 341.975C947.225 341.907 947.353 341.822 947.475 341.718C947.596 341.616 947.7 341.49 947.787 341.339V340.014L947.785 340.012Z" fill="black"/>
<path d="M949.16 337.512H949.739L951.05 340.844L951.437 341.976H951.458L951.791 340.844L952.973 337.512H953.51L951.566 342.959C951.373 343.5 951.125 343.935 950.825 344.263C950.524 344.591 950.162 344.836 949.739 345L949.514 344.594C949.88 344.445 950.19 344.239 950.448 343.974C950.706 343.711 950.921 343.326 951.092 342.82L951.189 342.531L949.158 337.512H949.16Z" fill="black"/>
<path d="M957.022 338.143C956.665 337.979 956.275 337.898 955.852 337.898C955.465 337.898 955.174 337.978 954.982 338.138C954.789 338.299 954.691 338.504 954.691 338.752C954.691 339 954.773 339.192 954.938 339.323C955.103 339.455 955.392 339.582 955.808 339.703L956.129 339.799C956.537 339.921 956.849 340.098 957.063 340.333C957.277 340.569 957.385 340.856 957.385 341.198C957.385 341.398 957.345 341.585 957.267 341.758C957.189 341.934 957.074 342.085 956.923 342.213C956.772 342.341 956.585 342.44 956.359 342.512C956.134 342.583 955.875 342.619 955.581 342.619C955.259 342.619 954.975 342.593 954.732 342.539C954.489 342.486 954.273 342.416 954.087 342.331L954.238 341.893C954.424 341.986 954.616 342.055 954.817 342.101C955.018 342.148 955.253 342.171 955.525 342.171C955.933 342.171 956.248 342.093 956.47 341.935C956.692 341.779 956.803 341.554 956.803 341.263C956.803 341.036 956.723 340.838 956.562 340.671C956.4 340.504 956.116 340.356 955.708 340.228L955.364 340.12C954.526 339.858 954.107 339.419 954.107 338.807C954.107 338.608 954.148 338.424 954.231 338.257C954.313 338.09 954.429 337.947 954.575 337.83C954.722 337.713 954.897 337.621 955.101 337.552C955.305 337.484 955.532 337.45 955.783 337.45C956.012 337.45 956.248 337.468 956.492 337.504C956.735 337.539 956.957 337.608 957.158 337.707L957.017 338.145L957.022 338.143Z" fill="black"/>
</g>
<rect x="668.5" y="369.5" width="499" height="57" rx="3.5" fill="#F3FAFF"/>
<rect x="668.5" y="369.5" width="499" height="57" rx="3.5" stroke="#CBE9FF"/>
<path d="M689.424 393V381.8H696.16V383.24H690.992V386.568H695.648V387.976H690.992V391.56H696.192V393H689.424ZM698.509 393V385H699.933L699.997 386.104C700.253 385.677 700.573 385.357 700.957 385.144C701.341 384.92 701.784 384.808 702.285 384.808C702.925 384.808 703.469 384.957 703.917 385.256C704.365 385.544 704.69 385.987 704.893 386.584C705.128 386.008 705.458 385.571 705.885 385.272C706.312 384.963 706.818 384.808 707.405 384.808C708.312 384.808 709.021 385.107 709.533 385.704C710.045 386.291 710.296 387.197 710.285 388.424V393H708.781V388.904C708.781 388.179 708.701 387.629 708.541 387.256C708.392 386.872 708.189 386.605 707.933 386.456C707.677 386.307 707.378 386.227 707.037 386.216C706.44 386.216 705.976 386.445 705.645 386.904C705.325 387.363 705.165 388.008 705.165 388.84V393H703.645V388.904C703.645 388.179 703.57 387.629 703.421 387.256C703.272 386.872 703.064 386.605 702.797 386.456C702.541 386.307 702.242 386.227 701.901 386.216C701.304 386.216 700.84 386.445 700.509 386.904C700.189 387.363 700.029 388.008 700.029 388.84V393H698.509ZM717.14 393L717.076 391.608V388.824C717.076 388.237 717.007 387.747 716.868 387.352C716.74 386.957 716.537 386.659 716.26 386.456C715.993 386.253 715.636 386.152 715.188 386.152C714.772 386.152 714.409 386.237 714.1 386.408C713.801 386.579 713.551 386.845 713.348 387.208L712.004 386.696C712.196 386.333 712.436 386.013 712.724 385.736C713.012 385.448 713.359 385.224 713.764 385.064C714.169 384.893 714.644 384.808 715.188 384.808C715.945 384.808 716.575 384.957 717.076 385.256C717.577 385.555 717.951 385.987 718.196 386.552C718.452 387.117 718.575 387.816 718.564 388.648L718.548 393H717.14ZM714.788 393.192C713.839 393.192 713.097 392.979 712.564 392.552C712.041 392.115 711.78 391.512 711.78 390.744C711.78 389.923 712.052 389.299 712.596 388.872C713.151 388.435 713.919 388.216 714.9 388.216H717.124V389.416H715.316C714.58 389.416 714.063 389.533 713.764 389.768C713.465 389.992 713.316 390.307 713.316 390.712C713.316 391.085 713.455 391.379 713.732 391.592C714.02 391.795 714.415 391.896 714.916 391.896C715.353 391.896 715.732 391.805 716.052 391.624C716.372 391.432 716.623 391.165 716.804 390.824C716.985 390.483 717.076 390.093 717.076 389.656H717.604C717.604 390.744 717.369 391.608 716.9 392.248C716.441 392.877 715.737 393.192 714.788 393.192ZM720.574 393V385H722.094V393H720.574ZM721.342 383.304C721.097 383.304 720.883 383.213 720.702 383.032C720.521 382.84 720.43 382.621 720.43 382.376C720.43 382.12 720.521 381.907 720.702 381.736C720.883 381.555 721.097 381.464 721.342 381.464C721.598 381.464 721.811 381.555 721.982 381.736C722.163 381.907 722.254 382.12 722.254 382.376C722.254 382.621 722.163 382.84 721.982 383.032C721.811 383.213 721.598 383.304 721.342 383.304ZM724.322 393V381.8H725.842V393H724.322Z" fill="#A0B3C0"/>
<path d="M693.968 414L693.904 412.608V409.824C693.904 409.237 693.835 408.747 693.696 408.352C693.568 407.957 693.365 407.659 693.088 407.456C692.821 407.253 692.464 407.152 692.016 407.152C691.6 407.152 691.237 407.237 690.928 407.408C690.629 407.579 690.379 407.845 690.176 408.208L688.832 407.696C689.024 407.333 689.264 407.013 689.552 406.736C689.84 406.448 690.187 406.224 690.592 406.064C690.997 405.893 691.472 405.808 692.016 405.808C692.773 405.808 693.403 405.957 693.904 406.256C694.405 406.555 694.779 406.987 695.024 407.552C695.28 408.117 695.403 408.816 695.392 409.648L695.376 414H693.968ZM691.616 414.192C690.667 414.192 689.925 413.979 689.392 413.552C688.869 413.115 688.608 412.512 688.608 411.744C688.608 410.923 688.88 410.299 689.424 409.872C689.979 409.435 690.747 409.216 691.728 409.216H693.952V410.416H692.144C691.408 410.416 690.891 410.533 690.592 410.768C690.293 410.992 690.144 411.307 690.144 411.712C690.144 412.085 690.283 412.379 690.56 412.592C690.848 412.795 691.243 412.896 691.744 412.896C692.181 412.896 692.56 412.805 692.88 412.624C693.2 412.432 693.451 412.165 693.632 411.824C693.813 411.483 693.904 411.093 693.904 410.656H694.432C694.432 411.744 694.197 412.608 693.728 413.248C693.269 413.877 692.565 414.192 691.616 414.192ZM703.162 414L703.098 412.512V402.8H704.602V414H703.162ZM700.474 414.192C699.749 414.192 699.114 414.016 698.57 413.664C698.037 413.312 697.615 412.821 697.306 412.192C697.007 411.563 696.858 410.832 696.858 410C696.858 409.157 697.007 408.427 697.306 407.808C697.615 407.179 698.037 406.688 698.57 406.336C699.114 405.984 699.749 405.808 700.474 405.808C701.146 405.808 701.727 405.984 702.218 406.336C702.719 406.688 703.103 407.179 703.37 407.808C703.637 408.427 703.77 409.157 703.77 410C703.77 410.832 703.637 411.563 703.37 412.192C703.103 412.821 702.719 413.312 702.218 413.664C701.727 414.016 701.146 414.192 700.474 414.192ZM700.826 412.816C701.274 412.816 701.669 412.699 702.01 412.464C702.351 412.219 702.618 411.888 702.81 411.472C703.002 411.045 703.098 410.555 703.098 410C703.098 409.445 703.002 408.96 702.81 408.544C702.618 408.117 702.351 407.787 702.01 407.552C701.669 407.307 701.269 407.184 700.81 407.184C700.341 407.184 699.925 407.307 699.562 407.552C699.199 407.787 698.917 408.117 698.714 408.544C698.511 408.96 698.41 409.445 698.41 410C698.41 410.555 698.511 411.045 698.714 411.472C698.927 411.888 699.215 412.219 699.578 412.464C699.941 412.699 700.357 412.816 700.826 412.816ZM706.712 414V406H708.136L708.2 407.104C708.456 406.677 708.776 406.357 709.16 406.144C709.544 405.92 709.987 405.808 710.488 405.808C711.128 405.808 711.672 405.957 712.12 406.256C712.568 406.544 712.894 406.987 713.096 407.584C713.331 407.008 713.662 406.571 714.088 406.272C714.515 405.963 715.022 405.808 715.608 405.808C716.515 405.808 717.224 406.107 717.736 406.704C718.248 407.291 718.499 408.197 718.488 409.424V414H716.984V409.904C716.984 409.179 716.904 408.629 716.744 408.256C716.595 407.872 716.392 407.605 716.136 407.456C715.88 407.307 715.582 407.227 715.24 407.216C714.643 407.216 714.179 407.445 713.848 407.904C713.528 408.363 713.368 409.008 713.368 409.84V414H711.848V409.904C711.848 409.179 711.774 408.629 711.624 408.256C711.475 407.872 711.267 407.605 711 407.456C710.744 407.307 710.446 407.227 710.104 407.216C709.507 407.216 709.043 407.445 708.712 407.904C708.392 408.363 708.232 409.008 708.232 409.84V414H706.712ZM720.527 414V406H722.047V414H720.527ZM721.295 404.304C721.05 404.304 720.836 404.213 720.655 404.032C720.474 403.84 720.383 403.621 720.383 403.376C720.383 403.12 720.474 402.907 720.655 402.736C720.836 402.555 721.05 402.464 721.295 402.464C721.551 402.464 721.764 402.555 721.935 402.736C722.116 402.907 722.207 403.12 722.207 403.376C722.207 403.621 722.116 403.84 721.935 404.032C721.764 404.213 721.551 404.304 721.295 404.304ZM724.275 414V406H725.699L725.795 407.472V414H724.275ZM729.811 414V409.904H731.331V414H729.811ZM729.811 409.904C729.811 409.179 729.725 408.629 729.555 408.256C729.395 407.872 729.165 407.605 728.867 407.456C728.579 407.307 728.243 407.227 727.859 407.216C727.208 407.216 726.701 407.445 726.339 407.904C725.976 408.363 725.795 409.008 725.795 409.84H725.139C725.139 408.997 725.261 408.277 725.507 407.68C725.763 407.072 726.12 406.608 726.579 406.288C727.048 405.968 727.603 405.808 728.243 405.808C728.872 405.808 729.416 405.936 729.875 406.192C730.344 406.448 730.701 406.848 730.947 407.392C731.203 407.925 731.331 408.629 731.331 409.504V409.904H729.811ZM740.428 417.392C739.318 417.392 738.3 417.211 737.372 416.848C736.454 416.485 735.66 415.968 734.988 415.296C734.316 414.635 733.793 413.856 733.42 412.96C733.057 412.053 732.876 411.056 732.876 409.968C732.876 408.88 733.057 407.888 733.42 406.992C733.793 406.085 734.316 405.301 734.988 404.64C735.66 403.979 736.454 403.467 737.372 403.104C738.3 402.741 739.318 402.56 740.428 402.56C741.441 402.56 742.369 402.741 743.212 403.104C744.054 403.467 744.785 403.979 745.404 404.64C746.022 405.301 746.497 406.085 746.828 406.992C747.169 407.888 747.34 408.88 747.34 409.968H746.06C746.06 409.061 745.921 408.229 745.644 407.472C745.366 406.715 744.977 406.059 744.476 405.504C743.974 404.949 743.377 404.523 742.684 404.224C742.001 403.925 741.249 403.776 740.428 403.776C739.51 403.776 738.668 403.925 737.9 404.224C737.132 404.523 736.465 404.949 735.9 405.504C735.345 406.059 734.913 406.715 734.604 407.472C734.305 408.229 734.156 409.061 734.156 409.968C734.156 410.875 734.305 411.707 734.604 412.464C734.913 413.221 735.345 413.877 735.9 414.432C736.465 414.987 737.132 415.413 737.9 415.712C738.668 416.021 739.51 416.176 740.428 416.176C740.833 416.176 741.27 416.117 741.74 416C742.22 415.893 742.62 415.755 742.94 415.584L743.58 416.56C743.132 416.805 742.609 417.003 742.012 417.152C741.425 417.312 740.897 417.392 740.428 417.392ZM739.564 413.76C738.881 413.76 738.273 413.6 737.74 413.28C737.217 412.949 736.806 412.496 736.508 411.92C736.209 411.344 736.06 410.688 736.06 409.952C736.06 409.205 736.209 408.549 736.508 407.984C736.806 407.419 737.217 406.976 737.74 406.656C738.273 406.325 738.881 406.16 739.564 406.16C740.236 406.16 740.828 406.325 741.34 406.656C741.862 406.976 742.273 407.419 742.572 407.984C742.87 408.549 743.02 409.205 743.02 409.952C743.02 410.688 742.87 411.344 742.572 411.92C742.273 412.496 741.862 412.949 741.34 413.28C740.828 413.6 740.236 413.76 739.564 413.76ZM739.948 412.448C740.406 412.448 740.812 412.341 741.164 412.128C741.516 411.915 741.788 411.621 741.98 411.248C742.182 410.864 742.284 410.432 742.284 409.952C742.284 409.461 742.182 409.035 741.98 408.672C741.777 408.309 741.494 408.021 741.132 407.808C740.78 407.595 740.374 407.488 739.916 407.488C739.446 407.488 739.036 407.595 738.684 407.808C738.332 408.011 738.054 408.299 737.852 408.672C737.649 409.035 737.548 409.461 737.548 409.952C737.548 410.432 737.649 410.864 737.852 411.248C738.065 411.621 738.348 411.915 738.7 412.128C739.062 412.341 739.478 412.448 739.948 412.448ZM744.22 414.24C743.825 414.24 743.478 414.16 743.18 414C742.892 413.851 742.668 413.632 742.508 413.344C742.358 413.045 742.284 412.699 742.284 412.304L743.628 412.256C743.628 412.523 743.692 412.731 743.82 412.88C743.948 413.019 744.113 413.088 744.316 413.088C744.657 413.088 744.956 412.955 745.212 412.688C745.478 412.421 745.686 412.053 745.836 411.584C745.985 411.115 746.06 410.576 746.06 409.968H747.34C747.34 410.8 747.206 411.536 746.94 412.176C746.673 412.816 746.305 413.323 745.836 413.696C745.366 414.059 744.828 414.24 744.22 414.24ZM742.284 412.304L742.236 406.336H743.628V412.256L742.284 412.304ZM749.167 417.2V406H750.591L750.687 407.472V417.2H749.167ZM753.311 414.192C752.639 414.192 752.053 414.016 751.551 413.664C751.061 413.312 750.682 412.821 750.415 412.192C750.149 411.563 750.015 410.832 750.015 410C750.015 409.157 750.149 408.427 750.415 407.808C750.682 407.179 751.061 406.688 751.551 406.336C752.053 405.984 752.639 405.808 753.311 405.808C754.026 405.808 754.655 405.984 755.199 406.336C755.743 406.688 756.165 407.179 756.463 407.808C756.773 408.427 756.927 409.157 756.927 410C756.927 410.832 756.773 411.563 756.463 412.192C756.165 412.821 755.743 413.312 755.199 413.664C754.655 414.016 754.026 414.192 753.311 414.192ZM752.943 412.816C753.423 412.816 753.845 412.699 754.207 412.464C754.57 412.219 754.853 411.888 755.055 411.472C755.269 411.045 755.375 410.555 755.375 410C755.375 409.445 755.274 408.96 755.071 408.544C754.869 408.117 754.586 407.787 754.223 407.552C753.861 407.307 753.439 407.184 752.959 407.184C752.522 407.184 752.127 407.307 751.775 407.552C751.434 407.787 751.167 408.117 750.975 408.544C750.783 408.971 750.687 409.456 750.687 410C750.687 410.555 750.783 411.045 750.975 411.472C751.167 411.888 751.434 412.219 751.775 412.464C752.117 412.699 752.506 412.816 752.943 412.816ZM759.515 409.696C759.515 408.832 759.681 408.128 760.011 407.584C760.342 407.04 760.769 406.635 761.291 406.368C761.814 406.101 762.363 405.968 762.939 405.968V407.408C762.459 407.408 762.001 407.483 761.563 407.632C761.137 407.771 760.785 408.005 760.507 408.336C760.241 408.656 760.107 409.093 760.107 409.648L759.515 409.696ZM758.587 414V406H760.107V414H758.587ZM767.701 414.192C766.923 414.192 766.235 414.016 765.637 413.664C765.04 413.301 764.571 412.805 764.229 412.176C763.888 411.547 763.717 410.821 763.717 410C763.717 409.179 763.888 408.453 764.229 407.824C764.571 407.195 765.04 406.704 765.637 406.352C766.245 405.989 766.939 405.808 767.717 405.808C768.453 405.808 769.099 405.995 769.653 406.368C770.208 406.731 770.64 407.253 770.949 407.936C771.269 408.608 771.429 409.403 771.429 410.32H764.965L765.253 410.08C765.253 410.645 765.365 411.136 765.589 411.552C765.813 411.968 766.117 412.288 766.501 412.512C766.885 412.725 767.323 412.832 767.813 412.832C768.347 412.832 768.789 412.709 769.141 412.464C769.504 412.208 769.787 411.888 769.989 411.504L771.301 412.112C771.088 412.528 770.811 412.896 770.469 413.216C770.128 413.525 769.723 413.765 769.253 413.936C768.795 414.107 768.277 414.192 767.701 414.192ZM765.349 409.36L765.045 409.12H770.101L769.813 409.36C769.813 408.891 769.717 408.491 769.525 408.16C769.333 407.819 769.077 407.563 768.757 407.392C768.437 407.211 768.08 407.12 767.685 407.12C767.301 407.12 766.928 407.211 766.565 407.392C766.213 407.563 765.92 407.813 765.685 408.144C765.461 408.475 765.349 408.88 765.349 409.36ZM778.787 414L778.723 412.512V402.8H780.227V414H778.787ZM776.099 414.192C775.374 414.192 774.739 414.016 774.195 413.664C773.662 413.312 773.24 412.821 772.931 412.192C772.632 411.563 772.483 410.832 772.483 410C772.483 409.157 772.632 408.427 772.931 407.808C773.24 407.179 773.662 406.688 774.195 406.336C774.739 405.984 775.374 405.808 776.099 405.808C776.771 405.808 777.352 405.984 777.843 406.336C778.344 406.688 778.728 407.179 778.995 407.808C779.262 408.427 779.395 409.157 779.395 410C779.395 410.832 779.262 411.563 778.995 412.192C778.728 412.821 778.344 413.312 777.843 413.664C777.352 414.016 776.771 414.192 776.099 414.192ZM776.451 412.816C776.899 412.816 777.294 412.699 777.635 412.464C777.976 412.219 778.243 411.888 778.435 411.472C778.627 411.045 778.723 410.555 778.723 410C778.723 409.445 778.627 408.96 778.435 408.544C778.243 408.117 777.976 407.787 777.635 407.552C777.294 407.307 776.894 407.184 776.435 407.184C775.966 407.184 775.55 407.307 775.187 407.552C774.824 407.787 774.542 408.117 774.339 408.544C774.136 408.96 774.035 409.445 774.035 410C774.035 410.555 774.136 411.045 774.339 411.472C774.552 411.888 774.84 412.219 775.203 412.464C775.566 412.699 775.982 412.816 776.451 412.816ZM785.873 414.192C785.095 414.192 784.407 414.016 783.809 413.664C783.212 413.301 782.743 412.805 782.401 412.176C782.06 411.547 781.889 410.821 781.889 410C781.889 409.179 782.06 408.453 782.401 407.824C782.743 407.195 783.212 406.704 783.809 406.352C784.417 405.989 785.111 405.808 785.889 405.808C786.625 405.808 787.271 405.995 787.825 406.368C788.38 406.731 788.812 407.253 789.121 407.936C789.441 408.608 789.601 409.403 789.601 410.32H783.137L783.425 410.08C783.425 410.645 783.537 411.136 783.761 411.552C783.985 411.968 784.289 412.288 784.673 412.512C785.057 412.725 785.495 412.832 785.985 412.832C786.519 412.832 786.961 412.709 787.313 412.464C787.676 412.208 787.959 411.888 788.161 411.504L789.473 412.112C789.26 412.528 788.983 412.896 788.641 413.216C788.3 413.525 787.895 413.765 787.425 413.936C786.967 414.107 786.449 414.192 785.873 414.192ZM783.521 409.36L783.217 409.12H788.273L787.985 409.36C787.985 408.891 787.889 408.491 787.697 408.16C787.505 407.819 787.249 407.563 786.929 407.392C786.609 407.211 786.252 407.12 785.857 407.12C785.473 407.12 785.1 407.211 784.737 407.392C784.385 407.563 784.092 407.813 783.857 408.144C783.633 408.475 783.521 408.88 783.521 409.36ZM793.967 414.192C793.402 414.192 792.895 414.107 792.447 413.936C792.01 413.765 791.636 413.536 791.327 413.248C791.028 412.96 790.804 412.635 790.655 412.272L791.967 411.696C792.138 412.027 792.394 412.299 792.735 412.512C793.076 412.725 793.455 412.832 793.871 412.832C794.33 412.832 794.708 412.747 795.007 412.576C795.306 412.405 795.455 412.165 795.455 411.856C795.455 411.557 795.343 411.323 795.119 411.152C794.895 410.981 794.57 410.843 794.143 410.736L793.391 410.544C792.644 410.341 792.063 410.037 791.647 409.632C791.242 409.227 791.039 408.768 791.039 408.256C791.039 407.477 791.29 406.875 791.791 406.448C792.292 406.021 793.034 405.808 794.015 405.808C794.495 405.808 794.932 405.877 795.327 406.016C795.732 406.155 796.074 406.352 796.351 406.608C796.639 406.864 796.842 407.168 796.959 407.52L795.679 408.096C795.551 407.776 795.332 407.541 795.023 407.392C794.714 407.232 794.351 407.152 793.935 407.152C793.508 407.152 793.172 407.248 792.927 407.44C792.682 407.621 792.559 407.877 792.559 408.208C792.559 408.389 792.66 408.565 792.863 408.736C793.076 408.896 793.386 409.029 793.791 409.136L794.655 409.344C795.178 409.472 795.61 409.669 795.951 409.936C796.292 410.192 796.548 410.485 796.719 410.816C796.89 411.136 796.975 411.472 796.975 411.824C796.975 412.304 796.842 412.725 796.575 413.088C796.319 413.44 795.962 413.712 795.503 413.904C795.055 414.096 794.543 414.192 793.967 414.192ZM801.644 414.192C800.844 414.192 800.225 413.989 799.788 413.584C799.351 413.168 799.132 412.576 799.132 411.808V403.504H800.652V411.584C800.652 411.979 800.748 412.283 800.94 412.496C801.143 412.699 801.431 412.8 801.804 412.8C801.911 412.8 802.028 412.779 802.156 412.736C802.284 412.693 802.439 412.608 802.62 412.48L803.196 413.664C802.919 413.845 802.652 413.979 802.396 414.064C802.151 414.149 801.9 414.192 801.644 414.192ZM797.772 407.312V406H802.924V407.312H797.772ZM804.793 414V406H806.313V414H804.793ZM805.561 404.304C805.315 404.304 805.102 404.213 804.921 404.032C804.739 403.84 804.649 403.621 804.649 403.376C804.649 403.12 804.739 402.907 804.921 402.736C805.102 402.555 805.315 402.464 805.561 402.464C805.817 402.464 806.03 402.555 806.201 402.736C806.382 402.907 806.473 403.12 806.473 403.376C806.473 403.621 806.382 403.84 806.201 404.032C806.03 404.213 805.817 404.304 805.561 404.304ZM808.54 414V406H809.964L810.06 407.472V414H808.54ZM814.076 414V409.904H815.596V414H814.076ZM814.076 409.904C814.076 409.179 813.991 408.629 813.82 408.256C813.66 407.872 813.431 407.605 813.132 407.456C812.844 407.307 812.508 407.227 812.124 407.216C811.474 407.216 810.967 407.445 810.604 407.904C810.242 408.363 810.06 409.008 810.06 409.84H809.404C809.404 408.997 809.527 408.277 809.772 407.68C810.028 407.072 810.386 406.608 810.844 406.288C811.314 405.968 811.868 405.808 812.508 405.808C813.138 405.808 813.682 405.936 814.14 406.192C814.61 406.448 814.967 406.848 815.212 407.392C815.468 407.925 815.596 408.629 815.596 409.504V409.904H814.076ZM822.421 414L822.357 412.608V409.824C822.357 409.237 822.288 408.747 822.149 408.352C822.021 407.957 821.818 407.659 821.541 407.456C821.274 407.253 820.917 407.152 820.469 407.152C820.053 407.152 819.69 407.237 819.381 407.408C819.082 407.579 818.832 407.845 818.629 408.208L817.285 407.696C817.477 407.333 817.717 407.013 818.005 406.736C818.293 406.448 818.64 406.224 819.045 406.064C819.45 405.893 819.925 405.808 820.469 405.808C821.226 405.808 821.856 405.957 822.357 406.256C822.858 406.555 823.232 406.987 823.477 407.552C823.733 408.117 823.856 408.816 823.845 409.648L823.829 414H822.421ZM820.069 414.192C819.12 414.192 818.378 413.979 817.845 413.552C817.322 413.115 817.061 412.512 817.061 411.744C817.061 410.923 817.333 410.299 817.877 409.872C818.432 409.435 819.2 409.216 820.181 409.216H822.405V410.416H820.597C819.861 410.416 819.344 410.533 819.045 410.768C818.746 410.992 818.597 411.307 818.597 411.712C818.597 412.085 818.736 412.379 819.013 412.592C819.301 412.795 819.696 412.896 820.197 412.896C820.634 412.896 821.013 412.805 821.333 412.624C821.653 412.432 821.904 412.165 822.085 411.824C822.266 411.483 822.357 411.093 822.357 410.656H822.885C822.885 411.744 822.65 412.608 822.181 413.248C821.722 413.877 821.018 414.192 820.069 414.192ZM828.847 414.192C828.047 414.192 827.428 413.989 826.991 413.584C826.554 413.168 826.335 412.576 826.335 411.808V403.504H827.855V411.584C827.855 411.979 827.951 412.283 828.143 412.496C828.346 412.699 828.634 412.8 829.007 412.8C829.114 412.8 829.231 412.779 829.359 412.736C829.487 412.693 829.642 412.608 829.823 412.48L830.399 413.664C830.122 413.845 829.855 413.979 829.599 414.064C829.354 414.149 829.103 414.192 828.847 414.192ZM824.975 407.312V406H830.127V407.312H824.975ZM831.996 414V406H833.516V414H831.996ZM832.764 404.304C832.518 404.304 832.305 404.213 832.124 404.032C831.942 403.84 831.852 403.621 831.852 403.376C831.852 403.12 831.942 402.907 832.124 402.736C832.305 402.555 832.518 402.464 832.764 402.464C833.02 402.464 833.233 402.555 833.404 402.736C833.585 402.907 833.676 403.12 833.676 403.376C833.676 403.621 833.585 403.84 833.404 404.032C833.233 404.213 833.02 404.304 832.764 404.304ZM839.36 414.192C838.56 414.192 837.856 414.016 837.248 413.664C836.64 413.301 836.16 412.805 835.808 412.176C835.466 411.547 835.296 410.821 835.296 410C835.296 409.179 835.466 408.453 835.808 407.824C836.149 407.195 836.624 406.704 837.232 406.352C837.84 405.989 838.538 405.808 839.328 405.808C840.117 405.808 840.816 405.989 841.424 406.352C842.032 406.704 842.506 407.195 842.848 407.824C843.189 408.453 843.36 409.179 843.36 410C843.36 410.821 843.189 411.547 842.848 412.176C842.506 412.805 842.032 413.301 841.424 413.664C840.826 414.016 840.138 414.192 839.36 414.192ZM839.36 412.8C839.84 412.8 840.266 412.683 840.64 412.448C841.013 412.203 841.301 411.872 841.504 411.456C841.717 411.04 841.824 410.555 841.824 410C841.824 409.445 841.717 408.96 841.504 408.544C841.301 408.128 841.008 407.803 840.624 407.568C840.24 407.323 839.808 407.2 839.328 407.2C838.837 407.2 838.405 407.323 838.032 407.568C837.658 407.803 837.365 408.128 837.152 408.544C836.938 408.96 836.832 409.445 836.832 410C836.832 410.555 836.938 411.04 837.152 411.456C837.365 411.872 837.664 412.203 838.048 412.448C838.432 412.683 838.869 412.8 839.36 412.8ZM845.025 414V406H846.449L846.545 407.472V414H845.025ZM850.561 414V409.904H852.081V414H850.561ZM850.561 409.904C850.561 409.179 850.475 408.629 850.305 408.256C850.145 407.872 849.915 407.605 849.617 407.456C849.329 407.307 848.993 407.227 848.609 407.216C847.958 407.216 847.451 407.445 847.089 407.904C846.726 408.363 846.545 409.008 846.545 409.84H845.889C845.889 408.997 846.011 408.277 846.257 407.68C846.513 407.072 846.87 406.608 847.329 406.288C847.798 405.968 848.353 405.808 848.993 405.808C849.622 405.808 850.166 405.936 850.625 406.192C851.094 406.448 851.451 406.848 851.697 407.392C851.953 407.925 852.081 408.629 852.081 409.504V409.904H850.561ZM857.082 414.192C856.282 414.192 855.663 413.989 855.226 413.584C854.788 413.168 854.57 412.576 854.57 411.808V403.504H856.09V411.584C856.09 411.979 856.186 412.283 856.378 412.496C856.58 412.699 856.868 412.8 857.242 412.8C857.348 412.8 857.466 412.779 857.594 412.736C857.722 412.693 857.876 412.608 858.058 412.48L858.634 413.664C858.356 413.845 858.09 413.979 857.834 414.064C857.588 414.149 857.338 414.192 857.082 414.192ZM853.21 407.312V406H858.362V407.312H853.21ZM861.062 409.696C861.062 408.832 861.227 408.128 861.558 407.584C861.889 407.04 862.315 406.635 862.838 406.368C863.361 406.101 863.91 405.968 864.486 405.968V407.408C864.006 407.408 863.547 407.483 863.11 407.632C862.683 407.771 862.331 408.005 862.054 408.336C861.787 408.656 861.654 409.093 861.654 409.648L861.062 409.696ZM860.134 414V406H861.654V414H860.134ZM870.624 414L870.56 412.608V409.824C870.56 409.237 870.491 408.747 870.352 408.352C870.224 407.957 870.022 407.659 869.744 407.456C869.478 407.253 869.12 407.152 868.672 407.152C868.256 407.152 867.894 407.237 867.584 407.408C867.286 407.579 867.035 407.845 866.832 408.208L865.488 407.696C865.68 407.333 865.92 407.013 866.208 406.736C866.496 406.448 866.843 406.224 867.248 406.064C867.654 405.893 868.128 405.808 868.672 405.808C869.43 405.808 870.059 405.957 870.56 406.256C871.062 406.555 871.435 406.987 871.68 407.552C871.936 408.117 872.059 408.816 872.048 409.648L872.032 414H870.624ZM868.272 414.192C867.323 414.192 866.582 413.979 866.048 413.552C865.526 413.115 865.264 412.512 865.264 411.744C865.264 410.923 865.536 410.299 866.08 409.872C866.635 409.435 867.403 409.216 868.384 409.216H870.608V410.416H868.8C868.064 410.416 867.547 410.533 867.248 410.768C866.95 410.992 866.8 411.307 866.8 411.712C866.8 412.085 866.939 412.379 867.216 412.592C867.504 412.795 867.899 412.896 868.4 412.896C868.838 412.896 869.216 412.805 869.536 412.624C869.856 412.432 870.107 412.165 870.288 411.824C870.47 411.483 870.56 411.093 870.56 410.656H871.088C871.088 411.744 870.854 412.608 870.384 413.248C869.926 413.877 869.222 414.192 868.272 414.192ZM876.334 414L879.534 406H881.118L877.774 414H876.334ZM876.238 414L872.91 406H874.462L877.662 414H876.238ZM885.639 414.192C884.86 414.192 884.172 414.016 883.575 413.664C882.978 413.301 882.508 412.805 882.167 412.176C881.826 411.547 881.655 410.821 881.655 410C881.655 409.179 881.826 408.453 882.167 407.824C882.508 407.195 882.978 406.704 883.575 406.352C884.183 405.989 884.876 405.808 885.655 405.808C886.391 405.808 887.036 405.995 887.591 406.368C888.146 406.731 888.578 407.253 888.887 407.936C889.207 408.608 889.367 409.403 889.367 410.32H882.903L883.191 410.08C883.191 410.645 883.303 411.136 883.527 411.552C883.751 411.968 884.055 412.288 884.439 412.512C884.823 412.725 885.26 412.832 885.751 412.832C886.284 412.832 886.727 412.709 887.079 412.464C887.442 412.208 887.724 411.888 887.927 411.504L889.239 412.112C889.026 412.528 888.748 412.896 888.407 413.216C888.066 413.525 887.66 413.765 887.191 413.936C886.732 414.107 886.215 414.192 885.639 414.192ZM883.287 409.36L882.983 409.12H888.039L887.751 409.36C887.751 408.891 887.655 408.491 887.463 408.16C887.271 407.819 887.015 407.563 886.695 407.392C886.375 407.211 886.018 407.12 885.623 407.12C885.239 407.12 884.866 407.211 884.503 407.392C884.151 407.563 883.858 407.813 883.623 408.144C883.399 408.475 883.287 408.88 883.287 409.36ZM890.868 414V402.8H892.389V414H890.868ZM894.493 414V406H895.918L896.014 407.472V414H894.493ZM900.03 414V409.904H901.55V414H900.03ZM900.03 409.904C900.03 409.179 899.944 408.629 899.774 408.256C899.614 407.872 899.384 407.605 899.086 407.456C898.798 407.307 898.462 407.227 898.078 407.216C897.427 407.216 896.92 407.445 896.558 407.904C896.195 408.363 896.014 409.008 896.014 409.84H895.358C895.358 408.997 895.48 408.277 895.726 407.68C895.982 407.072 896.339 406.608 896.798 406.288C897.267 405.968 897.822 405.808 898.462 405.808C899.091 405.808 899.635 405.936 900.094 406.192C900.563 406.448 900.92 406.848 901.166 407.392C901.422 407.925 901.55 408.629 901.55 409.504V409.904H900.03ZM906.55 414.192C905.75 414.192 905.132 413.989 904.694 413.584C904.257 413.168 904.038 412.576 904.038 411.808V403.504H905.558V411.584C905.558 411.979 905.654 412.283 905.846 412.496C906.049 412.699 906.337 412.8 906.71 412.8C906.817 412.8 906.934 412.779 907.062 412.736C907.19 412.693 907.345 412.608 907.526 412.48L908.102 413.664C907.825 413.845 907.558 413.979 907.302 414.064C907.057 414.149 906.806 414.192 906.55 414.192ZM902.678 407.312V406H907.83V407.312H902.678ZM913.156 414.192C912.356 414.192 911.652 414.016 911.044 413.664C910.436 413.301 909.956 412.805 909.604 412.176C909.263 411.547 909.092 410.821 909.092 410C909.092 409.179 909.263 408.453 909.604 407.824C909.946 407.195 910.42 406.704 911.028 406.352C911.636 405.989 912.335 405.808 913.124 405.808C913.914 405.808 914.612 405.989 915.22 406.352C915.828 406.704 916.303 407.195 916.644 407.824C916.986 408.453 917.156 409.179 917.156 410C917.156 410.821 916.986 411.547 916.644 412.176C916.303 412.805 915.828 413.301 915.22 413.664C914.623 414.016 913.935 414.192 913.156 414.192ZM913.156 412.8C913.636 412.8 914.063 412.683 914.436 412.448C914.81 412.203 915.098 411.872 915.3 411.456C915.514 411.04 915.62 410.555 915.62 410C915.62 409.445 915.514 408.96 915.3 408.544C915.098 408.128 914.804 407.803 914.42 407.568C914.036 407.323 913.604 407.2 913.124 407.2C912.634 407.2 912.202 407.323 911.828 407.568C911.455 407.803 911.162 408.128 910.948 408.544C910.735 408.96 910.628 409.445 910.628 410C910.628 410.555 910.735 411.04 910.948 411.456C911.162 411.872 911.46 412.203 911.844 412.448C912.228 412.683 912.666 412.8 913.156 412.8ZM924.262 414L924.166 412.528V406H925.67V414H924.262ZM918.63 410.096V406H920.15V410.096H918.63ZM920.15 410.096C920.15 410.811 920.23 411.36 920.39 411.744C920.56 412.128 920.795 412.395 921.094 412.544C921.392 412.693 921.728 412.773 922.102 412.784C922.752 412.784 923.259 412.555 923.622 412.096C923.984 411.637 924.166 410.992 924.166 410.16H924.822C924.822 411.003 924.694 411.728 924.438 412.336C924.192 412.933 923.84 413.392 923.382 413.712C922.923 414.032 922.363 414.192 921.702 414.192C921.083 414.192 920.539 414.064 920.07 413.808C919.611 413.552 919.254 413.152 918.998 412.608C918.752 412.064 918.63 411.36 918.63 410.496V410.096H920.15ZM928.718 409.696C928.718 408.832 928.884 408.128 929.214 407.584C929.545 407.04 929.972 406.635 930.494 406.368C931.017 406.101 931.566 405.968 932.142 405.968V407.408C931.662 407.408 931.204 407.483 930.766 407.632C930.34 407.771 929.988 408.005 929.71 408.336C929.444 408.656 929.31 409.093 929.31 409.648L928.718 409.696ZM927.79 414V406H929.31V414H927.79ZM934.057 414.224C933.79 414.224 933.555 414.128 933.353 413.936C933.161 413.744 933.065 413.509 933.065 413.232C933.065 412.955 933.161 412.72 933.353 412.528C933.555 412.336 933.79 412.24 934.057 412.24C934.334 412.24 934.569 412.336 934.761 412.528C934.963 412.72 935.065 412.955 935.065 413.232C935.065 413.509 934.963 413.744 934.761 413.936C934.569 414.128 934.334 414.224 934.057 414.224ZM940.516 414.192C939.717 414.192 939.007 414.016 938.389 413.664C937.77 413.301 937.285 412.805 936.933 412.176C936.591 411.547 936.421 410.821 936.421 410C936.421 409.179 936.591 408.453 936.933 407.824C937.285 407.195 937.765 406.704 938.373 406.352C938.991 405.989 939.695 405.808 940.485 405.808C941.263 405.808 941.962 405.989 942.581 406.352C943.21 406.715 943.679 407.232 943.989 407.904L942.613 408.48C942.41 408.085 942.117 407.776 941.733 407.552C941.359 407.328 940.927 407.216 940.437 407.216C939.957 407.216 939.53 407.333 939.157 407.568C938.783 407.803 938.49 408.133 938.277 408.56C938.063 408.976 937.957 409.456 937.957 410C937.957 410.544 938.063 411.024 938.277 411.44C938.49 411.856 938.789 412.187 939.173 412.432C939.557 412.667 939.989 412.784 940.469 412.784C940.959 412.784 941.397 412.661 941.781 412.416C942.165 412.16 942.453 411.819 942.645 411.392L944.036 411.952C943.727 412.656 943.258 413.205 942.629 413.6C942.01 413.995 941.306 414.192 940.516 414.192ZM949.156 414.192C948.356 414.192 947.652 414.016 947.044 413.664C946.436 413.301 945.956 412.805 945.604 412.176C945.263 411.547 945.092 410.821 945.092 410C945.092 409.179 945.263 408.453 945.604 407.824C945.946 407.195 946.42 406.704 947.028 406.352C947.636 405.989 948.335 405.808 949.124 405.808C949.914 405.808 950.612 405.989 951.22 406.352C951.828 406.704 952.303 407.195 952.644 407.824C952.986 408.453 953.156 409.179 953.156 410C953.156 410.821 952.986 411.547 952.644 412.176C952.303 412.805 951.828 413.301 951.22 413.664C950.623 414.016 949.935 414.192 949.156 414.192ZM949.156 412.8C949.636 412.8 950.063 412.683 950.436 412.448C950.81 412.203 951.098 411.872 951.3 411.456C951.514 411.04 951.62 410.555 951.62 410C951.62 409.445 951.514 408.96 951.3 408.544C951.098 408.128 950.804 407.803 950.42 407.568C950.036 407.323 949.604 407.2 949.124 407.2C948.634 407.2 948.202 407.323 947.828 407.568C947.455 407.803 947.162 408.128 946.948 408.544C946.735 408.96 946.628 409.445 946.628 410C946.628 410.555 946.735 411.04 946.948 411.456C947.162 411.872 947.46 412.203 947.844 412.448C948.228 412.683 948.666 412.8 949.156 412.8ZM954.822 414V406H956.246L956.31 407.104C956.566 406.677 956.886 406.357 957.27 406.144C957.654 405.92 958.096 405.808 958.598 405.808C959.238 405.808 959.782 405.957 960.23 406.256C960.678 406.544 961.003 406.987 961.206 407.584C961.44 407.008 961.771 406.571 962.198 406.272C962.624 405.963 963.131 405.808 963.718 405.808C964.624 405.808 965.334 406.107 965.846 406.704C966.358 407.291 966.608 408.197 966.598 409.424V414H965.094V409.904C965.094 409.179 965.014 408.629 964.854 408.256C964.704 407.872 964.502 407.605 964.246 407.456C963.99 407.307 963.691 407.227 963.35 407.216C962.752 407.216 962.288 407.445 961.958 407.904C961.638 408.363 961.478 409.008 961.478 409.84V414H959.958V409.904C959.958 409.179 959.883 408.629 959.734 408.256C959.584 407.872 959.376 407.605 959.11 407.456C958.854 407.307 958.555 407.227 958.214 407.216C957.616 407.216 957.152 407.445 956.822 407.904C956.502 408.363 956.342 409.008 956.342 409.84V414H954.822Z" fill="#212121"/>
<rect x="668.5" y="443.5" width="499" height="57" rx="3.5" fill="#F3FAFF"/>
<rect x="668.5" y="443.5" width="499" height="57" rx="3.5" stroke="#CBE9FF"/>
<path d="M697.168 467L692.736 455.8H694.336L698.848 467H697.168ZM688.144 467L692.656 455.8H694.256L689.824 467H688.144ZM690.272 464.008V462.6H696.72V464.008H690.272ZM705.48 467L705.384 465.528V459H706.888V467H705.48ZM699.848 463.096V459H701.368V463.096H699.848ZM701.368 463.096C701.368 463.811 701.448 464.36 701.608 464.744C701.779 465.128 702.014 465.395 702.312 465.544C702.611 465.693 702.947 465.773 703.32 465.784C703.971 465.784 704.478 465.555 704.84 465.096C705.203 464.637 705.384 463.992 705.384 463.16H706.04C706.04 464.003 705.912 464.728 705.656 465.336C705.411 465.933 705.059 466.392 704.6 466.712C704.142 467.032 703.582 467.192 702.92 467.192C702.302 467.192 701.758 467.064 701.288 466.808C700.83 466.552 700.472 466.152 700.216 465.608C699.971 465.064 699.848 464.36 699.848 463.496V463.096H701.368ZM712.097 467.192C711.297 467.192 710.678 466.989 710.241 466.584C709.804 466.168 709.585 465.576 709.585 464.808V456.504H711.105V464.584C711.105 464.979 711.201 465.283 711.393 465.496C711.596 465.699 711.884 465.8 712.257 465.8C712.364 465.8 712.481 465.779 712.609 465.736C712.737 465.693 712.892 465.608 713.073 465.48L713.649 466.664C713.372 466.845 713.105 466.979 712.849 467.064C712.604 467.149 712.353 467.192 712.097 467.192ZM708.225 460.312V459H713.377V460.312H708.225ZM715.166 467V455.8H716.67V467H715.166ZM720.702 467V462.904H722.206V467H720.702ZM720.702 462.904C720.702 462.179 720.616 461.629 720.446 461.256C720.275 460.872 720.04 460.605 719.742 460.456C719.454 460.307 719.123 460.227 718.75 460.216C718.088 460.216 717.576 460.445 717.214 460.904C716.851 461.363 716.67 462.008 716.67 462.84H716.03C716.03 461.997 716.152 461.277 716.398 460.68C716.654 460.072 717.011 459.608 717.47 459.288C717.939 458.968 718.494 458.808 719.134 458.808C719.763 458.808 720.307 458.936 720.766 459.192C721.224 459.448 721.582 459.848 721.838 460.392C722.094 460.925 722.216 461.629 722.206 462.504V462.904H720.702ZM727.735 467.192C726.935 467.192 726.231 467.016 725.623 466.664C725.015 466.301 724.535 465.805 724.183 465.176C723.841 464.547 723.671 463.821 723.671 463C723.671 462.179 723.841 461.453 724.183 460.824C724.524 460.195 724.999 459.704 725.607 459.352C726.215 458.989 726.913 458.808 727.703 458.808C728.492 458.808 729.191 458.989 729.799 459.352C730.407 459.704 730.881 460.195 731.223 460.824C731.564 461.453 731.735 462.179 731.735 463C731.735 463.821 731.564 464.547 731.223 465.176C730.881 465.805 730.407 466.301 729.799 466.664C729.201 467.016 728.513 467.192 727.735 467.192ZM727.735 465.8C728.215 465.8 728.641 465.683 729.015 465.448C729.388 465.203 729.676 464.872 729.879 464.456C730.092 464.04 730.199 463.555 730.199 463C730.199 462.445 730.092 461.96 729.879 461.544C729.676 461.128 729.383 460.803 728.999 460.568C728.615 460.323 728.183 460.2 727.703 460.2C727.212 460.2 726.78 460.323 726.407 460.568C726.033 460.803 725.74 461.128 725.527 461.544C725.313 461.96 725.207 462.445 725.207 463C725.207 463.555 725.313 464.04 725.527 464.456C725.74 464.872 726.039 465.203 726.423 465.448C726.807 465.683 727.244 465.8 727.735 465.8ZM734.328 462.696C734.328 461.832 734.493 461.128 734.824 460.584C735.154 460.04 735.581 459.635 736.104 459.368C736.626 459.101 737.176 458.968 737.752 458.968V460.408C737.272 460.408 736.813 460.483 736.376 460.632C735.949 460.771 735.597 461.005 735.32 461.336C735.053 461.656 734.92 462.093 734.92 462.648L734.328 462.696ZM733.4 467V459H734.92V467H733.4ZM739.074 467V459H740.594V467H739.074ZM739.842 457.304C739.597 457.304 739.383 457.213 739.202 457.032C739.021 456.84 738.93 456.621 738.93 456.376C738.93 456.12 739.021 455.907 739.202 455.736C739.383 455.555 739.597 455.464 739.842 455.464C740.098 455.464 740.311 455.555 740.482 455.736C740.663 455.907 740.754 456.12 740.754 456.376C740.754 456.621 740.663 456.84 740.482 457.032C740.311 457.213 740.098 457.304 739.842 457.304ZM742.422 467V465.832L746.934 460.296H742.422V459H748.87V460.136L744.342 465.704H748.902V467H742.422ZM754.17 467.192C753.391 467.192 752.703 467.016 752.106 466.664C751.509 466.301 751.039 465.805 750.698 465.176C750.357 464.547 750.186 463.821 750.186 463C750.186 462.179 750.357 461.453 750.698 460.824C751.039 460.195 751.509 459.704 752.106 459.352C752.714 458.989 753.407 458.808 754.186 458.808C754.922 458.808 755.567 458.995 756.122 459.368C756.677 459.731 757.109 460.253 757.418 460.936C757.738 461.608 757.898 462.403 757.898 463.32H751.434L751.722 463.08C751.722 463.645 751.834 464.136 752.058 464.552C752.282 464.968 752.586 465.288 752.97 465.512C753.354 465.725 753.791 465.832 754.282 465.832C754.815 465.832 755.258 465.709 755.61 465.464C755.973 465.208 756.255 464.888 756.458 464.504L757.77 465.112C757.557 465.528 757.279 465.896 756.938 466.216C756.597 466.525 756.191 466.765 755.722 466.936C755.263 467.107 754.746 467.192 754.17 467.192ZM751.818 462.36L751.514 462.12H756.57L756.282 462.36C756.282 461.891 756.186 461.491 755.994 461.16C755.802 460.819 755.546 460.563 755.226 460.392C754.906 460.211 754.549 460.12 754.154 460.12C753.77 460.12 753.397 460.211 753.034 460.392C752.682 460.563 752.389 460.813 752.154 461.144C751.93 461.475 751.818 461.88 751.818 462.36ZM768.442 467.192C767.375 467.192 766.426 466.947 765.594 466.456C764.762 465.955 764.111 465.272 763.642 464.408C763.173 463.533 762.938 462.531 762.938 461.4C762.938 460.269 763.173 459.272 763.642 458.408C764.111 457.533 764.757 456.851 765.578 456.36C766.399 455.859 767.343 455.608 768.41 455.608C769.103 455.608 769.765 455.736 770.394 455.992C771.023 456.237 771.583 456.584 772.074 457.032C772.575 457.469 772.959 457.981 773.226 458.568L771.818 459.208C771.615 458.771 771.338 458.392 770.986 458.072C770.634 457.752 770.234 457.501 769.786 457.32C769.349 457.139 768.89 457.048 768.41 457.048C767.663 457.048 766.997 457.235 766.41 457.608C765.823 457.981 765.365 458.493 765.034 459.144C764.703 459.795 764.538 460.547 764.538 461.4C764.538 462.253 764.703 463.011 765.034 463.672C765.375 464.333 765.839 464.851 766.426 465.224C767.023 465.587 767.701 465.768 768.458 465.768C768.949 465.768 769.413 465.672 769.85 465.48C770.287 465.277 770.677 465.005 771.018 464.664C771.37 464.312 771.653 463.912 771.866 463.464L773.274 464.088C773.007 464.696 772.629 465.235 772.138 465.704C771.647 466.173 771.082 466.541 770.442 466.808C769.813 467.064 769.146 467.192 768.442 467.192ZM778.469 467.192C777.669 467.192 776.965 467.016 776.357 466.664C775.749 466.301 775.269 465.805 774.917 465.176C774.576 464.547 774.405 463.821 774.405 463C774.405 462.179 774.576 461.453 774.917 460.824C775.258 460.195 775.733 459.704 776.341 459.352C776.949 458.989 777.648 458.808 778.437 458.808C779.226 458.808 779.925 458.989 780.533 459.352C781.141 459.704 781.616 460.195 781.957 460.824C782.298 461.453 782.469 462.179 782.469 463C782.469 463.821 782.298 464.547 781.957 465.176C781.616 465.805 781.141 466.301 780.533 466.664C779.936 467.016 779.248 467.192 778.469 467.192ZM778.469 465.8C778.949 465.8 779.376 465.683 779.749 465.448C780.122 465.203 780.41 464.872 780.613 464.456C780.826 464.04 780.933 463.555 780.933 463C780.933 462.445 780.826 461.96 780.613 461.544C780.41 461.128 780.117 460.803 779.733 460.568C779.349 460.323 778.917 460.2 778.437 460.2C777.946 460.2 777.514 460.323 777.141 460.568C776.768 460.803 776.474 461.128 776.261 461.544C776.048 461.96 775.941 462.445 775.941 463C775.941 463.555 776.048 464.04 776.261 464.456C776.474 464.872 776.773 465.203 777.157 465.448C777.541 465.683 777.978 465.8 778.469 465.8ZM789.99 467L789.926 465.512V455.8H791.43V467H789.99ZM787.302 467.192C786.577 467.192 785.942 467.016 785.398 466.664C784.865 466.312 784.443 465.821 784.134 465.192C783.835 464.563 783.686 463.832 783.686 463C783.686 462.157 783.835 461.427 784.134 460.808C784.443 460.179 784.865 459.688 785.398 459.336C785.942 458.984 786.577 458.808 787.302 458.808C787.974 458.808 788.555 458.984 789.046 459.336C789.547 459.688 789.931 460.179 790.198 460.808C790.465 461.427 790.598 462.157 790.598 463C790.598 463.832 790.465 464.563 790.198 465.192C789.931 465.821 789.547 466.312 789.046 466.664C788.555 467.016 787.974 467.192 787.302 467.192ZM787.654 465.816C788.102 465.816 788.497 465.699 788.838 465.464C789.179 465.219 789.446 464.888 789.638 464.472C789.83 464.045 789.926 463.555 789.926 463C789.926 462.445 789.83 461.96 789.638 461.544C789.446 461.117 789.179 460.787 788.838 460.552C788.497 460.307 788.097 460.184 787.638 460.184C787.169 460.184 786.753 460.307 786.39 460.552C786.027 460.787 785.745 461.117 785.542 461.544C785.339 461.96 785.238 462.445 785.238 463C785.238 463.555 785.339 464.045 785.542 464.472C785.755 464.888 786.043 465.219 786.406 465.464C786.769 465.699 787.185 465.816 787.654 465.816ZM797.076 467.192C796.298 467.192 795.61 467.016 795.012 466.664C794.415 466.301 793.946 465.805 793.604 465.176C793.263 464.547 793.092 463.821 793.092 463C793.092 462.179 793.263 461.453 793.604 460.824C793.946 460.195 794.415 459.704 795.012 459.352C795.62 458.989 796.314 458.808 797.092 458.808C797.828 458.808 798.474 458.995 799.028 459.368C799.583 459.731 800.015 460.253 800.324 460.936C800.644 461.608 800.804 462.403 800.804 463.32H794.34L794.628 463.08C794.628 463.645 794.74 464.136 794.964 464.552C795.188 464.968 795.492 465.288 795.876 465.512C796.26 465.725 796.698 465.832 797.188 465.832C797.722 465.832 798.164 465.709 798.516 465.464C798.879 465.208 799.162 464.888 799.364 464.504L800.676 465.112C800.463 465.528 800.186 465.896 799.844 466.216C799.503 466.525 799.098 466.765 798.628 466.936C798.17 467.107 797.652 467.192 797.076 467.192ZM794.724 462.36L794.42 462.12H799.476L799.188 462.36C799.188 461.891 799.092 461.491 798.9 461.16C798.708 460.819 798.452 460.563 798.132 460.392C797.812 460.211 797.455 460.12 797.06 460.12C796.676 460.12 796.303 460.211 795.94 460.392C795.588 460.563 795.295 460.813 795.06 461.144C794.836 461.475 794.724 461.88 794.724 462.36Z" fill="#A0B3C0"/>
<path d="M693.056 481.984L691.536 479.6L692.288 479.056L694.064 481.264L693.056 481.984ZM690.704 482.016L689.712 481.296L691.504 479.104L692.24 479.648L690.704 482.016ZM691.712 479.792L688.976 479.072L689.376 477.888L692 478.928L691.712 479.792ZM691.408 479.376L691.248 476.544H692.48L692.32 479.376H691.408ZM692 479.808L691.728 478.928L694.368 477.92L694.736 479.088L692 479.808ZM700.79 481.984L699.27 479.6L700.022 479.056L701.798 481.264L700.79 481.984ZM698.438 482.016L697.446 481.296L699.238 479.104L699.974 479.648L698.438 482.016ZM699.446 479.792L696.71 479.072L697.11 477.888L699.734 478.928L699.446 479.792ZM699.142 479.376L698.982 476.544H700.214L700.054 479.376H699.142ZM699.734 479.808L699.462 478.928L702.102 477.92L702.47 479.088L699.734 479.808ZM708.525 481.984L707.005 479.6L707.757 479.056L709.533 481.264L708.525 481.984ZM706.173 482.016L705.181 481.296L706.973 479.104L707.709 479.648L706.173 482.016ZM707.181 479.792L704.445 479.072L704.845 477.888L707.469 478.928L707.181 479.792ZM706.877 479.376L706.717 476.544H707.949L707.789 479.376H706.877ZM707.469 479.808L707.197 478.928L709.837 477.92L710.205 479.088L707.469 479.808ZM716.259 481.984L714.739 479.6L715.491 479.056L717.267 481.264L716.259 481.984ZM713.907 482.016L712.915 481.296L714.707 479.104L715.443 479.648L713.907 482.016ZM714.915 479.792L712.179 479.072L712.579 477.888L715.203 478.928L714.915 479.792ZM714.611 479.376L714.451 476.544H715.683L715.523 479.376H714.611ZM715.203 479.808L714.931 478.928L717.571 477.92L717.939 479.088L715.203 479.808ZM723.994 481.984L722.474 479.6L723.226 479.056L725.002 481.264L723.994 481.984ZM721.642 482.016L720.65 481.296L722.442 479.104L723.178 479.648L721.642 482.016ZM722.65 479.792L719.914 479.072L720.314 477.888L722.938 478.928L722.65 479.792ZM722.346 479.376L722.186 476.544H723.418L723.258 479.376H722.346ZM722.938 479.808L722.666 478.928L725.306 477.92L725.674 479.088L722.938 479.808ZM731.728 481.984L730.208 479.6L730.96 479.056L732.736 481.264L731.728 481.984ZM729.376 482.016L728.384 481.296L730.176 479.104L730.912 479.648L729.376 482.016ZM730.384 479.792L727.648 479.072L728.048 477.888L730.672 478.928L730.384 479.792ZM730.08 479.376L729.92 476.544H731.152L730.992 479.376H730.08ZM730.672 479.808L730.4 478.928L733.04 477.92L733.408 479.088L730.672 479.808ZM739.462 481.984L737.942 479.6L738.694 479.056L740.47 481.264L739.462 481.984ZM737.11 482.016L736.118 481.296L737.91 479.104L738.646 479.648L737.11 482.016ZM738.118 479.792L735.382 479.072L735.782 477.888L738.406 478.928L738.118 479.792ZM737.814 479.376L737.654 476.544H738.886L738.726 479.376H737.814ZM738.406 479.808L738.134 478.928L740.774 477.92L741.142 479.088L738.406 479.808ZM747.197 481.984L745.677 479.6L746.429 479.056L748.205 481.264L747.197 481.984ZM744.845 482.016L743.853 481.296L745.645 479.104L746.381 479.648L744.845 482.016ZM745.853 479.792L743.117 479.072L743.517 477.888L746.141 478.928L745.853 479.792ZM745.549 479.376L745.389 476.544H746.621L746.461 479.376H745.549ZM746.141 479.808L745.869 478.928L748.509 477.92L748.877 479.088L746.141 479.808ZM754.931 481.984L753.411 479.6L754.163 479.056L755.939 481.264L754.931 481.984ZM752.579 482.016L751.587 481.296L753.379 479.104L754.115 479.648L752.579 482.016ZM753.587 479.792L750.851 479.072L751.251 477.888L753.875 478.928L753.587 479.792ZM753.283 479.376L753.123 476.544H754.355L754.195 479.376H753.283ZM753.875 479.808L753.603 478.928L756.243 477.92L756.611 479.088L753.875 479.808ZM762.665 481.984L761.145 479.6L761.897 479.056L763.673 481.264L762.665 481.984ZM760.313 482.016L759.321 481.296L761.113 479.104L761.849 479.648L760.313 482.016ZM761.321 479.792L758.585 479.072L758.985 477.888L761.609 478.928L761.321 479.792ZM761.017 479.376L760.857 476.544H762.089L761.929 479.376H761.017ZM761.609 479.808L761.337 478.928L763.977 477.92L764.345 479.088L761.609 479.808Z" fill="#212121"/>
<g clip-path="url(#clip1_6506_2647)">
<path d="M1133.34 478.782L1131.41 478.264L1132.2 475.325C1131.02 474.891 1129.93 474.258 1128.96 473.453L1126.81 475.607L1125.39 474.192L1127.55 472.039C1126.33 470.583 1125.51 468.836 1125.18 466.969L1127.14 466.61C1127.9 470.812 1131.58 474 1136 474C1140.42 474 1144.1 470.812 1144.86 466.61L1146.82 466.968C1146.49 468.835 1145.67 470.583 1144.45 472.039L1146.61 474.192L1145.19 475.607L1143.04 473.453C1142.07 474.258 1140.98 474.891 1139.8 475.325L1140.59 478.265L1138.66 478.782L1137.87 475.842C1136.63 476.054 1135.37 476.054 1134.13 475.842L1133.34 478.782Z" fill="#212121"/>
</g>
<path d="M1040.72 525V513.8H1047.38V515.032H1042.08V518.856H1046.75V520.088H1042.08V525H1040.72ZM1052.48 525.192C1051.7 525.192 1051.01 525.016 1050.4 524.664C1049.8 524.301 1049.33 523.805 1048.99 523.176C1048.65 522.547 1048.48 521.821 1048.48 521C1048.48 520.179 1048.65 519.453 1048.98 518.824C1049.32 518.195 1049.79 517.704 1050.39 517.352C1050.99 516.989 1051.68 516.808 1052.45 516.808C1053.24 516.808 1053.93 516.989 1054.53 517.352C1055.14 517.704 1055.61 518.195 1055.94 518.824C1056.28 519.453 1056.45 520.179 1056.45 521C1056.45 521.821 1056.28 522.547 1055.94 523.176C1055.61 523.805 1055.14 524.301 1054.55 524.664C1053.95 525.016 1053.26 525.192 1052.48 525.192ZM1052.48 524.008C1053.01 524.008 1053.48 523.88 1053.87 523.624C1054.27 523.368 1054.58 523.016 1054.8 522.568C1055.04 522.12 1055.15 521.597 1055.15 521C1055.15 520.403 1055.04 519.88 1054.8 519.432C1054.58 518.984 1054.26 518.632 1053.86 518.376C1053.45 518.12 1052.98 517.992 1052.45 517.992C1051.93 517.992 1051.46 518.12 1051.06 518.376C1050.66 518.632 1050.35 518.984 1050.11 519.432C1049.89 519.88 1049.78 520.403 1049.78 521C1049.78 521.587 1049.89 522.109 1050.11 522.568C1050.35 523.016 1050.67 523.368 1051.07 523.624C1051.49 523.88 1051.96 524.008 1052.48 524.008ZM1058.93 520.664C1058.93 519.8 1059.1 519.101 1059.43 518.568C1059.76 518.024 1060.18 517.624 1060.69 517.368C1061.21 517.101 1061.76 516.968 1062.34 516.968V518.168C1061.87 518.168 1061.42 518.248 1060.98 518.408C1060.55 518.557 1060.2 518.808 1059.92 519.16C1059.65 519.512 1059.51 519.992 1059.51 520.6L1058.93 520.664ZM1058.23 525V517H1059.51V525H1058.23ZM1066.83 528.392C1066.32 528.392 1065.85 528.339 1065.42 528.232C1065.01 528.136 1064.65 528.024 1064.35 527.896C1064.06 527.779 1063.86 527.677 1063.73 527.592L1064.21 526.552C1064.35 526.627 1064.54 526.717 1064.8 526.824C1065.06 526.941 1065.36 527.037 1065.7 527.112C1066.05 527.197 1066.42 527.24 1066.82 527.24C1067.33 527.24 1067.79 527.133 1068.19 526.92C1068.61 526.717 1068.93 526.392 1069.15 525.944C1069.39 525.507 1069.5 524.941 1069.5 524.248V517H1070.78V524.232C1070.78 525.149 1070.61 525.917 1070.27 526.536C1069.93 527.155 1069.46 527.619 1068.86 527.928C1068.27 528.237 1067.59 528.392 1066.83 528.392ZM1066.78 524.936C1066.07 524.936 1065.44 524.765 1064.9 524.424C1064.35 524.083 1063.93 523.608 1063.62 523C1063.32 522.381 1063.17 521.677 1063.17 520.888C1063.17 520.077 1063.32 519.368 1063.62 518.76C1063.93 518.141 1064.35 517.661 1064.9 517.32C1065.44 516.979 1066.07 516.808 1066.78 516.808C1067.46 516.808 1068.04 516.979 1068.54 517.32C1069.05 517.661 1069.44 518.141 1069.71 518.76C1070 519.368 1070.14 520.077 1070.14 520.888C1070.14 521.688 1070 522.392 1069.71 523C1069.44 523.608 1069.05 524.083 1068.54 524.424C1068.04 524.765 1067.46 524.936 1066.78 524.936ZM1067.09 523.832C1067.56 523.832 1067.97 523.704 1068.34 523.448C1068.7 523.192 1068.98 522.845 1069.18 522.408C1069.39 521.96 1069.49 521.443 1069.49 520.856C1069.49 520.291 1069.38 519.789 1069.17 519.352C1068.97 518.904 1068.68 518.557 1068.32 518.312C1067.97 518.056 1067.55 517.928 1067.07 517.928C1066.57 517.928 1066.12 518.056 1065.73 518.312C1065.34 518.557 1065.04 518.904 1064.82 519.352C1064.6 519.789 1064.5 520.291 1064.5 520.856C1064.5 521.443 1064.61 521.96 1064.83 522.408C1065.06 522.845 1065.36 523.192 1065.74 523.448C1066.14 523.704 1066.59 523.832 1067.09 523.832ZM1076.53 525.192C1075.75 525.192 1075.06 525.016 1074.46 524.664C1073.87 524.301 1073.4 523.805 1073.06 523.176C1072.72 522.547 1072.56 521.821 1072.56 521C1072.56 520.179 1072.72 519.453 1073.06 518.824C1073.4 518.195 1073.86 517.704 1074.45 517.352C1075.04 516.989 1075.73 516.808 1076.5 516.808C1077.24 516.808 1077.89 516.995 1078.43 517.368C1078.98 517.731 1079.4 518.243 1079.7 518.904C1079.99 519.565 1080.14 520.344 1080.14 521.24H1073.54L1073.86 520.968C1073.86 521.608 1073.97 522.157 1074.19 522.616C1074.43 523.075 1074.75 523.427 1075.17 523.672C1075.58 523.907 1076.06 524.024 1076.59 524.024C1077.16 524.024 1077.63 523.891 1078.02 523.624C1078.41 523.357 1078.71 523.005 1078.93 522.568L1080.03 523.128C1079.83 523.544 1079.56 523.907 1079.22 524.216C1078.88 524.525 1078.49 524.765 1078.03 524.936C1077.58 525.107 1077.08 525.192 1076.53 525.192ZM1073.94 520.424L1073.6 520.168H1079.12L1078.78 520.44C1078.78 519.928 1078.68 519.485 1078.48 519.112C1078.28 518.739 1078 518.451 1077.66 518.248C1077.32 518.045 1076.93 517.944 1076.48 517.944C1076.04 517.944 1075.63 518.045 1075.23 518.248C1074.85 518.451 1074.53 518.739 1074.29 519.112C1074.05 519.475 1073.94 519.912 1073.94 520.424ZM1084.77 525.192C1083.99 525.192 1083.38 524.989 1082.96 524.584C1082.53 524.179 1082.32 523.608 1082.32 522.872V514.504H1083.6V522.744C1083.6 523.149 1083.7 523.464 1083.92 523.688C1084.14 523.901 1084.45 524.008 1084.85 524.008C1084.97 524.008 1085.1 523.992 1085.21 523.96C1085.34 523.917 1085.51 523.821 1085.71 523.672L1086.21 524.712C1085.93 524.893 1085.68 525.016 1085.45 525.08C1085.23 525.155 1085 525.192 1084.77 525.192ZM1080.93 518.136V517H1086V518.136H1080.93ZM1092.13 525V513.8H1095.77C1096.5 513.8 1097.14 513.949 1097.69 514.248C1098.26 514.547 1098.7 514.963 1099.01 515.496C1099.33 516.029 1099.49 516.648 1099.49 517.352C1099.49 518.035 1099.34 518.643 1099.05 519.176C1098.77 519.709 1098.37 520.131 1097.87 520.44C1097.37 520.739 1096.79 520.888 1096.13 520.888H1093.49V525H1092.13ZM1093.49 519.656H1096.13C1096.71 519.656 1097.19 519.443 1097.57 519.016C1097.95 518.579 1098.14 518.024 1098.14 517.352C1098.14 516.659 1097.92 516.099 1097.47 515.672C1097.02 515.245 1096.45 515.032 1095.76 515.032H1093.49V519.656ZM1105.8 525L1105.73 523.688V520.776C1105.73 520.147 1105.66 519.629 1105.52 519.224C1105.38 518.808 1105.17 518.493 1104.87 518.28C1104.57 518.067 1104.18 517.96 1103.7 517.96C1103.26 517.96 1102.88 518.051 1102.56 518.232C1102.25 518.403 1102 518.68 1101.8 519.064L1100.64 518.616C1100.85 518.243 1101.09 517.923 1101.38 517.656C1101.67 517.379 1102 517.171 1102.39 517.032C1102.77 516.883 1103.21 516.808 1103.7 516.808C1104.45 516.808 1105.06 516.957 1105.54 517.256C1106.03 517.544 1106.4 517.976 1106.64 518.552C1106.89 519.117 1107.01 519.821 1107 520.664L1106.98 525H1105.8ZM1103.4 525.192C1102.46 525.192 1101.72 524.979 1101.19 524.552C1100.66 524.115 1100.4 523.512 1100.4 522.744C1100.4 521.933 1100.67 521.315 1101.2 520.888C1101.75 520.451 1102.5 520.232 1103.48 520.232H1105.76V521.304H1103.76C1103.02 521.304 1102.48 521.427 1102.16 521.672C1101.85 521.917 1101.7 522.269 1101.7 522.728C1101.7 523.144 1101.85 523.475 1102.16 523.72C1102.47 523.955 1102.9 524.072 1103.46 524.072C1103.92 524.072 1104.32 523.976 1104.66 523.784C1105 523.581 1105.26 523.299 1105.44 522.936C1105.64 522.563 1105.73 522.125 1105.73 521.624H1106.28C1106.28 522.712 1106.03 523.581 1105.54 524.232C1105.05 524.872 1104.33 525.192 1103.4 525.192ZM1111.82 525.192C1111.24 525.192 1110.72 525.107 1110.29 524.936C1109.85 524.755 1109.48 524.52 1109.18 524.232C1108.9 523.944 1108.69 523.629 1108.56 523.288L1109.68 522.824C1109.86 523.187 1110.13 523.48 1110.5 523.704C1110.86 523.928 1111.26 524.04 1111.7 524.04C1112.2 524.04 1112.62 523.944 1112.96 523.752C1113.3 523.549 1113.47 523.267 1113.47 522.904C1113.47 522.573 1113.34 522.307 1113.09 522.104C1112.84 521.901 1112.47 521.736 1111.98 521.608L1111.22 521.4C1110.49 521.208 1109.92 520.92 1109.52 520.536C1109.11 520.141 1108.91 519.699 1108.91 519.208C1108.91 518.451 1109.16 517.864 1109.65 517.448C1110.15 517.021 1110.89 516.808 1111.87 516.808C1112.34 516.808 1112.77 516.877 1113.15 517.016C1113.54 517.155 1113.87 517.352 1114.14 517.608C1114.42 517.853 1114.62 518.147 1114.75 518.488L1113.63 518.984C1113.49 518.621 1113.26 518.36 1112.94 518.2C1112.62 518.04 1112.23 517.96 1111.78 517.96C1111.28 517.96 1110.9 518.067 1110.62 518.28C1110.35 518.483 1110.21 518.771 1110.21 519.144C1110.21 519.357 1110.32 519.56 1110.54 519.752C1110.78 519.933 1111.12 520.083 1111.57 520.2L1112.37 520.408C1112.89 520.536 1113.33 520.728 1113.68 520.984C1114.03 521.229 1114.3 521.512 1114.48 521.832C1114.66 522.152 1114.75 522.493 1114.75 522.856C1114.75 523.336 1114.62 523.752 1114.37 524.104C1114.11 524.456 1113.76 524.728 1113.33 524.92C1112.89 525.101 1112.39 525.192 1111.82 525.192ZM1119.28 525.192C1118.69 525.192 1118.18 525.107 1117.74 524.936C1117.3 524.755 1116.94 524.52 1116.64 524.232C1116.35 523.944 1116.14 523.629 1116.01 523.288L1117.13 522.824C1117.31 523.187 1117.59 523.48 1117.95 523.704C1118.31 523.928 1118.71 524.04 1119.15 524.04C1119.65 524.04 1120.07 523.944 1120.41 523.752C1120.75 523.549 1120.92 523.267 1120.92 522.904C1120.92 522.573 1120.8 522.307 1120.54 522.104C1120.3 521.901 1119.93 521.736 1119.44 521.608L1118.67 521.4C1117.94 521.208 1117.38 520.92 1116.97 520.536C1116.57 520.141 1116.36 519.699 1116.36 519.208C1116.36 518.451 1116.61 517.864 1117.1 517.448C1117.6 517.021 1118.34 516.808 1119.32 516.808C1119.79 516.808 1120.22 516.877 1120.6 517.016C1120.99 517.155 1121.32 517.352 1121.6 517.608C1121.87 517.853 1122.08 518.147 1122.2 518.488L1121.08 518.984C1120.95 518.621 1120.72 518.36 1120.4 518.2C1120.08 518.04 1119.69 517.96 1119.23 517.96C1118.74 517.96 1118.35 518.067 1118.08 518.28C1117.8 518.483 1117.66 518.771 1117.66 519.144C1117.66 519.357 1117.77 519.56 1118 519.752C1118.23 519.933 1118.57 520.083 1119.02 520.2L1119.82 520.408C1120.34 520.536 1120.78 520.728 1121.13 520.984C1121.48 521.229 1121.75 521.512 1121.93 521.832C1122.11 522.152 1122.2 522.493 1122.2 522.856C1122.2 523.336 1122.08 523.752 1121.82 524.104C1121.56 524.456 1121.22 524.728 1120.78 524.92C1120.34 525.101 1119.84 525.192 1119.28 525.192ZM1131.19 525L1133.9 517H1135.19L1132.47 525H1131.19ZM1125.75 525L1128.46 517H1129.66L1126.99 525H1125.75ZM1125.69 525L1122.97 517H1124.27L1126.94 525H1125.69ZM1131.19 525L1128.52 517H1129.74L1132.41 525H1131.19ZM1139.83 525.192C1139.05 525.192 1138.35 525.016 1137.75 524.664C1137.15 524.301 1136.68 523.805 1136.34 523.176C1136 522.547 1135.83 521.821 1135.83 521C1135.83 520.179 1135.99 519.453 1136.32 518.824C1136.66 518.195 1137.13 517.704 1137.73 517.352C1138.34 516.989 1139.03 516.808 1139.79 516.808C1140.58 516.808 1141.28 516.989 1141.87 517.352C1142.48 517.704 1142.95 518.195 1143.28 518.824C1143.62 519.453 1143.79 520.179 1143.79 521C1143.79 521.821 1143.62 522.547 1143.28 523.176C1142.95 523.805 1142.49 524.301 1141.89 524.664C1141.29 525.016 1140.6 525.192 1139.83 525.192ZM1139.83 524.008C1140.36 524.008 1140.82 523.88 1141.22 523.624C1141.61 523.368 1141.92 523.016 1142.15 522.568C1142.38 522.12 1142.5 521.597 1142.5 521C1142.5 520.403 1142.38 519.88 1142.15 519.432C1141.92 518.984 1141.61 518.632 1141.2 518.376C1140.8 518.12 1140.33 517.992 1139.79 517.992C1139.27 517.992 1138.81 518.12 1138.4 518.376C1138.01 518.632 1137.69 518.984 1137.46 519.432C1137.23 519.88 1137.12 520.403 1137.12 521C1137.12 521.587 1137.23 522.109 1137.46 522.568C1137.69 523.016 1138.01 523.368 1138.42 523.624C1138.83 523.88 1139.3 524.008 1139.83 524.008ZM1146.27 520.664C1146.27 519.8 1146.44 519.101 1146.77 518.568C1147.1 518.024 1147.52 517.624 1148.03 517.368C1148.56 517.101 1149.11 516.968 1149.68 516.968V518.168C1149.21 518.168 1148.76 518.248 1148.32 518.408C1147.9 518.557 1147.54 518.808 1147.27 519.16C1146.99 519.512 1146.85 519.992 1146.85 520.6L1146.27 520.664ZM1145.57 525V517H1146.85V525H1145.57ZM1156.9 525L1156.83 523.512V513.8H1158.11V525H1156.9ZM1154.13 525.192C1153.41 525.192 1152.78 525.016 1152.24 524.664C1151.7 524.312 1151.27 523.821 1150.96 523.192C1150.66 522.552 1150.51 521.821 1150.51 521C1150.51 520.168 1150.66 519.437 1150.96 518.808C1151.27 518.179 1151.7 517.688 1152.24 517.336C1152.78 516.984 1153.41 516.808 1154.13 516.808C1154.8 516.808 1155.39 516.984 1155.89 517.336C1156.4 517.688 1156.8 518.179 1157.07 518.808C1157.35 519.437 1157.49 520.168 1157.49 521C1157.49 521.821 1157.35 522.552 1157.07 523.192C1156.8 523.821 1156.4 524.312 1155.89 524.664C1155.39 525.016 1154.8 525.192 1154.13 525.192ZM1154.42 524.024C1154.89 524.024 1155.3 523.896 1155.66 523.64C1156.03 523.384 1156.31 523.027 1156.51 522.568C1156.73 522.109 1156.83 521.587 1156.83 521C1156.83 520.413 1156.73 519.891 1156.51 519.432C1156.31 518.973 1156.03 518.616 1155.66 518.36C1155.3 518.104 1154.88 517.976 1154.4 517.976C1153.9 517.976 1153.45 518.104 1153.06 518.36C1152.67 518.616 1152.37 518.973 1152.14 519.432C1151.92 519.891 1151.81 520.413 1151.81 521C1151.81 521.587 1151.92 522.109 1152.14 522.568C1152.37 523.027 1152.68 523.384 1153.07 523.64C1153.47 523.896 1153.92 524.024 1154.42 524.024ZM1162.03 521.992L1162.02 519.144L1162.85 519.112C1163.55 519.101 1164.13 518.904 1164.58 518.52C1165.02 518.125 1165.25 517.592 1165.25 516.92C1165.25 516.312 1165.03 515.811 1164.61 515.416C1164.19 515.011 1163.65 514.808 1162.98 514.808C1162.49 514.808 1162.05 514.925 1161.68 515.16C1161.32 515.384 1161.07 515.667 1160.94 516.008L1159.74 515.64C1159.96 515.043 1160.34 514.557 1160.9 514.184C1161.46 513.8 1162.15 513.608 1162.98 513.608C1163.68 513.608 1164.3 513.752 1164.83 514.04C1165.37 514.317 1165.79 514.707 1166.1 515.208C1166.41 515.709 1166.56 516.28 1166.56 516.92C1166.56 517.528 1166.42 518.067 1166.14 518.536C1165.88 519.005 1165.5 519.384 1165.02 519.672C1164.54 519.949 1163.98 520.115 1163.34 520.168V521.992H1162.03ZM1162.69 525.224C1162.43 525.224 1162.22 525.139 1162.05 524.968C1161.88 524.797 1161.79 524.589 1161.79 524.344C1161.79 524.088 1161.88 523.875 1162.05 523.704C1162.22 523.533 1162.43 523.448 1162.69 523.448C1162.94 523.448 1163.15 523.533 1163.31 523.704C1163.48 523.875 1163.57 524.088 1163.57 524.344C1163.57 524.589 1163.48 524.797 1163.31 524.968C1163.15 525.139 1162.94 525.224 1162.69 525.224Z" fill="#0082E3"/>
<rect x="668" y="541" width="500" height="56" rx="4" fill="#0082E3"/>
<path d="M836.083 574.692C835.016 574.692 834.067 574.447 833.235 573.956C832.403 573.455 831.752 572.772 831.283 571.908C830.813 571.033 830.579 570.031 830.579 568.9C830.579 567.769 830.813 566.772 831.283 565.908C831.752 565.033 832.397 564.351 833.219 563.86C834.04 563.359 834.984 563.108 836.051 563.108C836.744 563.108 837.405 563.236 838.035 563.492C838.664 563.737 839.224 564.084 839.715 564.532C840.216 564.969 840.6 565.481 840.867 566.068L839.459 566.708C839.256 566.271 838.979 565.892 838.627 565.572C838.275 565.252 837.875 565.001 837.427 564.82C836.989 564.639 836.531 564.548 836.051 564.548C835.304 564.548 834.637 564.735 834.051 565.108C833.464 565.481 833.005 565.993 832.675 566.644C832.344 567.295 832.179 568.047 832.179 568.9C832.179 569.753 832.344 570.511 832.675 571.172C833.016 571.833 833.48 572.351 834.067 572.724C834.664 573.087 835.341 573.268 836.099 573.268C836.589 573.268 837.053 573.172 837.491 572.98C837.928 572.777 838.317 572.505 838.659 572.164C839.011 571.812 839.293 571.412 839.507 570.964L840.915 571.588C840.648 572.196 840.269 572.735 839.779 573.204C839.288 573.673 838.723 574.041 838.083 574.308C837.453 574.564 836.787 574.692 836.083 574.692ZM846.11 574.692C845.31 574.692 844.606 574.516 843.998 574.164C843.39 573.801 842.91 573.305 842.558 572.676C842.216 572.047 842.046 571.321 842.046 570.5C842.046 569.679 842.216 568.953 842.558 568.324C842.899 567.695 843.374 567.204 843.982 566.852C844.59 566.489 845.288 566.308 846.078 566.308C846.867 566.308 847.566 566.489 848.174 566.852C848.782 567.204 849.256 567.695 849.598 568.324C849.939 568.953 850.11 569.679 850.11 570.5C850.11 571.321 849.939 572.047 849.598 572.676C849.256 573.305 848.782 573.801 848.174 574.164C847.576 574.516 846.888 574.692 846.11 574.692ZM846.11 573.3C846.59 573.3 847.016 573.183 847.39 572.948C847.763 572.703 848.051 572.372 848.254 571.956C848.467 571.54 848.574 571.055 848.574 570.5C848.574 569.945 848.467 569.46 848.254 569.044C848.051 568.628 847.758 568.303 847.374 568.068C846.99 567.823 846.558 567.7 846.078 567.7C845.587 567.7 845.155 567.823 844.782 568.068C844.408 568.303 844.115 568.628 843.902 569.044C843.688 569.46 843.582 569.945 843.582 570.5C843.582 571.055 843.688 571.54 843.902 571.956C844.115 572.372 844.414 572.703 844.798 572.948C845.182 573.183 845.619 573.3 846.11 573.3ZM851.775 574.5V566.5H853.199L853.295 567.972V574.5H851.775ZM857.311 574.5V570.404H858.831V574.5H857.311ZM857.311 570.404C857.311 569.679 857.225 569.129 857.055 568.756C856.895 568.372 856.665 568.105 856.367 567.956C856.079 567.807 855.743 567.727 855.359 567.716C854.708 567.716 854.201 567.945 853.839 568.404C853.476 568.863 853.295 569.508 853.295 570.34H852.639C852.639 569.497 852.761 568.777 853.007 568.18C853.263 567.572 853.62 567.108 854.079 566.788C854.548 566.468 855.103 566.308 855.743 566.308C856.372 566.308 856.916 566.436 857.375 566.692C857.844 566.948 858.201 567.348 858.447 567.892C858.703 568.425 858.831 569.129 858.831 570.004V570.404H857.311ZM863.832 574.692C863.032 574.692 862.413 574.489 861.976 574.084C861.538 573.668 861.32 573.076 861.32 572.308V564.004H862.84V572.084C862.84 572.479 862.936 572.783 863.128 572.996C863.33 573.199 863.618 573.3 863.992 573.3C864.098 573.3 864.216 573.279 864.344 573.236C864.472 573.193 864.626 573.108 864.808 572.98L865.384 574.164C865.106 574.345 864.84 574.479 864.584 574.564C864.338 574.649 864.088 574.692 863.832 574.692ZM859.96 567.812V566.5H865.112V567.812H859.96ZM866.98 574.5V566.5H868.5V574.5H866.98ZM867.748 564.804C867.503 564.804 867.289 564.713 867.108 564.532C866.927 564.34 866.836 564.121 866.836 563.876C866.836 563.62 866.927 563.407 867.108 563.236C867.289 563.055 867.503 562.964 867.748 562.964C868.004 562.964 868.217 563.055 868.388 563.236C868.569 563.407 868.66 563.62 868.66 563.876C868.66 564.121 868.569 564.34 868.388 564.532C868.217 564.713 868.004 564.804 867.748 564.804ZM870.728 574.5V566.5H872.152L872.248 567.972V574.5H870.728ZM876.264 574.5V570.404H877.784V574.5H876.264ZM876.264 570.404C876.264 569.679 876.179 569.129 876.008 568.756C875.848 568.372 875.619 568.105 875.32 567.956C875.032 567.807 874.696 567.727 874.312 567.716C873.661 567.716 873.155 567.945 872.792 568.404C872.429 568.863 872.248 569.508 872.248 570.34H871.592C871.592 569.497 871.715 568.777 871.96 568.18C872.216 567.572 872.573 567.108 873.032 566.788C873.501 566.468 874.056 566.308 874.696 566.308C875.325 566.308 875.869 566.436 876.328 566.692C876.797 566.948 877.155 567.348 877.4 567.892C877.656 568.425 877.784 569.129 877.784 570.004V570.404H876.264ZM885.137 574.5L885.041 573.028V566.5H886.545V574.5H885.137ZM879.505 570.596V566.5H881.025V570.596H879.505ZM881.025 570.596C881.025 571.311 881.105 571.86 881.265 572.244C881.435 572.628 881.67 572.895 881.969 573.044C882.267 573.193 882.603 573.273 882.977 573.284C883.627 573.284 884.134 573.055 884.497 572.596C884.859 572.137 885.041 571.492 885.041 570.66H885.697C885.697 571.503 885.569 572.228 885.313 572.836C885.067 573.433 884.715 573.892 884.257 574.212C883.798 574.532 883.238 574.692 882.577 574.692C881.958 574.692 881.414 574.564 880.945 574.308C880.486 574.052 880.129 573.652 879.873 573.108C879.627 572.564 879.505 571.86 879.505 570.996V570.596H881.025ZM892.201 574.692C891.423 574.692 890.735 574.516 890.137 574.164C889.54 573.801 889.071 573.305 888.729 572.676C888.388 572.047 888.217 571.321 888.217 570.5C888.217 569.679 888.388 568.953 888.729 568.324C889.071 567.695 889.54 567.204 890.137 566.852C890.745 566.489 891.439 566.308 892.217 566.308C892.953 566.308 893.599 566.495 894.153 566.868C894.708 567.231 895.14 567.753 895.449 568.436C895.769 569.108 895.929 569.903 895.929 570.82H889.465L889.753 570.58C889.753 571.145 889.865 571.636 890.089 572.052C890.313 572.468 890.617 572.788 891.001 573.012C891.385 573.225 891.823 573.332 892.313 573.332C892.847 573.332 893.289 573.209 893.641 572.964C894.004 572.708 894.287 572.388 894.489 572.004L895.801 572.612C895.588 573.028 895.311 573.396 894.969 573.716C894.628 574.025 894.223 574.265 893.753 574.436C893.295 574.607 892.777 574.692 892.201 574.692ZM889.849 569.86L889.545 569.62H894.601L894.313 569.86C894.313 569.391 894.217 568.991 894.025 568.66C893.833 568.319 893.577 568.063 893.257 567.892C892.937 567.711 892.58 567.62 892.185 567.62C891.801 567.62 891.428 567.711 891.065 567.892C890.713 568.063 890.42 568.313 890.185 568.644C889.961 568.975 889.849 569.38 889.849 569.86ZM908.665 574.5L911.369 566.5H912.889L910.169 574.5H908.665ZM903.273 574.5L905.929 566.5H907.305L904.681 574.5H903.273ZM903.161 574.5L900.441 566.5H901.977L904.617 574.5H903.161ZM908.665 574.5L906.041 566.5H907.433L910.073 574.5H908.665ZM914.199 574.5V566.5H915.719V574.5H914.199ZM914.967 564.804C914.722 564.804 914.508 564.713 914.327 564.532C914.146 564.34 914.055 564.121 914.055 563.876C914.055 563.62 914.146 563.407 914.327 563.236C914.508 563.055 914.722 562.964 914.967 562.964C915.223 562.964 915.436 563.055 915.607 563.236C915.788 563.407 915.879 563.62 915.879 563.876C915.879 564.121 915.788 564.34 915.607 564.532C915.436 564.713 915.223 564.804 914.967 564.804ZM921.035 574.692C920.235 574.692 919.616 574.489 919.179 574.084C918.741 573.668 918.523 573.076 918.523 572.308V564.004H920.043V572.084C920.043 572.479 920.139 572.783 920.331 572.996C920.533 573.199 920.821 573.3 921.195 573.3C921.301 573.3 921.419 573.279 921.547 573.236C921.675 573.193 921.829 573.108 922.011 572.98L922.587 574.164C922.309 574.345 922.043 574.479 921.787 574.564C921.541 574.649 921.291 574.692 921.035 574.692ZM917.163 567.812V566.5H922.315V567.812H917.163ZM924.103 574.5V563.3H925.607V574.5H924.103ZM929.639 574.5V570.404H931.143V574.5H929.639ZM929.639 570.404C929.639 569.679 929.554 569.129 929.383 568.756C929.213 568.372 928.978 568.105 928.679 567.956C928.391 567.807 928.061 567.727 927.687 567.716C927.026 567.716 926.514 567.945 926.151 568.404C925.789 568.863 925.607 569.508 925.607 570.34H924.967C924.967 569.497 925.09 568.777 925.335 568.18C925.591 567.572 925.949 567.108 926.407 566.788C926.877 566.468 927.431 566.308 928.071 566.308C928.701 566.308 929.245 566.436 929.703 566.692C930.162 566.948 930.519 567.348 930.775 567.892C931.031 568.425 931.154 569.129 931.143 570.004V570.404H929.639ZM940.498 574.692C939.72 574.692 939.032 574.516 938.434 574.164C937.837 573.801 937.368 573.305 937.026 572.676C936.685 572.047 936.514 571.321 936.514 570.5C936.514 569.679 936.685 568.953 937.026 568.324C937.368 567.695 937.837 567.204 938.434 566.852C939.042 566.489 939.736 566.308 940.514 566.308C941.25 566.308 941.896 566.495 942.45 566.868C943.005 567.231 943.437 567.753 943.746 568.436C944.066 569.108 944.226 569.903 944.226 570.82H937.762L938.05 570.58C938.05 571.145 938.162 571.636 938.386 572.052C938.61 572.468 938.914 572.788 939.298 573.012C939.682 573.225 940.12 573.332 940.61 573.332C941.144 573.332 941.586 573.209 941.938 572.964C942.301 572.708 942.584 572.388 942.786 572.004L944.098 572.612C943.885 573.028 943.608 573.396 943.266 573.716C942.925 574.025 942.52 574.265 942.05 574.436C941.592 574.607 941.074 574.692 940.498 574.692ZM938.146 569.86L937.842 569.62H942.898L942.61 569.86C942.61 569.391 942.514 568.991 942.322 568.66C942.13 568.319 941.874 568.063 941.554 567.892C941.234 567.711 940.877 567.62 940.482 567.62C940.098 567.62 939.725 567.711 939.362 567.892C939.01 568.063 938.717 568.313 938.482 568.644C938.258 568.975 938.146 569.38 938.146 569.86ZM945.728 574.5V566.5H947.152L947.216 567.604C947.472 567.177 947.792 566.857 948.176 566.644C948.56 566.42 949.003 566.308 949.504 566.308C950.144 566.308 950.688 566.457 951.136 566.756C951.584 567.044 951.909 567.487 952.112 568.084C952.347 567.508 952.677 567.071 953.104 566.772C953.531 566.463 954.037 566.308 954.624 566.308C955.531 566.308 956.24 566.607 956.752 567.204C957.264 567.791 957.515 568.697 957.504 569.924V574.5H956V570.404C956 569.679 955.92 569.129 955.76 568.756C955.611 568.372 955.408 568.105 955.152 567.956C954.896 567.807 954.597 567.727 954.256 567.716C953.659 567.716 953.195 567.945 952.864 568.404C952.544 568.863 952.384 569.508 952.384 570.34V574.5H950.864V570.404C950.864 569.679 950.789 569.129 950.64 568.756C950.491 568.372 950.283 568.105 950.016 567.956C949.76 567.807 949.461 567.727 949.12 567.716C948.523 567.716 948.059 567.945 947.728 568.404C947.408 568.863 947.248 569.508 947.248 570.34V574.5H945.728ZM964.359 574.5L964.295 573.108V570.324C964.295 569.737 964.225 569.247 964.087 568.852C963.959 568.457 963.756 568.159 963.479 567.956C963.212 567.753 962.855 567.652 962.407 567.652C961.991 567.652 961.628 567.737 961.319 567.908C961.02 568.079 960.769 568.345 960.567 568.708L959.223 568.196C959.415 567.833 959.655 567.513 959.943 567.236C960.231 566.948 960.577 566.724 960.983 566.564C961.388 566.393 961.863 566.308 962.407 566.308C963.164 566.308 963.793 566.457 964.295 566.756C964.796 567.055 965.169 567.487 965.415 568.052C965.671 568.617 965.793 569.316 965.783 570.148L965.767 574.5H964.359ZM962.007 574.692C961.057 574.692 960.316 574.479 959.783 574.052C959.26 573.615 958.999 573.012 958.999 572.244C958.999 571.423 959.271 570.799 959.815 570.372C960.369 569.935 961.137 569.716 962.119 569.716H964.343V570.916H962.535C961.799 570.916 961.281 571.033 960.983 571.268C960.684 571.492 960.535 571.807 960.535 572.212C960.535 572.585 960.673 572.879 960.951 573.092C961.239 573.295 961.633 573.396 962.135 573.396C962.572 573.396 962.951 573.305 963.271 573.124C963.591 572.932 963.841 572.665 964.023 572.324C964.204 571.983 964.295 571.593 964.295 571.156H964.823C964.823 572.244 964.588 573.108 964.119 573.748C963.66 574.377 962.956 574.692 962.007 574.692ZM967.793 574.5V566.5H969.313V574.5H967.793ZM968.561 564.804C968.315 564.804 968.102 564.713 967.921 564.532C967.739 564.34 967.649 564.121 967.649 563.876C967.649 563.62 967.739 563.407 967.921 563.236C968.102 563.055 968.315 562.964 968.561 562.964C968.817 562.964 969.03 563.055 969.201 563.236C969.382 563.407 969.473 563.62 969.473 563.876C969.473 564.121 969.382 564.34 969.201 564.532C969.03 564.713 968.817 564.804 968.561 564.804ZM971.54 574.5V563.3H973.06V574.5H971.54Z" fill="white"/>
<path d="M986.5 569H1002.5" stroke="white" stroke-width="2" stroke-linecap="round" stroke-linejoin="round"/>
<path d="M995.834 562.333L1002.5 569L995.833 575.666" stroke="white" stroke-width="2" stroke-linecap="round" stroke-linejoin="round"/>
<rect x="1.5" width="555" height="832" fill="#0082E1"/>
<g clip-path="url(#clip2_6506_2647)">
<path d="M449.5 397.5C449.5 302.783 372.717 226 278 226C183.283 226 106.5 302.783 106.5 397.5C106.5 492.217 183.283 569 278 569C372.717 569 449.5 492.217 449.5 397.5Z" fill="#0072C6"/>
<path d="M340.427 314.333H316.474V305.287C316.474 299.992 312.182 295.7 306.887 295.7H249.113C243.818 295.7 239.526 299.992 239.526 305.287V314.333H215.573C203.417 314.333 193.548 324.202 193.548 336.359V489.483C193.548 490.819 193.676 492.13 193.908 493.415C195.758 503.721 204.753 511.534 215.599 511.534H235.954V516.34C235.954 519.655 238.652 522.354 241.968 522.354H247.391C250.706 522.354 253.405 519.655 253.405 516.34V511.534H302.698V516.34C302.698 519.655 305.397 522.354 308.712 522.354H314.135C317.45 522.354 320.149 519.655 320.149 516.34V511.534H340.504C352.66 511.534 362.529 501.665 362.529 489.508V336.359C362.529 324.202 352.66 314.333 340.504 314.333H340.427ZM244.332 305.287C244.332 302.639 246.465 300.506 249.113 300.506H306.887C309.535 300.506 311.668 302.639 311.668 305.287V314.333H244.332V305.287ZM265.664 375.706C270.65 377.711 280.442 381.746 288.126 384.958C279.593 388.582 271.087 392.54 263.042 396.472L239.937 380.486C239.937 380.486 256.694 372.108 265.689 375.706H265.664ZM230.402 417.804C230.402 417.804 247.776 407.292 268.953 397.012C275.173 394.005 281.727 390.998 288.28 388.299C311.334 378.764 334.259 372.905 342.02 382.594C342.945 383.725 343.639 385.087 344.102 386.655L232.998 436.385C232.998 436.385 219.66 429.472 213.723 417.572C212.695 415.491 211.872 413.255 211.384 410.89C209.662 402.255 230.402 417.804 230.402 417.804ZM359.445 489.508C359.445 499.994 350.913 508.527 340.427 508.527H304.497C303.906 508.013 303.289 507.499 302.647 507.036V508.527H215.573C206.347 508.527 198.457 501.947 196.838 492.901C196.709 492.181 196.632 491.462 196.581 490.716C203.725 484.188 213.234 480.23 223.695 480.23C232.202 480.23 240.117 482.878 246.594 487.401C250.141 486.219 253.944 485.576 257.876 485.576C265.407 485.576 272.397 487.889 278.18 491.873C280.056 477.198 292.598 465.864 307.761 465.864C308.429 465.864 309.072 465.889 309.714 465.941C316.859 454.71 329.401 447.231 343.716 447.231C349.293 447.231 354.613 448.362 359.445 450.418V489.508Z" fill="white"/>
</g>
<defs>
<clipPath id="clip0_6506_2647">
<rect width="132" height="110" fill="white" transform="translate(852 235)"/>
</clipPath>
<clipPath id="clip1_6506_2647">
<rect width="24" height="24" fill="white" transform="translate(1124 460)"/>
</clipPath>
<clipPath id="clip2_6506_2647">
<rect width="343" height="343" fill="white" transform="translate(106.5 226)"/>
</clipPath>
</defs>
</svg>
