<svg width="20" height="20" viewBox="0 0 20 20" fill="none" xmlns="http://www.w3.org/2000/svg">
<path d="M10.7705 0.916221C11.3285 0.916221 11.8142 0.903775 12.2432 1.07247C12.5935 1.21033 12.904 1.43409 13.1455 1.72286C13.4411 2.07643 13.5824 2.54128 13.7588 3.07052L13.874 3.41622H18.334C18.748 3.4164 19.0839 3.75221 19.084 4.16622C19.084 4.58033 18.748 4.91605 18.334 4.91622H17.374L16.9248 12.5539C16.8687 13.5077 16.8245 14.2633 16.7441 14.8723C16.6627 15.4891 16.5381 16.012 16.293 16.4924C15.7946 17.4686 14.9735 18.2426 13.9697 18.6828C13.4756 18.8995 12.9468 18.9942 12.3262 19.0393C11.7133 19.0838 10.9558 19.0832 10 19.0832C9.04432 19.0832 8.28756 19.0838 7.6748 19.0393C7.05408 18.9942 6.52537 18.8995 6.03125 18.6828C5.02744 18.2426 4.2064 17.4686 3.70801 16.4924C3.46279 16.0119 3.33732 15.4892 3.25586 14.8723C3.17548 14.2633 3.13228 13.5077 3.07617 12.5539L2.62695 4.91622H1.66699C1.25278 4.91622 0.916992 4.58043 0.916992 4.16622C0.917107 3.75211 1.25285 3.41622 1.66699 3.41622H6.12695L6.24219 3.07052C6.41862 2.5412 6.55978 2.07645 6.85547 1.72286C7.09706 1.43401 7.40739 1.21032 7.75781 1.07247C8.1868 0.903775 8.67246 0.916221 9.23047 0.916221H10.7705ZM4.57324 12.466C4.63062 13.4415 4.67156 14.1335 4.74316 14.676C4.81375 15.2106 4.90808 15.5446 5.04395 15.8108C5.38495 16.4787 5.947 17.0076 6.63379 17.3088C6.90746 17.4288 7.24556 17.5041 7.7832 17.5432C8.32903 17.5828 9.02253 17.5832 10 17.5832C10.9774 17.5832 11.671 17.5828 12.2168 17.5432C12.7547 17.5041 13.0934 17.4288 13.3672 17.3088C14.0539 17.0076 14.6161 16.4787 14.957 15.8108C15.0929 15.5446 15.1863 15.2105 15.2568 14.676C15.3284 14.1335 15.3704 13.4415 15.4277 12.466L15.8711 4.91622H4.12891L4.57324 12.466ZM8.33398 7.58321C8.74805 7.58339 9.08398 7.91911 9.08398 8.33321V14.1662C9.08392 14.5803 8.74801 14.916 8.33398 14.9162C7.91981 14.9162 7.58405 14.5804 7.58398 14.1662V8.33321C7.58398 7.919 7.91977 7.58321 8.33398 7.58321ZM11.667 7.58321C12.0812 7.58321 12.417 7.919 12.417 8.33321V11.6662C12.4169 12.0804 12.0812 12.4162 11.667 12.4162C11.2528 12.4162 10.9171 12.0804 10.917 11.6662V8.33321C10.917 7.919 11.2528 7.58321 11.667 7.58321ZM9.23047 2.41622C8.54461 2.41622 8.40691 2.42857 8.30664 2.46798C8.18994 2.51391 8.08634 2.58859 8.00586 2.68478C7.94156 2.76166 7.89053 2.87678 7.70898 3.41622H12.292C12.1103 2.8767 12.0584 2.76167 11.9941 2.68478C11.9137 2.5887 11.81 2.51386 11.6934 2.46798C11.5931 2.42868 11.4555 2.41622 10.7705 2.41622H9.23047Z" fill="#0072C6"/>
</svg>
